<?xml version="1.0" encoding="UTF-8"?>
<svg version="1.1" xmlns="http://www.w3.org/2000/svg" width="217" height="237"  viewBox="0 0 450.000000 450.000000">
<path d="M0 0 C0.91007812 0.77988281 1.82015625 1.55976562 2.7578125 2.36328125 C5.22066132 4.52916276 7.61995399 6.74344694 10 9 C10.49564453 9.46841309 10.99128906 9.93682617 11.50195312 10.41943359 C19.84733145 18.36173927 27.13206378 26.76105198 34 36 C34.4237793 36.55768066 34.84755859 37.11536133 35.28417969 37.68994141 C42.54296771 47.25022833 48.46139861 57.36122124 54 68 C54.35304199 68.66805664 54.70608398 69.33611328 55.06982422 70.02441406 C65.80159054 90.5632373 72.20158092 113.22211883 76 136 C76.19480957 137.13912842 76.19480957 137.13912842 76.39355469 138.30126953 C85.17367225 192.19938619 70.13880414 251.89089961 38.48046875 296.12304688 C31.9863159 305.04263151 25.13690475 313.55686283 17.45849609 321.49023438 C16.44444979 322.53992676 15.43744678 323.59645043 14.43603516 324.65820312 C5.39964993 334.23153689 -4.31304909 342.32888876 -15 350 C-15.8974292 350.65645508 -15.8974292 350.65645508 -16.81298828 351.32617188 C-62.23222727 384.34429741 -121.84496415 397.43497744 -177.12890625 389.0390625 C-218.37873709 382.05885563 -256.26917577 365.40724591 -288 338 C-288.91007812 337.22011719 -289.82015625 336.44023437 -290.7578125 335.63671875 C-293.22066132 333.47083724 -295.61995399 331.25655306 -298 329 C-298.49564453 328.53158691 -298.99128906 328.06317383 -299.50195312 327.58056641 C-307.84733145 319.63826073 -315.13206378 311.23894802 -322 302 C-322.4237793 301.44231934 -322.84755859 300.88463867 -323.28417969 300.31005859 C-330.54296771 290.74977167 -336.46139861 280.63877876 -342 270 C-342.35304199 269.33194336 -342.70608398 268.66388672 -343.06982422 267.97558594 C-369.49616798 217.39994095 -372.84298268 155.91528373 -355.99316406 101.86767578 C-337.09584512 43.89664279 -296.39226467 -2.11490878 -242.65625 -30.3046875 C-164.35769372 -70.02208937 -66.1330135 -57.12186203 0 0 Z " fill="#323545" transform="translate(369,56)"/>
<path d="M0 0 C0.88606934 -0.00794586 1.77213867 -0.01589172 2.68505859 -0.02407837 C14.57820096 -0.10590561 25.93018503 0.79881908 37.62696838 2.96972656 C39.96803858 3.40384225 42.31273159 3.81346465 44.65844727 4.22167969 C91.23848282 12.46572678 135.70924096 41.52731441 164.8125 78.375 C165.59367187 79.32761719 166.37484375 80.28023438 167.1796875 81.26171875 C178.40216695 95.26292714 187.34682532 111.08507898 194.8125 127.375 C195.33199219 128.50035156 195.85148437 129.62570313 196.38671875 130.78515625 C210.55839888 163.77801787 215.8546409 202.67880429 210.15869141 238.17089844 C209.77195983 240.63310768 209.44077949 243.10059403 209.10546875 245.5703125 C204.63766523 276.38739097 192.22248016 305.6541458 174.8125 331.375 C174.11769531 332.42816406 173.42289062 333.48132813 172.70703125 334.56640625 C169.30065461 339.61627182 169.30065461 339.61627182 167.8125 341.375 C167.1525 341.375 166.4925 341.375 165.8125 341.375 C164.24365234 339.27050781 164.24365234 339.27050781 162.3984375 336.328125 C161.71910156 335.25433594 161.03976562 334.18054688 160.33984375 333.07421875 C159.62207476 331.92467958 158.90462794 330.77493919 158.1875 329.625 C147.91355275 313.05368599 147.91355275 313.05368599 136.4375 297.3125 C135.97472656 296.73089111 135.51195312 296.14928223 135.03515625 295.55004883 C126.47678778 284.89727036 117.43195354 274.25638332 105.125 267.875 C103.21484375 266.75390625 103.21484375 266.75390625 101.8125 265.375 C100.82172395 261.54353736 100.96907153 257.97718845 102.82421875 254.453125 C105.17647923 249.50686976 104.67319272 243.01557184 103.0078125 237.90625 C98.89137024 229.84370102 92.21558565 223.75563006 84.5625 219.125 C78.40747091 214.97371091 76.37960967 209.46315759 74.8125 202.375 C74.47453938 198.32848487 74.48450983 194.42021207 74.8125 190.375 C76.4625 190.045 78.1125 189.715 79.8125 189.375 C79.42578125 188.80394531 79.0390625 188.23289063 78.640625 187.64453125 C72.54032567 178.14678799 68.61330832 167.16156276 68.74658203 155.78125 C68.75634064 154.68240479 68.76609924 153.58355957 68.77615356 152.45141602 C68.79072601 151.27119873 68.80529846 150.09098145 68.8203125 148.875 C68.83784225 146.3528687 68.85474922 143.83073301 68.87109375 141.30859375 C68.90192236 137.35029822 68.93729725 133.39222512 68.98388672 129.43408203 C69.02660026 125.6018612 69.04977913 121.76989573 69.0703125 117.9375 C69.08893341 116.77347656 69.10755432 115.60945313 69.1267395 114.41015625 C69.17614586 98.33278028 65.01577788 81.13394749 53.7421875 69.1796875 C47.43015347 63.21954386 41.36153633 59.81007381 32.75 58.625 C27.57696831 57.71912348 25.4323315 55.39730431 21.984375 51.59765625 C12.89242487 42.29312455 -0.90579623 36.00840009 -13.9140625 35.20703125 C-35.8537755 35.05918952 -52.65157829 44.79651671 -68.1875 59.9375 C-87.7104957 79.8022759 -96.95036456 103.64480748 -101.51171875 130.7890625 C-102.1875 134.375 -102.1875 134.375 -103.20703125 137.7734375 C-105.06904174 144.61317325 -105.22683 151.15372914 -105.15234375 158.19140625 C-105.14579822 160.36548372 -105.14255206 162.53953654 -105.14086914 164.71362305 C-105.1302755 166.19820023 -105.10353462 167.68274851 -105.06079102 169.16674805 C-104.73037252 181.60062907 -104.73037252 181.60062907 -108.36181641 186.02270508 C-111.03515625 188.1171875 -111.03515625 188.1171875 -113.69555664 189.75732422 C-118.7943915 193.06729578 -121.39088242 198.34724615 -123.5625 203.875 C-125.10369244 212.50567765 -123.90496927 218.42559027 -120.1875 226.375 C-120.11273438 225.73433594 -120.03796875 225.09367188 -119.9609375 224.43359375 C-119.01173272 218.18931528 -117.44266573 213.25409524 -112.1875 209.375 C-109.48828125 208.69140625 -109.48828125 208.69140625 -107.1875 208.375 C-106.93560334 226.58352983 -106.93560334 226.58352983 -112.4375 232.375 C-115.79859565 235.38243264 -119.39616854 237.93983671 -123.1875 240.375 C-120.2175 240.705 -117.2475 241.035 -114.1875 241.375 C-115.85416667 243.04166667 -117.52083333 244.70833333 -119.1875 246.375 C-119.744375 246.973125 -120.30125 247.57125 -120.875 248.1875 C-122.1875 249.375 -122.1875 249.375 -124.1875 249.375 C-124.1875 250.035 -124.1875 250.695 -124.1875 251.375 C-124.868125 252.014375 -125.54875 252.65375 -126.25 253.3125 C-135.29291672 262.07282557 -140.19259655 273.65569667 -140.5 286.0625 C-140.47550781 287.26261719 -140.45101562 288.46273438 -140.42578125 289.69921875 C-141.35673449 294.19166492 -143.08915499 295.89287744 -146.18432617 299.14526367 C-149.89038959 303.27048942 -152.7126004 308.02273475 -155.6875 312.6875 C-156.31269531 313.65623047 -156.93789062 314.62496094 -157.58203125 315.62304688 C-161.81292589 322.18837925 -165.99940834 328.78230487 -170.1875 335.375 C-174.32231058 333.99672981 -175.52498998 331.18600419 -177.6875 327.625 C-178.11893311 326.92270264 -178.55036621 326.22040527 -178.99487305 325.49682617 C-186.90426074 312.41291353 -194.26570705 298.87950643 -199.1875 284.375 C-199.66913339 283.05936795 -200.15230562 281.7442986 -200.63671875 280.4296875 C-218.70981645 230.20820938 -215.25643165 171.71955115 -193.1875 123.375 C-185.30253337 106.78415781 -176.03608201 91.44385683 -164.1875 77.375 C-163.30823687 76.29846847 -162.42935555 75.22162502 -161.55078125 74.14453125 C-136.28994176 43.53367924 -101.43640324 20.35689684 -63.37158203 9.02636719 C-61.18716875 8.37490121 -59.01417237 7.69207933 -56.83984375 7.0078125 C-38.05899777 1.254252 -19.53678507 0.09199685 0 0 Z " fill="#FDFDFD" transform="translate(225.1875,13.625)"/>
<path d="M0 0 C2.16015625 1.92578125 2.16015625 1.92578125 4.53515625 4.73828125 C8.08950738 7.70024052 11.57648739 8.14226075 16.03515625 9.13671875 C26.36474568 11.74494008 34.10096766 17.77495836 39.94921875 26.63671875 C47.41131872 39.75972214 49.51499886 52.94706638 49.21484375 67.90625 C49.18954375 70.39517666 49.16482238 72.88410925 49.140625 75.37304688 C49.09119163 79.23888351 49.03531033 83.10439807 48.96826172 86.9699707 C48.65719082 106.15716668 48.73724718 122.18498575 59.16015625 138.92578125 C59.49015625 139.58578125 59.82015625 140.24578125 60.16015625 140.92578125 C58.51015625 140.92578125 56.86015625 140.92578125 55.16015625 140.92578125 C54.42340434 150.0123882 55.34268299 158.01804976 60.16015625 165.92578125 C62.73108704 168.30521641 65.35981166 170.14344114 68.3046875 172.03515625 C75.02289793 176.48332841 82.07238486 182.86894534 84.16015625 190.92578125 C84.74124306 196.77438231 84.95329308 201.68327828 82.16015625 206.92578125 C81.7151534 209.05171183 81.7151534 209.05171183 81.53515625 211.17578125 C81.41140625 212.41328125 81.28765625 213.65078125 81.16015625 214.92578125 C79.51015625 214.26578125 77.86015625 213.60578125 76.16015625 212.92578125 C76.16015625 212.26578125 76.16015625 211.60578125 76.16015625 210.92578125 C75.25265625 210.78140625 74.34515625 210.63703125 73.41015625 210.48828125 C70.94538669 210.06168652 68.57168518 209.57503904 66.16015625 208.92578125 C66.16015625 208.26578125 66.16015625 207.60578125 66.16015625 206.92578125 C60.09864978 206.04078726 54.21916594 205.77310298 48.09765625 205.80078125 C47.23849609 205.79691406 46.37933594 205.79304687 45.49414062 205.7890625 C37.63505659 205.80107027 31.4158241 206.75967164 24.16015625 209.92578125 C22.17194312 210.32342388 20.17283263 210.68033291 18.16015625 210.92578125 C18.16015625 211.58578125 18.16015625 212.24578125 18.16015625 212.92578125 C16.84015625 213.25578125 15.52015625 213.58578125 14.16015625 213.92578125 C14.16015625 214.58578125 14.16015625 215.24578125 14.16015625 215.92578125 C13.50015625 215.92578125 12.84015625 215.92578125 12.16015625 215.92578125 C11.91007813 214.75015625 11.66 213.57453125 11.40234375 212.36328125 C10.34766294 208.14455802 8.49587429 204.64385348 6.28515625 200.92578125 C0.13736907 189.93230377 -4.62126955 175.55176869 -1.83984375 162.92578125 C0.39379889 160.10700301 3.07137903 158.69002131 6.16015625 156.92578125 C12.86487121 151.39195207 18.81446765 144.04881834 19.91015625 135.23828125 C20.42829493 132.15643558 20.8604002 131.17980246 23.28515625 129.125 C25.05329559 127.98044552 26.83093971 126.85045767 28.6171875 125.734375 C34.56335972 121.50537694 38.60673522 114.01803955 40.16015625 106.92578125 C40.86371347 101.38331381 41.15654253 97.40612657 37.97265625 92.67578125 C35.34077732 90.69464917 35.34077732 90.69464917 32.53515625 90.92578125 C28.84650459 92.47889774 27.58932041 93.954515 25.97265625 97.61328125 C25.70453125 98.37640625 25.43640625 99.13953125 25.16015625 99.92578125 C24.83015625 99.92578125 24.50015625 99.92578125 24.16015625 99.92578125 C24.12148438 98.38083984 24.12148438 98.38083984 24.08203125 96.8046875 C23.46351643 79.29739728 20.49860058 59.66986091 7.87890625 46.37890625 C-5.88197489 34.74470674 -22.62181183 33.96328257 -39.83984375 34.92578125 C-47.80519641 35.99370676 -53.67005643 39.94610519 -59.83984375 44.92578125 C-60.46761719 45.42722656 -61.09539062 45.92867187 -61.7421875 46.4453125 C-73.57401562 57.04298168 -78.4530836 73.77613524 -80.83984375 88.92578125 C-81.00806641 89.98345703 -81.00806641 89.98345703 -81.1796875 91.0625 C-83.60861284 110.12790027 -83.73929273 136.06655268 -72.1015625 152.359375 C-69.81500814 155.0278378 -67.42947331 157.42195496 -64.7578125 159.70483398 C-62.4159333 162.41665617 -62.36395718 163.61323732 -62.40625 167.14453125 C-62.39988525 168.15362549 -62.39352051 169.16271973 -62.38696289 170.20239258 C-62.39203857 171.26611084 -62.39711426 172.3298291 -62.40234375 173.42578125 C-62.26825616 181.75713128 -61.78895713 187.95815677 -58.05078125 195.4453125 C-51.77497356 208.300596 -53.48758641 227.30956481 -57.5703125 240.58203125 C-60.4393602 248.1386615 -64.17796856 255.10663175 -69.83984375 260.92578125 C-70.49984375 260.92578125 -71.15984375 260.92578125 -71.83984375 260.92578125 C-72.49984375 262.24578125 -73.15984375 263.56578125 -73.83984375 264.92578125 C-74.49984375 264.92578125 -75.15984375 264.92578125 -75.83984375 264.92578125 C-75.83984375 265.58578125 -75.83984375 266.24578125 -75.83984375 266.92578125 C-76.49984375 266.92578125 -77.15984375 266.92578125 -77.83984375 266.92578125 C-77.83984375 267.58578125 -77.83984375 268.24578125 -77.83984375 268.92578125 C-80.33490016 270.22781312 -82.83522057 271.51738391 -85.33984375 272.80078125 C-86.38398438 273.34798828 -86.38398438 273.34798828 -87.44921875 273.90625 C-93.62870708 277.05321165 -99.77074011 279.36760023 -106.83984375 278.92578125 C-106.09734375 278.18328125 -105.35484375 277.44078125 -104.58984375 276.67578125 C-98.16231951 268.89701612 -97.30142147 258.61891327 -96.83984375 248.92578125 C-101.78984375 249.25578125 -106.73984375 249.58578125 -111.83984375 249.92578125 C-111.83984375 250.58578125 -111.83984375 251.24578125 -111.83984375 251.92578125 C-113.04640625 252.69921875 -113.04640625 252.69921875 -114.27734375 253.48828125 C-117.22949239 256.29642264 -117.55121997 258.00442985 -117.79296875 262 C-117.89406585 268.31014372 -117.90953101 274.61521292 -117.83984375 280.92578125 C-119.48984375 280.59578125 -121.13984375 280.26578125 -122.83984375 279.92578125 C-122.83984375 279.26578125 -122.83984375 278.60578125 -122.83984375 277.92578125 C-123.60296875 277.82265625 -124.36609375 277.71953125 -125.15234375 277.61328125 C-128.18595213 276.8372419 -128.80211152 276.20804135 -130.83984375 273.92578125 C-132.26876953 272.87583984 -132.26876953 272.87583984 -133.7265625 271.8046875 C-137.36426485 268.79201803 -138.70366049 265.50231896 -140.21484375 261.11328125 C-140.60349609 260.10297852 -140.60349609 260.10297852 -141 259.07226562 C-143.47563981 252.22823495 -143.26889471 246.07103603 -141.83984375 238.92578125 C-143.15984375 238.92578125 -144.47984375 238.92578125 -145.83984375 238.92578125 C-146.12859375 239.54453125 -146.41734375 240.16328125 -146.71484375 240.80078125 C-147.83984375 242.92578125 -147.83984375 242.92578125 -149.83984375 244.92578125 C-150.48236725 246.99452159 -150.48236725 246.99452159 -150.83984375 248.92578125 C-151.49984375 248.92578125 -152.15984375 248.92578125 -152.83984375 248.92578125 C-152.83984375 254.20578125 -152.83984375 259.48578125 -152.83984375 264.92578125 C-153.49984375 264.92578125 -154.15984375 264.92578125 -154.83984375 264.92578125 C-160.73542011 249.30925456 -165.20548477 235.18295069 -158.40625 219.046875 C-156.02288299 214.29797166 -153.0932098 210.11198449 -149.83984375 205.92578125 C-149.05480469 204.79849609 -149.05480469 204.79849609 -148.25390625 203.6484375 C-147.55394531 202.79572266 -147.55394531 202.79572266 -146.83984375 201.92578125 C-146.17984375 201.92578125 -145.51984375 201.92578125 -144.83984375 201.92578125 C-144.83984375 201.26578125 -144.83984375 200.60578125 -144.83984375 199.92578125 C-142.87109375 198.19921875 -142.87109375 198.19921875 -140.33984375 196.30078125 C-139.50453125 195.66914063 -138.66921875 195.0375 -137.80859375 194.38671875 C-136.8340625 193.66355469 -136.8340625 193.66355469 -135.83984375 192.92578125 C-138.80984375 192.59578125 -141.77984375 192.26578125 -144.83984375 191.92578125 C-142.12484655 188.21949438 -139.58445545 186.03323245 -135.71484375 183.61328125 C-131.47741779 180.37143261 -130.19897975 177.95712396 -129.47900391 172.84692383 C-129.17208634 169.54254382 -129.00842847 166.24008507 -128.83984375 162.92578125 C-128.3125 160.44140625 -128.3125 160.44140625 -127.83984375 158.92578125 C-132.42654378 160.90640172 -135.29838098 162.56898792 -137.83984375 166.92578125 C-138.74318882 170.56482476 -139.34537955 174.21079361 -139.83984375 177.92578125 C-143.76935922 174.33748421 -145.44220145 169.92135322 -146.1328125 164.71875 C-146.46205085 155.76660258 -143.45080904 149.1457875 -138.046875 142.1640625 C-135.83984375 139.92578125 -135.83984375 139.92578125 -133.84863281 138.88427734 C-131.27189967 137.44096245 -129.66882983 136.26498714 -127.83984375 133.92578125 C-126.7158513 128.60399731 -126.85291981 123.33266001 -126.96484375 117.92578125 C-126.98292189 115.0507109 -126.97988894 112.17588828 -126.97265625 109.30078125 C-126.97373886 108.59665604 -126.97482147 107.89253082 -126.97593689 107.16706848 C-126.91514558 95.83640289 -124.58272047 84.87343705 -121.83984375 73.92578125 C-121.49855086 72.48050347 -121.15741438 71.03518875 -120.81640625 69.58984375 C-117.1967103 54.66211753 -112.75088608 37.99236418 -102.83984375 25.92578125 C-101.63714844 24.42724609 -101.63714844 24.42724609 -100.41015625 22.8984375 C-86.51600497 5.87816501 -69.41695693 -11.65528397 -46.57421875 -14.82421875 C-28.79852681 -16.44942487 -13.72132578 -11.26124264 0 0 Z " fill="#242122" transform="translate(245.83984375,63.07421875)"/>
<path d="M0 0 C11.79354553 7.69493686 17.5584061 21.40495258 20.6875 34.625 C22.25895424 42.37978504 22.70295453 50.11293059 23 58 C23.433125 56.88625 23.86625 55.7725 24.3125 54.625 C26 51 26 51 29 49 C32.66055823 49.07788422 34.49018059 49.59751099 37.375 51.875 C40.33854267 57.57412052 39.86876285 63.10887118 38.046875 69.171875 C34.89598488 77.1886967 31.81654843 82.38210981 24.3125 86.8125 C21.05450743 88.82528344 21.05450743 88.82528344 19.1875 92.02734375 C18.93171251 93.5434175 18.69824526 95.06338492 18.484375 96.5859375 C16.58941187 106.03018923 8.11383071 114.03556552 1 120 C-1.83984375 121.3125 -1.83984375 121.3125 -4 122 C-2.62684523 140.58165316 -2.62684523 140.58165316 4.07421875 157.8125 C4.44144043 158.47596436 4.80866211 159.13942871 5.18701172 159.82299805 C5.91826267 161.11561497 6.67026932 162.39678462 7.44580078 163.66333008 C10.08579022 168.20571941 10.20177378 170.94426203 9 176 C8.835 176.78503906 8.67 177.57007813 8.5 178.37890625 C8.335 179.09949219 8.17 179.82007813 8 180.5625 C5.5097902 192.92793275 5.75901078 205.80663978 5.75 218.375 C5.74932526 219.23260925 5.74865051 220.09021851 5.74795532 220.97381592 C5.79005859 255.22698833 8.13655149 290.11835816 17.30078125 323.26171875 C18 326 18 326 18 329 C5.49770412 331.55320414 -6.52652045 332.44922908 -19.27783203 332.33618164 C-22.12951837 332.31246242 -24.98027005 332.31566772 -27.83203125 332.32226562 C-39.96278839 332.3032634 -52.18656399 332.05817446 -64 329 C-64.00410889 327.79617676 -64.00821777 326.59235352 -64.01245117 325.35205078 C-64.12512413 303.14245095 -64.63168291 281.12179308 -67.375 259.0625 C-67.48000824 258.2095636 -67.58501648 257.3566272 -67.69320679 256.47784424 C-68.92171421 246.66666748 -70.48065301 236.99149064 -72.53369141 227.31811523 C-73.1399742 223.0039846 -72.83309286 220.32070364 -70.51171875 216.640625 C-69.60873047 215.45726562 -69.60873047 215.45726562 -68.6875 214.25 C-65.38275613 209.66796248 -62.89357034 205.32128332 -61 200 C-60.7009375 199.16597656 -60.401875 198.33195313 -60.09375 197.47265625 C-55.65346113 182.81559161 -56.11911048 163.60801209 -63.1015625 149.8515625 C-65.65203662 144.28322232 -65.26618336 139.0764407 -65.125 133.0625 C-65.08563809 124.94092392 -65.08563809 124.94092392 -68.1015625 117.6015625 C-70.70633239 115.16481465 -70.70633239 115.16481465 -73.48828125 113.0546875 C-81.39165591 106.58940745 -82.46225682 94.51738346 -84 85 C-84.18691406 83.89140625 -84.37382812 82.7828125 -84.56640625 81.640625 C-87.35244405 58.24794723 -84.57068008 30.30118766 -69.828125 11.18359375 C-51.67899775 -9.81306898 -24.36782082 -12.63891121 0 0 Z " fill="#E8B694" transform="translate(248,104)"/>
<path d="M0 0 C-0.0721875 1.051875 -0.144375 2.10375 -0.21875 3.1875 C-3.08453342 49.83777934 -2.22682055 98.95438418 10.30078125 144.26171875 C11 147 11 147 11 150 C-1.50229588 152.55320414 -13.52652045 153.44922908 -26.27783203 153.33618164 C-29.12951837 153.31246242 -31.98027005 153.31566772 -34.83203125 153.32226562 C-46.96278839 153.3032634 -59.18656399 153.05817446 -71 150 C-71.00410889 148.79617676 -71.00821777 147.59235352 -71.01245117 146.35205078 C-71.12512413 124.14245095 -71.63168291 102.12179308 -74.375 80.0625 C-74.48000824 79.2095636 -74.58501648 78.3566272 -74.69320679 77.47784424 C-75.92171421 67.66666748 -77.48065301 57.99149064 -79.53369141 48.31811523 C-80.1399742 44.0039846 -79.83309286 41.32070364 -77.51171875 37.640625 C-76.90972656 36.85171875 -76.30773437 36.0628125 -75.6875 35.25 C-68.7282624 25.54967493 -66.48323801 15.50478889 -64 4 C-63.46632812 4.25394531 -62.93265625 4.50789063 -62.3828125 4.76953125 C-47.1774045 11.7934827 -31.90808518 13.40649953 -15.76171875 7.89453125 C-11.18224824 6.07728105 -4.35816109 0 0 0 Z " fill="#FDFDFD" transform="translate(255,283)"/>
<path d="M0 0 C3.81047737 3.72673062 7.39299612 7.59029709 10.875 11.625 C11.38546875 12.19734375 11.8959375 12.7696875 12.421875 13.359375 C13.8671875 15.0390625 13.8671875 15.0390625 16 18 C14.64625203 22.06124391 12.73741172 22.60315649 9.0625 24.6875 C7.98097656 25.31011719 6.89945312 25.93273437 5.78515625 26.57421875 C3 28 3 28 1 28 C0.18101378 24.42649959 -0.11811958 21.14340521 -0.09765625 17.48046875 C-0.09443359 16.45888672 -0.09121094 15.43730469 -0.08789062 14.38476562 C-0.07951172 13.32966797 -0.07113281 12.27457031 -0.0625 11.1875 C-0.05798828 10.11306641 -0.05347656 9.03863281 -0.04882812 7.93164062 C-0.03707729 5.28770317 -0.02064787 2.64388048 0 0 Z " fill="#F7F8F8" transform="translate(324,383)"/>
<path d="M0 0 C0.33 0 0.66 0 1 0 C0.67 8.25 0.34 16.5 0 25 C-3.54997152 23.58001139 -6.18729934 22.3878411 -9.3125 20.375 C-10.00988281 19.92898438 -10.70726563 19.48296875 -11.42578125 19.0234375 C-11.94527344 18.68570312 -12.46476562 18.34796875 -13 18 C-11.47850679 13.16219824 -8.70554574 9.9409405 -5.4375 6.1875 C-4.67663086 5.2912793 -4.67663086 5.2912793 -3.90039062 4.37695312 C-2.62762471 2.89403678 -1.31696847 1.44380332 0 0 Z " fill="#F3F5F6" transform="translate(118,382)"/>
<path d="M0 0 C0.8125 1.6875 0.8125 1.6875 1 4 C-1.25 6.5625 -1.25 6.5625 -4 9 C-4.598125 9.598125 -5.19625 10.19625 -5.8125 10.8125 C-6.204375 11.204375 -6.59625 11.59625 -7 12 C-7.66 11.67 -8.32 11.34 -9 11 C-7.68823998 9.35357683 -6.3755713 7.70787757 -5.0625 6.0625 C-4.33160156 5.14597656 -3.60070312 4.22945313 -2.84765625 3.28515625 C-1 1 -1 1 0 0 Z " fill="#404153" transform="translate(83,307)"/>
<path d="M0 0 C0.66 0 1.32 0 2 0 C2 2.31 2 4.62 2 7 C1.34 7 0.68 7 0 7 C-0.33 9.97 -0.66 12.94 -1 16 C-1.33 16 -1.66 16 -2 16 C-2.20674944 10.21101581 -1.59162079 5.57067277 0 0 Z " fill="#3B3939" transform="translate(118,224)"/>
<path d="M0 0 C2.31 0.33 4.62 0.66 7 1 C6.38125 1.721875 5.7625 2.44375 5.125 3.1875 C3.16333647 5.78381938 2.04684 7.94671666 1 11 C0.67 11 0.34 11 0 11 C0 7.37 0 3.74 0 0 Z " fill="#584334" transform="translate(270,152)"/>
<path d="M0 0 C7.92 0 15.84 0 24 0 C24 0.33 24 0.66 24 1 C16.08 1 8.16 1 0 1 C0 0.67 0 0.34 0 0 Z " fill="#333333" transform="translate(213,448)"/>
<path d="M0 0 C0.33 0 0.66 0 1 0 C1 7.92 1 15.84 1 24 C0.67 24 0.34 24 0 24 C0 16.08 0 8.16 0 0 Z " fill="#323232" transform="translate(448,213)"/>
<path d="M0 0 C0.33 0 0.66 0 1 0 C1 6.93 1 13.86 1 21 C0.67 21 0.34 21 0 21 C0 14.07 0 7.14 0 0 Z " fill="#323232" transform="translate(1,215)"/>
<path d="M0 0 C6.93 0 13.86 0 21 0 C21 0.33 21 0.66 21 1 C14.07 1 7.14 1 0 1 C0 0.67 0 0.34 0 0 Z " fill="#333333" transform="translate(215,1)"/>
<path d="M0 0 C4.875 4.625 4.875 4.625 6 8 C5.01 8.33 4.02 8.66 3 9 C2.01 6.03 1.02 3.06 0 0 Z " fill="#3C3F4F" transform="translate(377,334)"/>
<path d="M0 0 C0.66 0 1.32 0 2 0 C2 2.97 2 5.94 2 9 C1.34 8.67 0.68 8.34 0 8 C-1.27536232 2.55072464 -1.27536232 2.55072464 0 0 Z " fill="#2C2C2C" transform="translate(104,232)"/>
<path d="M0 0 C0.99 1.32 1.98 2.64 3 4 C2.3125 6.6875 2.3125 6.6875 1 9 C0.01 9.495 0.01 9.495 -1 10 C-0.67 6.7 -0.34 3.4 0 0 Z " fill="#555555" transform="translate(433,260)"/>
<path d="M0 0 C0.99 0 1.98 0 3 0 C1.50902342 3.7952131 -0.75700849 5.61042731 -4 8 C-2.66666667 5.33333333 -1.33333333 2.66666667 0 0 Z " fill="#DCB99E" transform="translate(256,212)"/>
<path d="M0 0 C0 3 0 3 -2 5.1875 C-2.66 5.785625 -3.32 6.38375 -4 7 C-4.66 6.67 -5.32 6.34 -6 6 C-4.02 4.02 -2.04 2.04 0 0 Z " fill="#333332" transform="translate(385,379)"/>
<path d="M0 0 C0.33 0 0.66 0 1 0 C1 3.3 1 6.6 1 10 C0.67 10 0.34 10 0 10 C0 6.7 0 3.4 0 0 Z " fill="#323232" transform="translate(2,239)"/>
<path d="M0 0 C3.3 0 6.6 0 10 0 C10 0.33 10 0.66 10 1 C6.7 1 3.4 1 0 1 C0 0.67 0 0.34 0 0 Z " fill="#333333" transform="translate(239,2)"/>
<path d="M0 0 C2.97 0 5.94 0 9 0 C9 0.33 9 0.66 9 1 C6.03 1 3.06 1 0 1 C0 0.67 0 0.34 0 0 Z " fill="#343434" transform="translate(241,447)"/>
<path d="M0 0 C2.97 0 5.94 0 9 0 C9 0.33 9 0.66 9 1 C6.03 1 3.06 1 0 1 C0 0.67 0 0.34 0 0 Z " fill="#333333" transform="translate(200,447)"/>
<path d="M0 0 C0.33 0 0.66 0 1 0 C1 2.97 1 5.94 1 9 C0.67 9 0.34 9 0 9 C0 6.03 0 3.06 0 0 Z " fill="#333333" transform="translate(447,241)"/>
<path d="M0 0 C0.33 0 0.66 0 1 0 C1 2.97 1 5.94 1 9 C0.67 9 0.34 9 0 9 C0 6.03 0 3.06 0 0 Z " fill="#323232" transform="translate(2,202)"/>
<path d="M0 0 C0.33 0 0.66 0 1 0 C1 2.97 1 5.94 1 9 C0.67 9 0.34 9 0 9 C0 6.03 0 3.06 0 0 Z " fill="#333333" transform="translate(447,200)"/>
<path d="M0 0 C2.97 0 5.94 0 9 0 C9 0.33 9 0.66 9 1 C6.03 1 3.06 1 0 1 C0 0.67 0 0.34 0 0 Z " fill="#333333" transform="translate(202,2)"/>
<path d="M0 0 C2.31 0 4.62 0 7 0 C7 0.33 7 0.66 7 1 C4.69 1 2.38 1 0 1 C0 0.67 0 0.34 0 0 Z " fill="#343434" transform="translate(251,446)"/>
<path d="M0 0 C2.31 0 4.62 0 7 0 C7 0.33 7 0.66 7 1 C4.69 1 2.38 1 0 1 C0 0.67 0 0.34 0 0 Z " fill="#343434" transform="translate(192,446)"/>
<path d="M0 0 C0.33 0 0.66 0 1 0 C1 2.31 1 4.62 1 7 C0.67 7 0.34 7 0 7 C0 4.69 0 2.38 0 0 Z " fill="#333333" transform="translate(446,251)"/>
<path d="M0 0 C0.33 0 0.66 0 1 0 C1 2.31 1 4.62 1 7 C0.67 7 0.34 7 0 7 C0 4.69 0 2.38 0 0 Z " fill="#333333" transform="translate(446,192)"/>
<path d="M0 0 C1.98 0 3.96 0 6 0 C6 0.33 6 0.66 6 1 C4.02 1 2.04 1 0 1 C0 0.67 0 0.34 0 0 Z " fill="#343434" transform="translate(186,445)"/>
<path d="M0 0 C0.33 0 0.66 0 1 0 C1 1.98 1 3.96 1 6 C0.67 6 0.34 6 0 6 C0 4.02 0 2.04 0 0 Z " fill="#323232" transform="translate(3,251)"/>
<path d="M0 0 C0.33 0 0.66 0 1 0 C1 1.98 1 3.96 1 6 C0.67 6 0.34 6 0 6 C0 4.02 0 2.04 0 0 Z " fill="#323232" transform="translate(3,193)"/>
<path d="M0 0 C0.33 0 0.66 0 1 0 C1 1.98 1 3.96 1 6 C0.67 6 0.34 6 0 6 C0 4.02 0 2.04 0 0 Z " fill="#333333" transform="translate(445,186)"/>
<path d="M0 0 C1.98 0 3.96 0 6 0 C6 0.33 6 0.66 6 1 C4.02 1 2.04 1 0 1 C0 0.67 0 0.34 0 0 Z " fill="#333333" transform="translate(251,3)"/>
<path d="M0 0 C1.98 0 3.96 0 6 0 C6 0.33 6 0.66 6 1 C4.02 1 2.04 1 0 1 C0 0.67 0 0.34 0 0 Z " fill="#333333" transform="translate(193,3)"/>
<path d="M0 0 C1.65 0 3.3 0 5 0 C5 0.33 5 0.66 5 1 C3.35 1 1.7 1 0 1 C0 0.67 0 0.34 0 0 Z " fill="#343434" transform="translate(259,445)"/>
<path d="M0 0 C1.65 0 3.3 0 5 0 C5 0.33 5 0.66 5 1 C3.35 1 1.7 1 0 1 C0 0.67 0 0.34 0 0 Z " fill="#343434" transform="translate(181,444)"/>
<path d="M0 0 C0.33 0 0.66 0 1 0 C1 1.65 1 3.3 1 5 C0.67 5 0.34 5 0 5 C0 3.35 0 1.7 0 0 Z " fill="#333333" transform="translate(445,259)"/>
<path d="M0 0 C0.33 0 0.66 0 1 0 C1 1.65 1 3.3 1 5 C0.67 5 0.34 5 0 5 C0 3.35 0 1.7 0 0 Z " fill="#333333" transform="translate(4,258)"/>
<path d="M0 0 C0.33 0 0.66 0 1 0 C1 1.65 1 3.3 1 5 C0.67 5 0.34 5 0 5 C0 3.35 0 1.7 0 0 Z " fill="#323232" transform="translate(4,187)"/>
<path d="M0 0 C0.33 0 0.66 0 1 0 C1 1.65 1 3.3 1 5 C0.67 5 0.34 5 0 5 C0 3.35 0 1.7 0 0 Z " fill="#333333" transform="translate(444,181)"/>
<path d="M0 0 C1.65 0 3.3 0 5 0 C5 0.33 5 0.66 5 1 C3.35 1 1.7 1 0 1 C0 0.67 0 0.34 0 0 Z " fill="#333333" transform="translate(258,4)"/>
<path d="M0 0 C1.65 0 3.3 0 5 0 C5 0.33 5 0.66 5 1 C3.35 1 1.7 1 0 1 C0 0.67 0 0.34 0 0 Z " fill="#333333" transform="translate(187,4)"/>
<path d="M0 0 C4 1 4 1 4 1 Z " fill="#343434" transform="translate(265,444)"/>
<path d="M0 0 C4 1 4 1 4 1 Z " fill="#333333" transform="translate(270,443)"/>
<path d="M0 0 C4 1 4 1 4 1 Z " fill="#333333" transform="translate(176,443)"/>
<path d="M0 0 C4 1 4 1 4 1 Z " fill="#323232" transform="translate(172,442)"/>
<path d="M0 0 C1 4 1 4 1 4 Z " fill="#333333" transform="translate(8,278)"/>
<path d="M0 0 C1 4 1 4 1 4 Z " fill="#333333" transform="translate(7,274)"/>
<path d="M0 0 C1 4 1 4 1 4 Z " fill="#323232" transform="translate(443,270)"/>
<path d="M0 0 C1 4 1 4 1 4 Z " fill="#333333" transform="translate(6,269)"/>
<path d="M0 0 C1 4 1 4 1 4 Z " fill="#343434" transform="translate(444,265)"/>
<path d="M0 0 C1 4 1 4 1 4 Z " fill="#333333" transform="translate(5,264)"/>
<path d="M0 0 C1 4 1 4 1 4 Z " fill="#323232" transform="translate(5,182)"/>
<path d="M0 0 C1 4 1 4 1 4 Z " fill="#323232" transform="translate(6,177)"/>
<path d="M0 0 C1 4 1 4 1 4 Z " fill="#333333" transform="translate(443,176)"/>
<path d="M0 0 C1 4 1 4 1 4 Z " fill="#323232" transform="translate(442,172)"/>
<path d="M0 0 C1 4 1 4 1 4 Z " fill="#323232" transform="translate(7,172)"/>
<path d="M0 0 C1 4 1 4 1 4 Z " fill="#333333" transform="translate(8,168)"/>
<path d="M0 0 C4 1 4 1 4 1 Z " fill="#333333" transform="translate(278,8)"/>
<path d="M0 0 C4 1 4 1 4 1 Z " fill="#343434" transform="translate(168,8)"/>
<path d="M0 0 C4 1 4 1 4 1 Z " fill="#333333" transform="translate(274,7)"/>
<path d="M0 0 C4 1 4 1 4 1 Z " fill="#343434" transform="translate(172,7)"/>
<path d="M0 0 C4 1 4 1 4 1 Z " fill="#333333" transform="translate(269,6)"/>
<path d="M0 0 C4 1 4 1 4 1 Z " fill="#333333" transform="translate(177,6)"/>
<path d="M0 0 C4 1 4 1 4 1 Z " fill="#333333" transform="translate(264,5)"/>
<path d="M0 0 C4 1 4 1 4 1 Z " fill="#333333" transform="translate(182,5)"/>
<path d="M0 0 C3 1 3 1 3 1 Z " fill="#333333" transform="translate(275,442)"/>
<path d="M0 0 C3 1 3 1 3 1 Z " fill="#333333" transform="translate(279,441)"/>
<path d="M0 0 C3 1 3 1 3 1 Z " fill="#323232" transform="translate(168,441)"/>
<path d="M0 0 C3 1 3 1 3 1 Z " fill="#323232" transform="translate(282,440)"/>
<path d="M0 0 C3 1 3 1 3 1 Z " fill="#323232" transform="translate(165,440)"/>
<path d="M0 0 C3 1 3 1 3 1 Z " fill="#323232" transform="translate(286,439)"/>
<path d="M0 0 C3 1 3 1 3 1 Z " fill="#333333" transform="translate(161,439)"/>
<path d="M0 0 C3 1 3 1 3 1 Z " fill="#333333" transform="translate(158,438)"/>
<path d="M0 0 C3 1 3 1 3 1 Z " fill="#333333" transform="translate(301,434)"/>
<path d="M0 0 C3 1 3 1 3 1 Z " fill="#333333" transform="translate(146,434)"/>
<path d="" fill="#333333" transform="translate(0,0)"/>
<path d="" fill="#333333" transform="translate(0,0)"/>
<path d="" fill="#323232" transform="translate(0,0)"/>
<path d="" fill="#323232" transform="translate(0,0)"/>
<path d="" fill="#323232" transform="translate(0,0)"/>
<path d="" fill="#323232" transform="translate(0,0)"/>
<path d="" fill="#333333" transform="translate(0,0)"/>
<path d="" fill="#323232" transform="translate(0,0)"/>
<path d="" fill="#333333" transform="translate(0,0)"/>
<path d="" fill="#333333" transform="translate(0,0)"/>
<path d="" fill="#323232" transform="translate(0,0)"/>
<path d="" fill="#323232" transform="translate(0,0)"/>
<path d="" fill="#323232" transform="translate(0,0)"/>
<path d="" fill="#323232" transform="translate(0,0)"/>
<path d="" fill="#333333" transform="translate(0,0)"/>
<path d="" fill="#333333" transform="translate(0,0)"/>
<path d="" fill="#333333" transform="translate(0,0)"/>
<path d="" fill="#333333" transform="translate(0,0)"/>
<path d="" fill="#333333" transform="translate(0,0)"/>
<path d="" fill="#333333" transform="translate(0,0)"/>
<path d="" fill="#333333" transform="translate(0,0)"/>
<path d="" fill="#333333" transform="translate(0,0)"/>
<path d="M0 0 C3 1 3 1 3 1 Z " fill="#333333" transform="translate(306,17)"/>
<path d="M0 0 C3 1 3 1 3 1 Z " fill="#333333" transform="translate(298,14)"/>
<path d="M0 0 C3 1 3 1 3 1 Z " fill="#333333" transform="translate(149,14)"/>
<path d="M0 0 C3 1 3 1 3 1 Z " fill="#333333" transform="translate(295,13)"/>
<path d="M0 0 C3 1 3 1 3 1 Z " fill="#333333" transform="translate(152,13)"/>
<path d="M0 0 C3 1 3 1 3 1 Z " fill="#333333" transform="translate(292,12)"/>
<path d="M0 0 C3 1 3 1 3 1 Z " fill="#333333" transform="translate(155,12)"/>
<path d="M0 0 C3 1 3 1 3 1 Z " fill="#333333" transform="translate(289,11)"/>
<path d="M0 0 C3 1 3 1 3 1 Z " fill="#333333" transform="translate(158,11)"/>
<path d="M0 0 C3 1 3 1 3 1 Z " fill="#333333" transform="translate(286,10)"/>
<path d="M0 0 C3 1 3 1 3 1 Z " fill="#333333" transform="translate(282,9)"/>
<path d="M0 0 C3 1 3 1 3 1 Z " fill="#333333" transform="translate(165,9)"/>
<path d="M0 0 C2 1 2 1 2 1 Z " fill="#333333" transform="translate(290,438)"/>
<path d="M0 0 C2 1 2 1 2 1 Z " fill="#333333" transform="translate(293,437)"/>
<path d="M0 0 C2 1 2 1 2 1 Z " fill="#333333" transform="translate(155,437)"/>
<path d="M0 0 C2 1 2 1 2 1 Z " fill="#333333" transform="translate(296,436)"/>
<path d="M0 0 C2 1 2 1 2 1 Z " fill="#333333" transform="translate(152,436)"/>
<path d="M0 0 C2 1 2 1 2 1 Z " fill="#333333" transform="translate(299,435)"/>
<path d="M0 0 C2 1 2 1 2 1 Z " fill="#333333" transform="translate(149,435)"/>
<path d="M0 0 C2 1 2 1 2 1 Z " fill="#333333" transform="translate(304,433)"/>
<path d="M0 0 C2 1 2 1 2 1 Z " fill="#333333" transform="translate(144,433)"/>
<path d="M0 0 C2 1 2 1 2 1 Z " fill="#333333" transform="translate(307,432)"/>
<path d="M0 0 C2 1 2 1 2 1 Z " fill="#333333" transform="translate(141,432)"/>
<path d="M0 0 C2 1 2 1 2 1 Z " fill="#343434" transform="translate(309,431)"/>
<path d="M0 0 C2 1 2 1 2 1 Z " fill="#333333" transform="translate(139,431)"/>
<path d="M0 0 C2 1 2 1 2 1 Z " fill="#333333" transform="translate(137,430)"/>
<path d="M0 0 C2 1 2 1 2 1 Z " fill="#333333" transform="translate(314,429)"/>
<path d="M0 0 C2 1 2 1 2 1 Z " fill="#333333" transform="translate(134,429)"/>
<path d="M0 0 C2 1 2 1 2 1 Z " fill="#333333" transform="translate(316,428)"/>
<path d="M0 0 C2 1 2 1 2 1 Z " fill="#333333" transform="translate(132,428)"/>
<path d="M0 0 C2 1 2 1 2 1 Z " fill="#343434" transform="translate(318,427)"/>
<path d="M0 0 C2 1 2 1 2 1 Z " fill="#333333" transform="translate(130,427)"/>
<path d="M0 0 C2 1 2 1 2 1 Z " fill="#323433" transform="translate(320,426)"/>
<path d="M0 0 C2 1 2 1 2 1 Z " fill="#333333" transform="translate(128,426)"/>
<path d="M0 0 C2 1 2 1 2 1 Z " fill="#323433" transform="translate(322,425)"/>
<path d="M0 0 C2 1 2 1 2 1 Z " fill="#333333" transform="translate(126,425)"/>
<path d="M0 0 C2 1 2 1 2 1 Z " fill="#333333" transform="translate(324,424)"/>
<path d="M0 0 C2 1 2 1 2 1 Z " fill="#333333" transform="translate(124,424)"/>
<path d="M0 0 C2 1 2 1 2 1 Z " fill="#323433" transform="translate(326,423)"/>
<path d="M0 0 C2 1 2 1 2 1 Z " fill="#333333" transform="translate(122,423)"/>
<path d="M0 0 C2 1 2 1 2 1 Z " fill="#323433" transform="translate(328,422)"/>
<path d="M0 0 C2 1 2 1 2 1 Z " fill="#333333" transform="translate(120,422)"/>
<path d="M0 0 C2 1 2 1 2 1 Z " fill="#323433" transform="translate(330,421)"/>
<path d="M0 0 C2 1 2 1 2 1 Z " fill="#333333" transform="translate(118,421)"/>
<path d="M0 0 C2 1 2 1 2 1 Z " fill="#333333" transform="translate(332,420)"/>
<path d="M0 0 C2 1 2 1 2 1 Z " fill="#333333" transform="translate(116,420)"/>
<path d="M0 0 C2 1 2 1 2 1 Z " fill="#333333" transform="translate(113,418)"/>
<path d="M0 0 C2 1 2 1 2 1 Z " fill="#333333" transform="translate(337,417)"/>
<path d="M0 0 C2 1 2 1 2 1 Z " fill="#333333" transform="translate(111,417)"/>
<path d="M0 0 C2 1 2 1 2 1 Z " fill="#333333" transform="translate(342,414)"/>
<path d="M0 0 C2 1 2 1 2 1 Z " fill="#343434" transform="translate(106,414)"/>
<path d="M0 0 C2 1 2 1 2 1 Z " fill="#353331" transform="translate(345,412)"/>
<path d="M0 0 C2 1 2 1 2 1 Z " fill="#343434" transform="translate(103,412)"/>
<path d="M0 0 C2 1 2 1 2 1 Z " fill="#353331" transform="translate(348,410)"/>
<path d="M0 0 C2 1 2 1 2 1 Z " fill="#343434" transform="translate(100,410)"/>
<path d="M0 0 C2 1 2 1 2 1 Z " fill="#343332" transform="translate(351,408)"/>
<path d="M0 0 C2 1 2 1 2 1 Z " fill="#333333" transform="translate(97,408)"/>
<path d="M0 0 C2 1 2 1 2 1 Z " fill="#333333" transform="translate(93,405)"/>
<path d="M0 0 C2 1 2 1 2 1 Z " fill="#333333" transform="translate(358,403)"/>
<path d="M0 0 C2 1 2 1 2 1 Z " fill="#343235" transform="translate(363,399)"/>
<path d="M0 0 C2 1 2 1 2 1 Z " fill="#333333" transform="translate(85,399)"/>
<path d="M0 0 C2 1 2 1 2 1 Z " fill="#333333" transform="translate(79,394)"/>
<path d="" fill="#333333" transform="translate(0,0)"/>
<path d="" fill="#333333" transform="translate(0,0)"/>
<path d="" fill="#333333" transform="translate(0,0)"/>
<path d="" fill="#333333" transform="translate(0,0)"/>
<path d="" fill="#333333" transform="translate(0,0)"/>
<path d="" fill="#333333" transform="translate(0,0)"/>
<path d="" fill="#333333" transform="translate(0,0)"/>
<path d="" fill="#333333" transform="translate(0,0)"/>
<path d="" fill="#333333" transform="translate(0,0)"/>
<path d="" fill="#343434" transform="translate(0,0)"/>
<path d="" fill="#333333" transform="translate(0,0)"/>
<path d="" fill="#343434" transform="translate(0,0)"/>
<path d="" fill="#333333" transform="translate(0,0)"/>
<path d="" fill="#333333" transform="translate(0,0)"/>
<path d="" fill="#333333" transform="translate(0,0)"/>
<path d="" fill="#333333" transform="translate(0,0)"/>
<path d="" fill="#333333" transform="translate(0,0)"/>
<path d="" fill="#323232" transform="translate(0,0)"/>
<path d="" fill="#333333" transform="translate(0,0)"/>
<path d="" fill="#333333" transform="translate(0,0)"/>
<path d="" fill="#323232" transform="translate(0,0)"/>
<path d="" fill="#333333" transform="translate(0,0)"/>
<path d="" fill="#323232" transform="translate(0,0)"/>
<path d="" fill="#333333" transform="translate(0,0)"/>
<path d="" fill="#333333" transform="translate(0,0)"/>
<path d="" fill="#333333" transform="translate(0,0)"/>
<path d="" fill="#343434" transform="translate(0,0)"/>
<path d="" fill="#333333" transform="translate(0,0)"/>
<path d="" fill="#343434" transform="translate(0,0)"/>
<path d="" fill="#333333" transform="translate(0,0)"/>
<path d="" fill="#333333" transform="translate(0,0)"/>
<path d="" fill="#333333" transform="translate(0,0)"/>
<path d="" fill="#333333" transform="translate(0,0)"/>
<path d="" fill="#343434" transform="translate(0,0)"/>
<path d="" fill="#333333" transform="translate(0,0)"/>
<path d="" fill="#343434" transform="translate(0,0)"/>
<path d="" fill="#333333" transform="translate(0,0)"/>
<path d="" fill="#333333" transform="translate(0,0)"/>
<path d="" fill="#343434" transform="translate(0,0)"/>
<path d="" fill="#333333" transform="translate(0,0)"/>
<path d="" fill="#333333" transform="translate(0,0)"/>
<path d="" fill="#333333" transform="translate(0,0)"/>
<path d="" fill="#333333" transform="translate(0,0)"/>
<path d="" fill="#323232" transform="translate(0,0)"/>
<path d="" fill="#333333" transform="translate(0,0)"/>
<path d="" fill="#333333" transform="translate(0,0)"/>
<path d="" fill="#333333" transform="translate(0,0)"/>
<path d="" fill="#333333" transform="translate(0,0)"/>
<path d="" fill="#333333" transform="translate(0,0)"/>
<path d="" fill="#333333" transform="translate(0,0)"/>
<path d="" fill="#333333" transform="translate(0,0)"/>
<path d="" fill="#333333" transform="translate(0,0)"/>
<path d="" fill="#333333" transform="translate(0,0)"/>
<path d="" fill="#333333" transform="translate(0,0)"/>
<path d="" fill="#333333" transform="translate(0,0)"/>
<path d="" fill="#333333" transform="translate(0,0)"/>
<path d="" fill="#333333" transform="translate(0,0)"/>
<path d="" fill="#333333" transform="translate(0,0)"/>
<path d="" fill="#333333" transform="translate(0,0)"/>
<path d="" fill="#333333" transform="translate(0,0)"/>
<path d="" fill="#333333" transform="translate(0,0)"/>
<path d="" fill="#343434" transform="translate(0,0)"/>
<path d="" fill="#343434" transform="translate(0,0)"/>
<path d="" fill="#333333" transform="translate(0,0)"/>
<path d="" fill="#333333" transform="translate(0,0)"/>
<path d="" fill="#333333" transform="translate(0,0)"/>
<path d="" fill="#333333" transform="translate(0,0)"/>
<path d="" fill="#333333" transform="translate(0,0)"/>
<path d="" fill="#333333" transform="translate(0,0)"/>
<path d="" fill="#333333" transform="translate(0,0)"/>
<path d="" fill="#333333" transform="translate(0,0)"/>
<path d="" fill="#333333" transform="translate(0,0)"/>
<path d="" fill="#333333" transform="translate(0,0)"/>
<path d="" fill="#333333" transform="translate(0,0)"/>
<path d="" fill="#333333" transform="translate(0,0)"/>
<path d="" fill="#333333" transform="translate(0,0)"/>
<path d="" fill="#333333" transform="translate(0,0)"/>
<path d="" fill="#333333" transform="translate(0,0)"/>
<path d="" fill="#333333" transform="translate(0,0)"/>
<path d="" fill="#333333" transform="translate(0,0)"/>
<path d="" fill="#333333" transform="translate(0,0)"/>
<path d="" fill="#333333" transform="translate(0,0)"/>
<path d="" fill="#333333" transform="translate(0,0)"/>
<path d="" fill="#333333" transform="translate(0,0)"/>
<path d="" fill="#333333" transform="translate(0,0)"/>
<path d="" fill="#333333" transform="translate(0,0)"/>
<path d="" fill="#333333" transform="translate(0,0)"/>
<path d="" fill="#333333" transform="translate(0,0)"/>
<path d="" fill="#333333" transform="translate(0,0)"/>
<path d="" fill="#333333" transform="translate(0,0)"/>
<path d="" fill="#333333" transform="translate(0,0)"/>
<path d="" fill="#333333" transform="translate(0,0)"/>
<path d="" fill="#333333" transform="translate(0,0)"/>
<path d="" fill="#333333" transform="translate(0,0)"/>
<path d="" fill="#333333" transform="translate(0,0)"/>
<path d="" fill="#333333" transform="translate(0,0)"/>
<path d="M0 0 C2 1 2 1 2 1 Z " fill="#333333" transform="translate(78,56)"/>
<path d="M0 0 C2 1 2 1 2 1 Z " fill="#333333" transform="translate(369,55)"/>
<path d="M0 0 C2 1 2 1 2 1 Z " fill="#333333" transform="translate(84,51)"/>
<path d="M0 0 C2 1 2 1 2 1 Z " fill="#333333" transform="translate(363,50)"/>
<path d="M0 0 C2 1 2 1 2 1 Z " fill="#333333" transform="translate(359,47)"/>
<path d="M0 0 C2 1 2 1 2 1 Z " fill="#333333" transform="translate(89,47)"/>
<path d="M0 0 C2 1 2 1 2 1 Z " fill="#333333" transform="translate(355,44)"/>
<path d="M0 0 C2 1 2 1 2 1 Z " fill="#333333" transform="translate(93,44)"/>
<path d="M0 0 C2 1 2 1 2 1 Z " fill="#333333" transform="translate(351,41)"/>
<path d="M0 0 C2 1 2 1 2 1 Z " fill="#333333" transform="translate(348,39)"/>
<path d="M0 0 C2 1 2 1 2 1 Z " fill="#333333" transform="translate(100,39)"/>
<path d="M0 0 C2 1 2 1 2 1 Z " fill="#333333" transform="translate(345,37)"/>
<path d="M0 0 C2 1 2 1 2 1 Z " fill="#333333" transform="translate(103,37)"/>
<path d="M0 0 C2 1 2 1 2 1 Z " fill="#333333" transform="translate(342,35)"/>
<path d="M0 0 C2 1 2 1 2 1 Z " fill="#333333" transform="translate(340,34)"/>
<path d="M0 0 C2 1 2 1 2 1 Z " fill="#333333" transform="translate(108,34)"/>
<path d="M0 0 C2 1 2 1 2 1 Z " fill="#333333" transform="translate(337,32)"/>
<path d="M0 0 C2 1 2 1 2 1 Z " fill="#333333" transform="translate(335,31)"/>
<path d="M0 0 C2 1 2 1 2 1 Z " fill="#333333" transform="translate(113,31)"/>
<path d="M0 0 C2 1 2 1 2 1 Z " fill="#333333" transform="translate(330,28)"/>
<path d="M0 0 C2 1 2 1 2 1 Z " fill="#333333" transform="translate(118,28)"/>
<path d="M0 0 C2 1 2 1 2 1 Z " fill="#333333" transform="translate(328,27)"/>
<path d="M0 0 C2 1 2 1 2 1 Z " fill="#333333" transform="translate(120,27)"/>
<path d="M0 0 C2 1 2 1 2 1 Z " fill="#333333" transform="translate(326,26)"/>
<path d="M0 0 C2 1 2 1 2 1 Z " fill="#333333" transform="translate(122,26)"/>
<path d="M0 0 C2 1 2 1 2 1 Z " fill="#333333" transform="translate(324,25)"/>
<path d="M0 0 C2 1 2 1 2 1 Z " fill="#333333" transform="translate(124,25)"/>
<path d="M0 0 C2 1 2 1 2 1 Z " fill="#333333" transform="translate(322,24)"/>
<path d="M0 0 C2 1 2 1 2 1 Z " fill="#333333" transform="translate(126,24)"/>
<path d="M0 0 C2 1 2 1 2 1 Z " fill="#333333" transform="translate(320,23)"/>
<path d="M0 0 C2 1 2 1 2 1 Z " fill="#333333" transform="translate(128,23)"/>
<path d="M0 0 C2 1 2 1 2 1 Z " fill="#333333" transform="translate(318,22)"/>
<path d="M0 0 C2 1 2 1 2 1 Z " fill="#333333" transform="translate(130,22)"/>
<path d="M0 0 C2 1 2 1 2 1 Z " fill="#333333" transform="translate(316,21)"/>
<path d="M0 0 C2 1 2 1 2 1 Z " fill="#333333" transform="translate(132,21)"/>
<path d="M0 0 C2 1 2 1 2 1 Z " fill="#333333" transform="translate(314,20)"/>
<path d="M0 0 C2 1 2 1 2 1 Z " fill="#333333" transform="translate(311,19)"/>
<path d="M0 0 C2 1 2 1 2 1 Z " fill="#333333" transform="translate(137,19)"/>
<path d="M0 0 C2 1 2 1 2 1 Z " fill="#333333" transform="translate(309,18)"/>
<path d="M0 0 C2 1 2 1 2 1 Z " fill="#333333" transform="translate(139,18)"/>
<path d="M0 0 C2 1 2 1 2 1 Z " fill="#333333" transform="translate(142,17)"/>
<path d="M0 0 C2 1 2 1 2 1 Z " fill="#333333" transform="translate(304,16)"/>
<path d="M0 0 C2 1 2 1 2 1 Z " fill="#333333" transform="translate(144,16)"/>
<path d="M0 0 C2 1 2 1 2 1 Z " fill="#333333" transform="translate(301,15)"/>
<path d="M0 0 C2 1 2 1 2 1 Z " fill="#333333" transform="translate(147,15)"/>
<path d="M0 0 C2 1 2 1 2 1 Z " fill="#333333" transform="translate(162,10)"/>
<path d="" fill="#333333" transform="translate(0,0)"/>
<path d="" fill="#323433" transform="translate(0,0)"/>
<path d="" fill="#333333" transform="translate(0,0)"/>
<path d="" fill="#333333" transform="translate(0,0)"/>
<path d="" fill="#333333" transform="translate(0,0)"/>
<path d="" fill="#333333" transform="translate(0,0)"/>
<path d="" fill="#333335" transform="translate(0,0)"/>
<path d="" fill="#343434" transform="translate(0,0)"/>
<path d="" fill="#353331" transform="translate(0,0)"/>
<path d="" fill="#343434" transform="translate(0,0)"/>
<path d="" fill="#33342F" transform="translate(0,0)"/>
<path d="" fill="#343434" transform="translate(0,0)"/>
<path d="" fill="#353331" transform="translate(0,0)"/>
<path d="" fill="#333333" transform="translate(0,0)"/>
<path d="" fill="#333333" transform="translate(0,0)"/>
<path d="" fill="#333333" transform="translate(0,0)"/>
<path d="" fill="#333333" transform="translate(0,0)"/>
<path d="" fill="#333333" transform="translate(0,0)"/>
<path d="" fill="#333333" transform="translate(0,0)"/>
<path d="" fill="#333333" transform="translate(0,0)"/>
<path d="" fill="#333333" transform="translate(0,0)"/>
<path d="" fill="#333333" transform="translate(0,0)"/>
<path d="" fill="#333333" transform="translate(0,0)"/>
<path d="" fill="#333333" transform="translate(0,0)"/>
<path d="" fill="#333335" transform="translate(0,0)"/>
<path d="" fill="#333333" transform="translate(0,0)"/>
<path d="" fill="#333333" transform="translate(0,0)"/>
<path d="" fill="#333333" transform="translate(0,0)"/>
<path d="" fill="#353235" transform="translate(0,0)"/>
<path d="" fill="#333333" transform="translate(0,0)"/>
<path d="" fill="#353235" transform="translate(0,0)"/>
<path d="" fill="#333333" transform="translate(0,0)"/>
<path d="" fill="#353235" transform="translate(0,0)"/>
<path d="" fill="#333333" transform="translate(0,0)"/>
<path d="" fill="#333333" transform="translate(0,0)"/>
<path d="" fill="#333333" transform="translate(0,0)"/>
<path d="" fill="#333333" transform="translate(0,0)"/>
<path d="" fill="#333333" transform="translate(0,0)"/>
<path d="" fill="#333333" transform="translate(0,0)"/>
<path d="" fill="#333333" transform="translate(0,0)"/>
<path d="" fill="#333333" transform="translate(0,0)"/>
<path d="" fill="#333333" transform="translate(0,0)"/>
<path d="" fill="#333333" transform="translate(0,0)"/>
<path d="" fill="#333333" transform="translate(0,0)"/>
<path d="" fill="#333333" transform="translate(0,0)"/>
<path d="" fill="#333333" transform="translate(0,0)"/>
<path d="" fill="#333333" transform="translate(0,0)"/>
<path d="" fill="#333333" transform="translate(0,0)"/>
<path d="" fill="#333333" transform="translate(0,0)"/>
<path d="" fill="#333333" transform="translate(0,0)"/>
<path d="" fill="#333333" transform="translate(0,0)"/>
<path d="" fill="#333333" transform="translate(0,0)"/>
<path d="" fill="#333333" transform="translate(0,0)"/>
<path d="" fill="#333333" transform="translate(0,0)"/>
<path d="" fill="#333333" transform="translate(0,0)"/>
<path d="" fill="#333333" transform="translate(0,0)"/>
<path d="" fill="#333333" transform="translate(0,0)"/>
<path d="" fill="#333333" transform="translate(0,0)"/>
<path d="" fill="#333333" transform="translate(0,0)"/>
<path d="" fill="#333333" transform="translate(0,0)"/>
<path d="" fill="#333333" transform="translate(0,0)"/>
<path d="" fill="#343434" transform="translate(0,0)"/>
<path d="" fill="#333333" transform="translate(0,0)"/>
<path d="" fill="#343434" transform="translate(0,0)"/>
<path d="" fill="#333335" transform="translate(0,0)"/>
<path d="" fill="#343434" transform="translate(0,0)"/>
<path d="" fill="#333335" transform="translate(0,0)"/>
<path d="" fill="#343434" transform="translate(0,0)"/>
<path d="" fill="#333335" transform="translate(0,0)"/>
<path d="" fill="#343434" transform="translate(0,0)"/>
<path d="" fill="#333335" transform="translate(0,0)"/>
<path d="" fill="#343434" transform="translate(0,0)"/>
<path d="" fill="#343436" transform="translate(0,0)"/>
<path d="" fill="#343434" transform="translate(0,0)"/>
<path d="" fill="#343436" transform="translate(0,0)"/>
<path d="" fill="#343434" transform="translate(0,0)"/>
<path d="" fill="#343434" transform="translate(0,0)"/>
<path d="" fill="#343434" transform="translate(0,0)"/>
<path d="" fill="#333333" transform="translate(0,0)"/>
<path d="" fill="#343434" transform="translate(0,0)"/>
<path d="" fill="#333333" transform="translate(0,0)"/>
<path d="" fill="#343434" transform="translate(0,0)"/>
<path d="" fill="#333333" transform="translate(0,0)"/>
<path d="" fill="#343434" transform="translate(0,0)"/>
<path d="" fill="#333333" transform="translate(0,0)"/>
<path d="" fill="#323232" transform="translate(0,0)"/>
<path d="" fill="#333333" transform="translate(0,0)"/>
<path d="" fill="#323232" transform="translate(0,0)"/>
<path d="" fill="#333333" transform="translate(0,0)"/>
<path d="" fill="#333333" transform="translate(0,0)"/>
<path d="" fill="#333333" transform="translate(0,0)"/>
<path d="" fill="#343434" transform="translate(0,0)"/>
<path d="" fill="#333333" transform="translate(0,0)"/>
<path d="" fill="#343434" transform="translate(0,0)"/>
<path d="" fill="#333333" transform="translate(0,0)"/>
<path d="" fill="#333333" transform="translate(0,0)"/>
<path d="" fill="#333333" transform="translate(0,0)"/>
<path d="" fill="#333333" transform="translate(0,0)"/>
<path d="" fill="#333333" transform="translate(0,0)"/>
<path d="" fill="#343434" transform="translate(0,0)"/>
<path d="" fill="#333333" transform="translate(0,0)"/>
<path d="" fill="#343434" transform="translate(0,0)"/>
<path d="" fill="#333333" transform="translate(0,0)"/>
<path d="" fill="#343434" transform="translate(0,0)"/>
<path d="" fill="#333333" transform="translate(0,0)"/>
<path d="" fill="#333333" transform="translate(0,0)"/>
<path d="" fill="#333333" transform="translate(0,0)"/>
<path d="" fill="#333333" transform="translate(0,0)"/>
<path d="" fill="#333333" transform="translate(0,0)"/>
<path d="" fill="#323232" transform="translate(0,0)"/>
<path d="" fill="#323232" transform="translate(0,0)"/>
<path d="" fill="#333333" transform="translate(0,0)"/>
<path d="" fill="#333333" transform="translate(0,0)"/>
<path d="" fill="#333333" transform="translate(0,0)"/>
<path d="" fill="#333333" transform="translate(0,0)"/>
<path d="" fill="#333333" transform="translate(0,0)"/>
<path d="" fill="#333333" transform="translate(0,0)"/>
<path d="" fill="#333333" transform="translate(0,0)"/>
<path d="" fill="#333333" transform="translate(0,0)"/>
<path d="" fill="#333333" transform="translate(0,0)"/>
<path d="" fill="#333333" transform="translate(0,0)"/>
<path d="" fill="#333333" transform="translate(0,0)"/>
<path d="" fill="#333333" transform="translate(0,0)"/>
<path d="" fill="#333333" transform="translate(0,0)"/>
<path d="" fill="#333333" transform="translate(0,0)"/>
<path d="" fill="#333333" transform="translate(0,0)"/>
<path d="" fill="#333333" transform="translate(0,0)"/>
<path d="" fill="#333333" transform="translate(0,0)"/>
<path d="" fill="#333333" transform="translate(0,0)"/>
<path d="" fill="#333333" transform="translate(0,0)"/>
<path d="" fill="#333333" transform="translate(0,0)"/>
<path d="" fill="#333333" transform="translate(0,0)"/>
<path d="" fill="#333333" transform="translate(0,0)"/>
<path d="" fill="#333333" transform="translate(0,0)"/>
<path d="" fill="#333333" transform="translate(0,0)"/>
<path d="" fill="#333333" transform="translate(0,0)"/>
<path d="" fill="#333333" transform="translate(0,0)"/>
<path d="" fill="#333333" transform="translate(0,0)"/>
<path d="" fill="#333333" transform="translate(0,0)"/>
<path d="" fill="#333333" transform="translate(0,0)"/>
<path d="" fill="#333333" transform="translate(0,0)"/>
<path d="" fill="#333333" transform="translate(0,0)"/>
<path d="" fill="#333333" transform="translate(0,0)"/>
<path d="" fill="#333333" transform="translate(0,0)"/>
<path d="" fill="#333333" transform="translate(0,0)"/>
<path d="" fill="#333333" transform="translate(0,0)"/>
<path d="" fill="#333333" transform="translate(0,0)"/>
<path d="" fill="#333333" transform="translate(0,0)"/>
<path d="" fill="#333333" transform="translate(0,0)"/>
<path d="" fill="#333333" transform="translate(0,0)"/>
<path d="" fill="#333333" transform="translate(0,0)"/>
<path d="" fill="#333333" transform="translate(0,0)"/>
<path d="" fill="#333333" transform="translate(0,0)"/>
<path d="" fill="#333333" transform="translate(0,0)"/>
<path d="" fill="#333333" transform="translate(0,0)"/>
<path d="" fill="#333333" transform="translate(0,0)"/>
<path d="" fill="#333333" transform="translate(0,0)"/>
<path d="" fill="#333333" transform="translate(0,0)"/>
<path d="" fill="#333333" transform="translate(0,0)"/>
<path d="" fill="#333333" transform="translate(0,0)"/>
<path d="" fill="#333333" transform="translate(0,0)"/>
<path d="" fill="#333333" transform="translate(0,0)"/>
<path d="" fill="#333333" transform="translate(0,0)"/>
<path d="" fill="#333333" transform="translate(0,0)"/>
<path d="" fill="#333333" transform="translate(0,0)"/>
<path d="" fill="#333333" transform="translate(0,0)"/>
<path d="" fill="#333333" transform="translate(0,0)"/>
<path d="" fill="#333333" transform="translate(0,0)"/>
<path d="" fill="#333333" transform="translate(0,0)"/>
<path d="" fill="#333333" transform="translate(0,0)"/>
<path d="" fill="#333333" transform="translate(0,0)"/>
<path d="" fill="#333333" transform="translate(0,0)"/>
<path d="" fill="#333333" transform="translate(0,0)"/>
<path d="" fill="#333333" transform="translate(0,0)"/>
<path d="" fill="#333333" transform="translate(0,0)"/>
<path d="" fill="#333333" transform="translate(0,0)"/>
<path d="" fill="#333333" transform="translate(0,0)"/>
<path d="" fill="#333333" transform="translate(0,0)"/>
<path d="" fill="#333333" transform="translate(0,0)"/>
<path d="" fill="#333333" transform="translate(0,0)"/>
<path d="" fill="#333333" transform="translate(0,0)"/>
<path d="" fill="#333333" transform="translate(0,0)"/>
<path d="" fill="#333333" transform="translate(0,0)"/>
<path d="" fill="#333333" transform="translate(0,0)"/>
<path d="" fill="#333333" transform="translate(0,0)"/>
<path d="" fill="#333333" transform="translate(0,0)"/>
<path d="" fill="#333333" transform="translate(0,0)"/>
<path d="" fill="#333333" transform="translate(0,0)"/>
<path d="" fill="#333333" transform="translate(0,0)"/>
<path d="" fill="#333333" transform="translate(0,0)"/>
<path d="" fill="#333333" transform="translate(0,0)"/>
<path d="" fill="#333333" transform="translate(0,0)"/>
<path d="" fill="#333333" transform="translate(0,0)"/>
<path d="" fill="#333333" transform="translate(0,0)"/>
<path d="" fill="#333333" transform="translate(0,0)"/>
<path d="" fill="#333333" transform="translate(0,0)"/>
<path d="" fill="#333333" transform="translate(0,0)"/>
<path d="" fill="#333333" transform="translate(0,0)"/>
<path d="" fill="#333333" transform="translate(0,0)"/>
<path d="" fill="#333333" transform="translate(0,0)"/>
<path d="" fill="#333333" transform="translate(0,0)"/>
<path d="" fill="#333333" transform="translate(0,0)"/>
<path d="" fill="#333333" transform="translate(0,0)"/>
<path d="" fill="#333333" transform="translate(0,0)"/>
<path d="" fill="#333333" transform="translate(0,0)"/>
<path d="" fill="#333333" transform="translate(0,0)"/>
<path d="" fill="#333333" transform="translate(0,0)"/>
<path d="" fill="#333333" transform="translate(0,0)"/>
<path d="" fill="#333333" transform="translate(0,0)"/>
<path d="" fill="#333333" transform="translate(0,0)"/>
<path d="" fill="#333333" transform="translate(0,0)"/>
<path d="" fill="#333333" transform="translate(0,0)"/>
<path d="" fill="#333333" transform="translate(0,0)"/>
<path d="" fill="#333333" transform="translate(0,0)"/>
<path d="" fill="#333333" transform="translate(0,0)"/>
<path d="" fill="#333333" transform="translate(0,0)"/>
<path d="" fill="#333333" transform="translate(0,0)"/>
<path d="" fill="#333333" transform="translate(0,0)"/>
<path d="" fill="#333333" transform="translate(0,0)"/>
<path d="" fill="#333333" transform="translate(0,0)"/>
<path d="" fill="#333333" transform="translate(0,0)"/>
<path d="" fill="#333333" transform="translate(0,0)"/>
<path d="" fill="#333333" transform="translate(0,0)"/>
<path d="" fill="#333333" transform="translate(0,0)"/>
<path d="" fill="#333333" transform="translate(0,0)"/>
<path d="" fill="#333333" transform="translate(0,0)"/>
<path d="" fill="#333333" transform="translate(0,0)"/>
<path d="" fill="#333333" transform="translate(0,0)"/>
<path d="" fill="#333333" transform="translate(0,0)"/>
<path d="" fill="#333333" transform="translate(0,0)"/>
<path d="" fill="#333333" transform="translate(0,0)"/>
</svg>
