<?xml version="1.0" standalone="no"?>
<!DOCTYPE svg PUBLIC "-//W3C//DTD SVG 20010904//EN"
 "http://www.w3.org/TR/2001/REC-SVG-20010904/DTD/svg10.dtd">
<svg version="1.0" xmlns="http://www.w3.org/2000/svg"
 width="217" height="237" viewBox="0 0 450.000000 450.000000"
 preserveAspectRatio="xMidYMid meet">

<g transform="translate(0.000000,450.000000) scale(0.100000,-0.100000)"
fill="#000000" stroke="none">
<path d="M2011 4449 c-398 -45 -782 -200 -1116 -452 -103 -78 -314 -289 -392
-392 -209 -277 -354 -592 -417 -907 -70 -345 -58 -710 35 -1042 219 -790 873
-1404 1674 -1570 330 -68 689 -60 1013 23 292 75 596 229 837 424 113 91 288
274 376 392 275 371 420 782 436 1240 15 434 -83 831 -291 1188 -337 577 -892
963 -1551 1078 -139 24 -465 34 -604 18z m548 -105 c363 -53 717 -207 1015
-441 102 -80 280 -264 363 -374 286 -382 426 -800 427 -1274 1 -458 -126 -861
-388 -1232 -28 -40 -54 -73 -58 -73 -4 0 -13 10 -19 23 -7 12 -72 113 -145
224 -107 161 -156 225 -240 313 -59 61 -138 133 -175 161 -61 45 -69 55 -69
84 0 18 7 46 15 61 21 40 18 121 -5 172 -24 52 -104 139 -175 187 -64 45 -95
106 -102 205 -5 79 3 95 41 80 l27 -10 -24 33 c-43 56 -75 131 -92 213 -14 67
-15 115 -10 314 8 259 1 344 -41 472 -55 169 -169 274 -330 304 -28 5 -57 24
-104 66 -88 81 -218 145 -326 160 -225 32 -456 -91 -671 -357 -74 -90 -111
-158 -160 -295 -77 -212 -123 -474 -123 -699 l0 -128 -41 -28 c-126 -88 -178
-247 -120 -370 l24 -50 7 46 c10 58 32 101 66 128 40 32 57 28 51 -11 -3 -18
-9 -63 -13 -100 l-6 -67 -76 -63 -77 -63 52 -5 52 -5 -47 -40 c-138 -114 -222
-270 -222 -412 0 -48 -5 -59 -52 -121 -29 -37 -95 -134 -147 -215 -52 -81 -97
-147 -101 -147 -14 0 -129 186 -184 297 -295 592 -297 1284 -5 1872 110 223
235 398 403 567 362 361 838 578 1361 618 90 7 338 -4 444 -20z m-226 -833
c100 -26 151 -53 206 -110 88 -90 145 -245 159 -431 l8 -95 17 32 c10 18 28
40 42 49 20 13 28 14 52 2 15 -7 33 -24 41 -38 18 -34 10 -125 -16 -183 -23
-52 -89 -127 -138 -158 -25 -15 -34 -28 -34 -48 0 -65 -107 -213 -196 -272
l-36 -24 5 -95 c5 -110 30 -192 88 -293 49 -86 54 -108 35 -144 -20 -40 -40
-439 -31 -638 12 -286 55 -607 106 -808 11 -44 18 -81 16 -83 -9 -9 -211 -34
-326 -40 -123 -6 -300 5 -427 27 l-61 11 -6 256 c-6 269 -21 428 -63 674 l-25
147 40 53 c75 100 121 243 121 376 0 85 -26 221 -57 298 -24 61 -25 74 -20
163 l6 98 -56 54 c-89 87 -125 182 -142 377 -16 179 7 380 60 522 61 163 197
296 336 329 70 16 215 12 296 -8z m-1146 -2953 c-4 -67 -9 -123 -12 -126 -5
-5 -125 70 -125 78 0 8 130 170 137 170 3 0 3 -55 0 -122z m2136 21 c43 -55
75 -104 72 -109 -9 -14 -144 -89 -149 -82 -8 15 -18 292 -10 291 5 0 44 -45
87 -100z"/>
</g>
</svg>
