<?xml version="1.0" encoding="UTF-8"?>
<svg version="1.1" xmlns="http://www.w3.org/2000/svg" viewBox="0 0 1000 1000" width="1000" height="1000">
<path d="M0 0 C0.70687958 0.00045822 1.41375916 0.00091644 2.14205933 0.00138855 C3.63997065 0.00440882 5.13787889 0.01228846 6.63574219 0.0246582 C8.90050726 0.04273583 11.16485829 0.04516891 13.4296875 0.04492188 C32.5259123 0.09108115 32.5259123 0.09108115 36.8046875 2.23046875 C36.8046875 4.41796875 36.8046875 4.41796875 35.8046875 7.23046875 C33.8402847 8.55590097 31.85447182 9.61151504 29.71484375 10.62890625 C26.88220884 13.00391711 26.34762245 15.71527684 25.8046875 19.23046875 C25.5163885 22.81232161 25.44069825 26.38864331 25.3671875 29.98046875 C24.45971744 56.57209131 18.27787306 79.29595296 2.8046875 101.23046875 C3.75988281 101.52179688 4.71507812 101.813125 5.69921875 102.11328125 C26.40378184 108.59438231 40.67320428 119.54461157 50.9296875 138.91796875 C61.57881697 161.20750303 63.66498968 185.65206919 66.08374023 209.90527344 C67.7313684 234.73311118 67.7313684 234.73311118 78.8046875 256.23046875 C87.6090858 262.48996915 96.75890177 263.56328128 107.375 261.8046875 C114.49120347 259.78388407 119.86689476 255.35594091 123.7421875 249.10546875 C126.37298551 241.98683884 126.80798286 235.11737667 123.8359375 228.03125 C122.02454729 224.86817847 120.1006669 223.69534848 116.8046875 222.23046875 C112.43196232 221.5595215 108.924749 221.78711107 104.8046875 223.41796875 C102.3341454 225.65689753 101.96953911 226.9334366 101.8046875 230.23046875 C102.1346875 231.22046875 102.4646875 232.21046875 102.8046875 233.23046875 C107.4246875 233.89046875 112.0446875 234.55046875 116.8046875 235.23046875 C117.1346875 236.88046875 117.4646875 238.53046875 117.8046875 240.23046875 C116.70549934 241.21522089 115.6001273 242.19307348 114.4921875 243.16796875 C113.87730469 243.71324219 113.26242187 244.25851563 112.62890625 244.8203125 C108.09971856 248.32146187 102.23664613 247.7513415 96.8046875 247.23046875 C90.59906048 245.47256075 86.35311963 241.52242116 82.8046875 236.23046875 C80.7050837 229.93165735 80.59408641 221.90801218 83.3671875 215.79296875 C87.39149553 209.09990908 93.31588989 205.13061143 100.8046875 203.23046875 C111.33116361 200.94210438 120.75538753 203.63312991 129.8046875 209.23046875 C132.6796875 211.73046875 132.6796875 211.73046875 134.8046875 214.23046875 C135.4853125 214.95234375 136.1659375 215.67421875 136.8671875 216.41796875 C143.71371407 226.35647506 144.98965673 237.78505243 143.34375 249.515625 C140.96435175 261.25865517 135.51797583 272.28642563 125.86328125 279.7265625 C113.78883223 287.6895553 99.40464593 288.8575504 85.34375 286.69921875 C70.63269646 283.21999786 59.70703791 275.7804027 51.36328125 263.02734375 C44.74440843 251.09361485 44.17868409 236.16008048 42.67037964 222.83120728 C39.30626245 192.6211933 39.30626245 192.6211933 31.8046875 163.23046875 C31.43601562 162.12445313 31.06734375 161.0184375 30.6875 159.87890625 C28.05577666 152.53416204 24.91366474 145.21951589 19.8046875 139.23046875 C17.6978706 138.37657094 17.6978706 138.37657094 15.8046875 138.23046875 C12.13034307 143.61950724 11.11688771 148.1875073 10.39453125 154.65625 C9.8046875 157.23046875 9.8046875 157.23046875 6.8046875 159.23046875 C4.98206776 159.69174905 3.14637559 160.10243804 1.3046875 160.48046875 C-12.22900607 163.75396142 -26.15024581 172.76067593 -34.1953125 184.23046875 C-38.68238214 192.27875023 -38.84668016 200.31715957 -38.9453125 209.35546875 C-38.97353841 210.70706831 -39.00347483 212.05863327 -39.03515625 213.41015625 C-39.1053026 216.68365237 -39.15827475 219.95645894 -39.1953125 223.23046875 C-36.5553125 223.89046875 -33.9153125 224.55046875 -31.1953125 225.23046875 C-30.8653125 226.55046875 -30.5353125 227.87046875 -30.1953125 229.23046875 C-34.81682408 231.58273512 -38.83924068 231.42460254 -43.8828125 231.29296875 C-51.48686166 231.17934247 -58.99822217 231.40801291 -66.58276367 231.96313477 C-71.99317549 232.33153725 -71.99317549 232.33153725 -74.1953125 231.23046875 C-74.0703125 229.41796875 -74.0703125 229.41796875 -73.1953125 227.23046875 C-69.25718537 224.75769125 -65.74259798 223.91097161 -61.1953125 223.23046875 C-61.33688127 203.27210356 -61.48298044 183.31377345 -61.6328125 163.35546875 C-61.63832674 162.62024569 -61.64384097 161.88502263 -61.6495223 161.12752008 C-61.92968493 123.8065553 -62.22261447 86.48633982 -62.7578125 49.16796875 C-62.7689143 48.39351662 -62.7800161 47.61906448 -62.79145432 46.8211441 C-62.91910665 37.95747666 -63.052701 29.09390936 -63.1953125 20.23046875 C-64.12525024 20.03892212 -64.12525024 20.03892212 -65.07397461 19.84350586 C-66.29225952 19.58452515 -66.29225952 19.58452515 -67.53515625 19.3203125 C-68.34073975 19.15136475 -69.14632324 18.98241699 -69.97631836 18.80834961 C-72.63084592 18.11704509 -74.32987831 17.25811461 -76.1953125 15.23046875 C-76.1953125 14.24046875 -76.1953125 13.25046875 -76.1953125 12.23046875 C-73.85293182 11.05927841 -72.28483105 11.03005226 -69.671875 10.9140625 C-68.74189697 10.8720874 -67.81191895 10.8301123 -66.85375977 10.78686523 C-65.35220337 10.72801147 -65.35220337 10.72801147 -63.8203125 10.66796875 C-62.8005835 10.62551025 -61.78085449 10.58305176 -60.73022461 10.53930664 C-50.88316603 10.16072011 -41.04778601 10.13334689 -31.1953125 10.23046875 C-30.5353125 11.55046875 -29.8753125 12.87046875 -29.1953125 14.23046875 C-32.59611335 17.10806947 -34.60386719 17.69998698 -39.1953125 19.23046875 C-39.1953125 45.30046875 -39.1953125 71.37046875 -39.1953125 98.23046875 C-22.83996837 92.28307089 -14.61705878 83.85001163 -7.33129883 68.57373047 C-0.4361 53.25571092 7.98354359 28.9609959 2.9296875 12.35546875 C-0.43230055 8.9934807 -4.65050514 8.27927045 -9.1953125 7.23046875 C-9.6903125 4.75546875 -9.6903125 4.75546875 -10.1953125 2.23046875 C-6.44892934 -0.26712002 -4.474219 -0.01403871 0 0 Z M-30.1953125 125.23046875 C-30.1953125 126.55046875 -30.1953125 127.87046875 -30.1953125 129.23046875 C-24.56989409 128.78043528 -21.58044125 127.5460539 -17.1953125 124.23046875 C-17.5253125 123.57046875 -17.8553125 122.91046875 -18.1953125 122.23046875 C-23.07195259 121.88213731 -25.96581255 122.81361163 -30.1953125 125.23046875 Z M-37.1953125 123.23046875 C-36.8653125 123.89046875 -36.5353125 124.55046875 -36.1953125 125.23046875 C-34.8753125 124.90046875 -33.5553125 124.57046875 -32.1953125 124.23046875 C-32.1953125 123.90046875 -32.1953125 123.57046875 -32.1953125 123.23046875 C-33.8453125 123.23046875 -35.4953125 123.23046875 -37.1953125 123.23046875 Z M-21.1953125 133.23046875 C-21.1953125 133.89046875 -21.1953125 134.55046875 -21.1953125 135.23046875 C-18.75448272 136.9136038 -18.75448272 136.9136038 -15.1953125 137.23046875 C-12.48349043 135.72538524 -10.13382022 133.94767665 -7.67578125 132.05859375 C-4.62690344 129.8115468 -1.73023598 128.53685351 1.8046875 127.23046875 C-0.15590046 124.84948571 -0.15590046 124.84948571 -3.8203125 124.85546875 C-10.5942237 125.02758265 -16.34228885 128.68075908 -21.1953125 133.23046875 Z M-39.1953125 126.23046875 C-38.8653125 127.55046875 -38.5353125 128.87046875 -38.1953125 130.23046875 C-37.8653125 129.24046875 -37.5353125 128.25046875 -37.1953125 127.23046875 C-37.8553125 126.90046875 -38.5153125 126.57046875 -39.1953125 126.23046875 Z M-36.8203125 131.66796875 C-38.81027438 135.37653408 -38.93792863 139.07682558 -39.1953125 143.23046875 C-35.93522607 140.06094028 -32.97293373 136.83108886 -30.1953125 133.23046875 C-30.8553125 132.24046875 -31.5153125 131.25046875 -32.1953125 130.23046875 C-35.18240911 129.89918181 -35.18240911 129.89918181 -36.8203125 131.66796875 Z M-2.5703125 135.54296875 C-3.19808594 135.85169922 -3.82585937 136.16042969 -4.47265625 136.47851562 C-8.3617118 138.39892094 -8.3617118 138.39892094 -10.1953125 142.23046875 C-6.01068951 143.68984594 -3.53727129 142.8180261 0.38085938 140.92773438 C1.03634766 140.59451172 1.69183594 140.26128906 2.3671875 139.91796875 C3.02654297 139.59634766 3.68589844 139.27472656 4.36523438 138.94335938 C6.18509156 138.05263531 7.99528619 137.14224528 9.8046875 136.23046875 C10.61808594 135.82441406 11.43148437 135.41835937 12.26953125 135 C12.77613281 134.74605469 13.28273438 134.49210938 13.8046875 134.23046875 C11.89858185 131.90473113 11.89858185 131.90473113 8.640625 131.8984375 C4.34780752 132.27001539 1.17394966 133.55906865 -2.5703125 135.54296875 Z M-24.1953125 136.23046875 C-25.34985412 137.47242997 -26.49363812 138.7243972 -27.6328125 139.98046875 C-28.27089844 140.6765625 -28.90898437 141.37265625 -29.56640625 142.08984375 C-31.18612575 144.218396 -31.77798506 145.6207028 -32.1953125 148.23046875 C-28.59896506 144.7368741 -25.36079283 141.11948744 -22.1953125 137.23046875 C-22.8553125 136.90046875 -23.5153125 136.57046875 -24.1953125 136.23046875 Z M1.6171875 142.23046875 C-0.01283203 143.06578125 -0.01283203 143.06578125 -1.67578125 143.91796875 C-2.50722656 144.35109375 -3.33867188 144.78421875 -4.1953125 145.23046875 C-1.77135029 147.78313692 0.45297439 149.81031554 3.5546875 151.48046875 C4.6271875 152.05796875 5.6996875 152.63546875 6.8046875 153.23046875 C8.1246875 148.61046875 9.4446875 143.99046875 10.8046875 139.23046875 C7.01755557 139.23046875 4.97114349 140.49939469 1.6171875 142.23046875 Z M-33.1953125 140.23046875 C-32.1953125 142.23046875 -32.1953125 142.23046875 -32.1953125 142.23046875 Z M-19.80078125 143.26953125 C-29.12096429 152.61272708 -38.24394315 165.91129785 -39.1953125 179.23046875 C-36.18585856 176.42338589 -34.09581021 173.64217599 -32.0078125 170.10546875 C-26.15671998 160.73623532 -18.58795013 153.33345757 -10.1953125 146.23046875 C-11.94466148 144.14713796 -11.94466148 144.14713796 -14.1953125 142.23046875 C-17.95436488 141.86824477 -17.95436488 141.86824477 -19.80078125 143.26953125 Z M-35.1953125 143.23046875 C-34.1953125 145.23046875 -34.1953125 145.23046875 -34.1953125 145.23046875 Z M-36.1953125 145.23046875 C-36.1953125 148.23046875 -36.1953125 148.23046875 -36.1953125 148.23046875 Z M-38.1953125 148.23046875 C-37.1953125 150.23046875 -37.1953125 150.23046875 -37.1953125 150.23046875 Z M-13.0703125 151.29296875 C-14.10478516 152.26363281 -14.10478516 152.26363281 -15.16015625 153.25390625 C-15.83175781 153.90617188 -16.50335938 154.5584375 -17.1953125 155.23046875 C-18.06349609 156.02324219 -18.06349609 156.02324219 -18.94921875 156.83203125 C-24.59000793 162.14562849 -33.02495632 170.32112616 -34.1953125 178.23046875 C-33.2465625 177.38484375 -32.2978125 176.53921875 -31.3203125 175.66796875 C-20.96554448 166.8633157 -8.78214494 158.67609859 4.8046875 156.23046875 C-0.06378636 150.64946323 -0.06378636 150.64946323 -6.578125 147.96484375 C-9.76790912 148.28858303 -10.76249702 149.11442925 -13.0703125 151.29296875 Z M-34.1953125 155.23046875 C-33.1953125 157.23046875 -33.1953125 157.23046875 -33.1953125 157.23046875 Z M-36.1953125 158.23046875 C-35.1953125 160.23046875 -35.1953125 160.23046875 -35.1953125 160.23046875 Z M-37.1953125 160.23046875 C-36.1953125 162.23046875 -36.1953125 162.23046875 -36.1953125 162.23046875 Z M-36.1953125 179.23046875 C-35.1953125 181.23046875 -35.1953125 181.23046875 -35.1953125 181.23046875 Z " fill="#101010" transform="translate(519.1953125,-0.23046875)"/>
<path d="M0 0 C9.00048815 -0.09375508 18.00520271 -0.12374216 27 0.25 C28.299375 0.29640625 29.59875 0.3428125 30.9375 0.390625 C34 1 34 1 35.4375 3.046875 C35.623125 3.69140625 35.80875 4.3359375 36 5 C34.53747803 6.01320313 34.53747803 6.01320313 33.04541016 7.046875 C30.39861871 9.26616843 30.03891437 9.82280567 29.25537109 13.390625 C29.26431396 15.30101562 29.26431396 15.30101562 29.2734375 17.25 C29.27244049 17.94456299 29.27144348 18.63912598 29.27041626 19.35473633 C29.27508434 20.82400962 29.29446475 22.29330083 29.32763672 23.76220703 C29.37429512 25.96669636 29.36882547 28.16624477 29.35546875 30.37109375 C29.40077248 41.83495577 30.53308639 53.92811141 39.0234375 62.47265625 C43.92346789 66.25904337 48.94817515 67.29071176 55.0625 67 C61.99355744 65.97914658 66.8215693 62.78519912 71.1875 57.375 C78.66388099 46.43248012 81.647825 33.64900424 85 21 C85.1865918 20.31993896 85.37318359 19.63987793 85.56542969 18.93920898 C86.24250721 15.91784562 86.1710361 13.07864971 86 10 C85.01 9.01 85.01 9.01 84 8 C84.375 5.875 84.375 5.875 85 4 C90.04372688 3.07360119 93.95990242 3.26444619 99 4 C102.67394028 4.25406491 106.35488161 4.38861124 110.03515625 4.51757812 C113.8245364 4.69594149 115.77715694 4.85143796 119 7 C118.54177532 10.46941546 118.10868317 13.67395049 117 17 C116.91748564 18.43193682 116.89087448 19.86748941 116.89993286 21.30177307 C116.90289368 22.18019867 116.90585449 23.05862427 116.90890503 23.96366882 C116.91721344 24.92513321 116.92552185 25.8865976 116.93408203 26.87719727 C116.93875488 27.89235413 116.94342773 28.90751099 116.94824219 29.95343018 C116.95875814 32.16329061 116.97142517 34.37314159 116.98596573 36.5829792 C117.0079961 40.09568065 117.02207394 43.60832794 117.03366089 47.12107849 C117.06722181 57.11131207 117.10836183 67.10145802 117.17138672 77.09155273 C117.20936687 83.20288297 117.23216329 89.31411939 117.24569321 95.42555046 C117.25367554 97.74125708 117.26717998 100.05695228 117.28662491 102.37259102 C117.48862526 126.88641718 115.95149171 151.42176256 98.9375 170.75 C90.35956479 178.85791137 78.96197429 182.39346443 67.453125 182.27734375 C55.56021992 181.32214436 46.60154262 174.62323224 39.0234375 165.83203125 C33.35455159 157.89777973 25.47869125 144.99717177 27 135 C31.29720672 130.5323404 36.75399668 129.0915664 42.5 127.25 C43.43714844 126.93417969 44.37429688 126.61835938 45.33984375 126.29296875 C53.5728918 123.59533173 53.5728918 123.59533173 58 124 C58.99 124.99 58.99 124.99 60 126 C59.9375 128.375 59.9375 128.375 59 131 C54.78378378 135 54.78378378 135 52 135 C54.8623557 144.15096002 54.8623557 144.15096002 60.7890625 151.1015625 C64.77883877 152.72284968 68.77469734 152.52899986 73 152 C79.41307315 148.97496549 83.21426032 143.61885353 85.61254883 137.06860352 C87.50990991 131.13388981 87.47755412 125.27380306 87.51171875 119.08984375 C87.53864555 117.27777184 87.53864555 117.27777184 87.56611633 115.42909241 C87.61997878 111.59859632 87.65403865 107.76822315 87.6875 103.9375 C87.72069421 101.32875903 87.7551858 98.72003423 87.79101562 96.11132812 C87.87569155 89.74099568 87.94414279 83.37064685 88 77 C87.06551025 77.75780762 86.13102051 78.51561523 85.16821289 79.29638672 C83.91579809 80.29949178 82.66309726 81.30223978 81.41015625 82.3046875 C80.79740845 82.80315186 80.18466064 83.30161621 79.55334473 83.81518555 C68.58013679 92.55465237 56.44420729 95.2879333 42.5703125 93.7265625 C30.68804898 91.48542383 21.93991622 84.98031639 15.0234375 75.20703125 C10.66758368 68.19132627 7.89180078 61.02446301 6 53 C5.82339844 52.26217285 5.64679687 51.5243457 5.46484375 50.76416016 C3.45605938 41.31390583 3.64310499 31.76613722 3.61914062 22.1484375 C3.60965574 19.87965252 3.5759958 17.61223042 3.5390625 15.34375 C3.54410797 14.65003296 3.54915344 13.95631592 3.55435181 13.24157715 C3.48588778 9.91226064 3.41898308 8.40359186 0.96630859 6.04101562 C0.31742676 5.69748047 -0.33145508 5.35394531 -1 5 C-0.67 3.35 -0.34 1.7 0 0 Z " fill="#0F0F0F" transform="translate(562,14)"/>
<path d="M0 0 C1.44874512 0.00628418 1.44874512 0.00628418 2.92675781 0.01269531 C16.57966659 0.22609296 31.5110186 2.46725315 42.4375 11.3125 C46.49820177 16.69018613 47.92059292 20.54919919 47.4375 27.3125 C46.2890625 29.00610352 46.2890625 29.00610352 44.4375 30.3125 C35.42738709 31.7039123 26.99093721 29.50168655 18.4375 26.875 C4.64593948 22.6894603 -6.92657957 20.56808601 -20.5625 26.3125 C-22.72919123 27.52210018 -24.57930235 28.81170178 -26.5625 30.3125 C-27.2225 30.3125 -27.8825 30.3125 -28.5625 30.3125 C-29.25024405 31.63508472 -29.90961373 32.97236503 -30.5625 34.3125 C-31.09875 35.323125 -31.635 36.33375 -32.1875 37.375 C-35.42184293 45.17059579 -33.83910549 53.45071942 -31.0234375 61.12890625 C-23.34418201 77.86311273 -11.7390624 88.30945005 3.4375 98.25 C9.4464486 102.22479091 14.99894066 106.5915884 20.4375 111.3125 C21.07300781 111.85132813 21.70851562 112.39015625 22.36328125 112.9453125 C31.46822955 121.27581692 38.53843597 133.11438342 39.7421875 145.4296875 C40.30175336 159.41883393 34.30074379 170.95263077 25.25 181.3125 C-2.15210883 210.49871942 -39.86549424 221.93639719 -78.5625 227.3125 C-79.31539307 227.41780029 -80.06828613 227.52310059 -80.84399414 227.6315918 C-87.01773821 228.40962048 -93.15798515 228.49600706 -99.375 228.5 C-100.39787109 228.51224609 -101.42074219 228.52449219 -102.47460938 228.53710938 C-103.45880859 228.53904297 -104.44300781 228.54097656 -105.45703125 228.54296875 C-106.78504761 228.54913208 -106.78504761 228.54913208 -108.13989258 228.55541992 C-110.71497525 228.29721099 -112.34542071 227.61247808 -114.5625 226.3125 C-114.5625 225.6525 -114.5625 224.9925 -114.5625 224.3125 C-113.94769775 224.18834717 -113.33289551 224.06419434 -112.69946289 223.9362793 C-74.30745347 216.01724574 -15.97455289 202.20083628 7.2578125 167.6015625 C11.41301375 160.23815936 12.81217768 153.69803386 11.4375 145.3125 C6.56749596 129.33424863 -8.95472728 120.03137786 -22.3125 111.6875 C-27.74479451 108.28932458 -32.65242704 104.41925551 -37.5625 100.3125 C-38.26246094 99.75949219 -38.96242188 99.20648438 -39.68359375 98.63671875 C-47.86006953 91.9584666 -54.04430908 83.27453535 -57.5625 73.3125 C-57.89894531 72.36503906 -57.89894531 72.36503906 -58.2421875 71.3984375 C-62.73721404 56.43554095 -57.57817072 40.82944404 -50.54296875 27.5390625 C-42.09076582 13.76880684 -30.09099 5.78318225 -14.8515625 1.1953125 C-9.91770071 0.01579381 -5.05282249 -0.02998184 0 0 Z " fill="#121212" transform="translate(114.5625,29.6875)"/>
<path d="M0 0 C0.7528125 0.52335937 1.505625 1.04671875 2.28125 1.5859375 C2.8484375 2.05257812 3.415625 2.51921875 4 3 C4 3.66 4 4.32 4 5 C4.66 5 5.32 5 6 5 C19.02134525 19.65860673 24.99392718 37.48764011 24 57 C22.22226166 75.94561141 13.39765935 91.72292614 -1 104 C-16.18559483 115.01047995 -33.7154098 120.21817182 -52.4453125 117.5 C-70.36956688 114.03333102 -86.37153792 105.43195973 -97.19775391 90.32910156 C-107.3275374 74.9011317 -111.5650255 57.06186415 -108.3515625 38.7890625 C-104.68701601 21.35527542 -94.92126167 6.39835064 -80.37109375 -3.92578125 C-54.62533988 -19.76702726 -24.1965361 -18.49807651 0 0 Z M-71.875 10.9296875 C-82.96894704 23.98420277 -83.89099486 39.69702956 -83 56 C-81.34633552 71.95582751 -74.42431072 87.05281118 -62.0625 97.4375 C-53.16892964 104.04337874 -44.31121601 107.16648646 -33.10546875 105.59375 C-21.23886534 102.80551312 -14.35689215 96.14176654 -7.8203125 86.20703125 C0.93300407 70.83783588 1.08695945 50.73835854 -3.08984375 34.01171875 C-6.92844492 21.30973806 -14.05699895 10.29226054 -25.66015625 3.42578125 C-41.85796816 -4.89975094 -59.16296001 -2.15312032 -71.875 10.9296875 Z " fill="#131313" transform="translate(334,113)"/>
<path d="M0 0 C6.80211235 6.49292542 10.59867613 16.02950885 11.375 25.296875 C11.62604211 37.66069914 8.80552346 48.20263523 0.2890625 57.42578125 C-11.7176773 67.89375114 -28.74022825 68.77183461 -43.875 70.3125 C-43.545 70.9725 -43.215 71.6325 -42.875 72.3125 C-42.64099859 74.10491787 -42.45911303 75.90424838 -42.30249023 77.70507812 C-42.20246201 78.83385376 -42.10243378 79.96262939 -41.99937439 81.12561035 C-41.89516678 82.35259644 -41.79095917 83.57958252 -41.68359375 84.84375 C-41.57402847 86.10457397 -41.4644632 87.36539795 -41.35157776 88.66442871 C-41.12013061 91.34091284 -40.89037138 94.01748057 -40.66333008 96.69433594 C-40.37427485 100.09941465 -40.07778379 103.50379533 -39.77894497 106.90802765 C-39.4929911 110.17791061 -39.21360888 113.44835396 -38.93359375 116.71875 C-38.82736191 117.92954224 -38.72113007 119.14033447 -38.61167908 120.38781738 C-38.05247012 127.04914448 -37.72947795 133.62767397 -37.875 140.3125 C-37.16867432 140.4350415 -36.46234863 140.55758301 -35.73461914 140.68383789 C-30.72176883 141.57390574 -26.18088858 142.44190761 -21.875 145.3125 C-20.9375 147.4375 -20.9375 147.4375 -20.875 149.3125 C-23.05730017 151.49480017 -27.95293339 150.86244052 -30.9921875 151.06640625 C-31.91911407 151.13157944 -32.84604065 151.19675262 -33.80105591 151.26390076 C-35.77313965 151.40140743 -37.74538625 151.53659445 -39.71777344 151.66967773 C-42.70294735 151.87181391 -45.68739814 152.08277053 -48.671875 152.29492188 C-50.5911088 152.42762002 -52.51037872 152.55979704 -54.4296875 152.69140625 C-55.31034882 152.75389053 -56.19101013 152.81637482 -57.09835815 152.88075256 C-63.36441458 153.29638578 -69.59616834 153.37973796 -75.875 153.3125 C-76.205 151.9925 -76.535 150.6725 -76.875 149.3125 C-75.6983992 148.48429528 -74.50795447 147.67575034 -73.3125 146.875 C-72.65121094 146.42253906 -71.98992187 145.97007812 -71.30859375 145.50390625 C-68.20477146 143.98437848 -65.29108732 143.67274194 -61.875 143.3125 C-62.96872725 123.27961759 -64.59485399 103.30041547 -66.3125 83.3125 C-67.82600325 65.69155437 -69.32916142 48.07118102 -70.6875 30.4375 C-70.75057343 29.62780762 -70.81364685 28.81811523 -70.87863159 27.98388672 C-71.05285747 25.74202794 -71.22430778 23.49997833 -71.39453125 21.2578125 C-71.48839111 20.02562988 -71.58225098 18.79344727 -71.67895508 17.52392578 C-71.84678947 14.77461869 -71.91501663 12.06551427 -71.875 9.3125 C-74.185 8.9825 -76.495 8.6525 -78.875 8.3125 C-78.875 6.3325 -78.875 4.3525 -78.875 2.3125 C-72.48653277 -2.15568016 -66.12741977 -2.89468629 -58.5 -3.875 C-57.31921875 -4.03935547 -56.1384375 -4.20371094 -54.921875 -4.37304688 C-51.57535277 -4.83328685 -48.22667731 -5.26663925 -44.875 -5.6875 C-44.05273926 -5.79425049 -43.23047852 -5.90100098 -42.38330078 -6.01098633 C-28.04354984 -7.76348183 -12.07258868 -9.1823291 0 0 Z M-48.875 8.3125 C-47.555 24.1525 -46.235 39.9925 -44.875 56.3125 C-28.95493099 54.75093713 -28.95493099 54.75093713 -16.05859375 46.28125 C-11.92148494 39.96361376 -11.15586255 33.75400927 -11.875 26.3125 C-13.62534052 18.173974 -16.87472519 12.87908552 -23.875 8.3125 C-31.91164909 4.29417546 -40.51076551 6.45378122 -48.875 8.3125 Z " fill="#141414" transform="translate(224.875,77.6875)"/>
<path d="M0 0 C17.47850738 13.70252694 23.35163334 40.86534333 26.06640625 61.75 C28.35189343 89.66071777 23.0404449 118.64373036 6.12890625 141.3515625 C1.17458275 147.1128402 -5.81642262 151.23016039 -13.39453125 152 C-22.12064489 152.39108633 -29.16321413 150.21589689 -36.05859375 144.8125 C-50.2270736 131.2141803 -55.30713718 109.57967327 -57.93359375 90.75 C-58.0728125 89.75202393 -58.0728125 89.75202393 -58.21484375 88.73388672 C-61.58054709 62.10275908 -59.6178903 29.90627498 -43.27734375 7.4765625 C-32.22509291 -6.03732603 -14.93843456 -9.65716981 0 0 Z M-27.953125 7.99609375 C-45.76070241 32.75810967 -42.10109853 79.75518895 -37.54296875 108.18652344 C-35.67382953 118.54034322 -33.10816416 129.1259158 -24.99609375 136.375 C-20.07774205 138.58323954 -16.64380037 139.17005075 -11.37109375 137.875 C-4.28912632 134.34989513 -1.18735293 125.85024606 1.19140625 118.7734375 C5.60954761 103.50718118 6.30209602 88.69510362 6.31640625 72.9375 C6.31774567 72.06927612 6.31908508 71.20105225 6.32046509 70.30651855 C6.31609711 57.25980901 5.87279325 44.54228389 3.06640625 31.75 C2.82664062 30.64785156 2.586875 29.54570313 2.33984375 28.41015625 C1.68887029 25.80268564 0.93744271 23.29122772 0.06640625 20.75 C-0.21976562 19.88246094 -0.5059375 19.01492187 -0.80078125 18.12109375 C-3.05187631 11.87942109 -6.01920278 6.0194329 -11.94140625 2.5859375 C-18.62401412 -0.21813718 -23.45816033 2.99685838 -27.953125 7.99609375 Z " fill="#191919" transform="translate(422.93359375,54.25)"/>
<path d="M0 0 C6.42979079 5.22000437 10.38988933 11.77062955 14.63623047 18.74853516 C18.62781501 25.23929616 22.49645292 30.92099452 28.6796875 35.4453125 C29.1746875 30.4953125 29.1746875 30.4953125 29.6796875 25.4453125 C31.1646875 25.9403125 31.1646875 25.9403125 32.6796875 26.4453125 C33.0921875 27.2909375 33.5046875 28.1365625 33.9296875 29.0078125 C34.5071875 29.8121875 35.0846875 30.6165625 35.6796875 31.4453125 C40.70208968 32.03618334 45.69031595 31.14557517 50.6796875 30.4453125 C48.86659747 34.22258339 46.7723616 37.81801072 44.6796875 41.4453125 C53.16718605 40.66664291 60.57261037 37.68041382 68.33300781 34.36523438 C78.69865891 29.996882 87.68023685 28.19195386 98.6796875 31.4453125 C107.80458617 35.26117922 114.88897268 44.05362992 119.6796875 52.4453125 C119.6796875 53.1053125 119.6796875 53.7653125 119.6796875 54.4453125 C118.48472656 54.50138672 118.48472656 54.50138672 117.265625 54.55859375 C108.93197448 54.85326234 108.93197448 54.85326234 101.6796875 58.4453125 C100.04100134 61.34650843 98.79715118 64.30984088 97.6796875 67.4453125 C94.90865292 66.12723189 92.44951558 64.62690838 89.9296875 62.8828125 C85.19278943 59.92663723 81.19586654 58.7138446 75.5390625 59.890625 C70.90788336 61.38289383 68.38722706 63.27118901 65.6796875 67.4453125 C61.6796875 65.4453125 61.6796875 65.4453125 59.8984375 64.3828125 C57.11232038 63.20557991 54.94260501 63.24857637 51.9296875 63.3203125 C50.94484375 63.33835937 49.96 63.35640625 48.9453125 63.375 C47.82382812 63.40980469 47.82382812 63.40980469 46.6796875 63.4453125 C46.0196875 65.0953125 45.3596875 66.7453125 44.6796875 68.4453125 C43.0296875 67.7853125 41.3796875 67.1253125 39.6796875 66.4453125 C39.25558594 66.8784375 38.83148438 67.3115625 38.39453125 67.7578125 C35.21710675 70.77461993 33.41121323 72.32132509 28.9921875 73.0703125 C25.03288727 72.32327472 23.97797606 71.72858187 21.6796875 68.4453125 C20.88259496 66.38751238 20.17626934 64.31015244 19.47265625 62.21875 C18.7662676 60.22485682 18.7662676 60.22485682 16.4921875 58.9453125 C15.8940625 58.7803125 15.2959375 58.6153125 14.6796875 58.4453125 C14.834375 56.5890625 14.834375 56.5890625 14.9921875 54.6953125 C15.0111092 51.13172542 14.94214845 50.71468032 12.3046875 48.0078125 C8.15747742 45.53923507 5.92056844 45.33510778 1.0546875 45.3828125 C-0.72808594 45.39634766 -0.72808594 45.39634766 -2.546875 45.41015625 C-3.46210938 45.42175781 -4.37734375 45.43335938 -5.3203125 45.4453125 C-5.28550781 44.70925781 -5.25070313 43.97320312 -5.21484375 43.21484375 C-5.03780259 37.26374469 -5.03780259 37.26374469 -6.3203125 31.5078125 C-9.27915791 28.45650318 -12.2049578 26.58579477 -16.3203125 25.4453125 C-19.73482013 25.41617019 -22.96878684 25.8134675 -26.3203125 26.4453125 C-26.26230469 25.671875 -26.20429688 24.8984375 -26.14453125 24.1015625 C-25.87029685 17.77066546 -26.02131853 13.22361794 -29.80859375 8.00390625 C-32.01109017 5.73311536 -34.38054005 4.53918132 -37.3203125 3.4453125 C-36.30766793 0.74681271 -35.67045015 -0.35947801 -33.11328125 -1.78515625 C-31.82357422 -2.25888672 -31.82357422 -2.25888672 -30.5078125 -2.7421875 C-29.65574219 -3.06574219 -28.80367187 -3.38929687 -27.92578125 -3.72265625 C-17.62176159 -7.01314529 -9.01593304 -6.04097871 0 0 Z " fill="#121212" transform="translate(243.3203125,10.5546875)"/>
<path d="M0 0 C10.2412307 8.25150588 14.70386453 20.85583391 16.73828125 33.52734375 C17.70089018 49.39187938 14.94330864 63.43112939 4.55078125 75.83984375 C-2.20077199 82.87964064 -8.00826462 85.76624087 -17.82421875 86.08984375 C-28.27871788 85.69017477 -35.13161853 82.09398072 -42.26171875 74.52734375 C-51.96016269 63.28506588 -54.45639306 49.97816771 -54.26171875 35.52734375 C-53.84448627 32.10273262 -53.22497196 28.8390242 -52.26171875 25.52734375 C-51.60171875 25.52734375 -50.94171875 25.52734375 -50.26171875 25.52734375 C-49.93171875 25.85734375 -49.60171875 26.18734375 -49.26171875 26.52734375 C-49.33132813 25.83769531 -49.4009375 25.14804687 -49.47265625 24.4375 C-50.01121553 15.08964963 -46.80816339 10.63375333 -40.88671875 3.77734375 C-28.69860386 -6.66961187 -13.87791472 -9.03622426 0 0 Z M-30.26171875 2.52734375 C-32.01974812 4.99808773 -33.11366219 6.81726792 -34.26171875 9.52734375 C-34.72578125 10.49220703 -34.72578125 10.49220703 -35.19921875 11.4765625 C-37.44451195 16.57859036 -37.59598755 20.10131732 -36.26171875 25.52734375 C-33.55486564 30.21228183 -30.38022467 31.93884191 -25.26171875 33.52734375 C-21.04767408 33.3620871 -18.26951862 32.53514362 -15.26171875 29.52734375 C-14.16636565 27.7308441 -14.16636565 27.7308441 -14.26171875 25.52734375 C-15.7381212 21.91015776 -17.28078753 19.08242765 -20.26171875 16.52734375 C-14.5801764 16.07282036 -11.66135354 16.86098143 -7.26171875 20.52734375 C-5.5444331 25.6792007 -5.82371145 30.03296591 -7.32421875 35.15234375 C-10.40367738 40.51656201 -14.00115686 43.58201787 -19.69921875 45.96484375 C-27.44143576 47.18729907 -32.64146705 45.25706302 -39.26171875 41.52734375 C-39.92171875 41.19734375 -40.58171875 40.86734375 -41.26171875 40.52734375 C-39.16489752 62.17509274 -39.16489752 62.17509274 -27.26171875 79.52734375 C-23.0357183 82.23543384 -19.50355361 82.85588438 -14.57421875 81.96484375 C-9.61687215 80.79574373 -6.31757844 78.13139244 -3.53125 73.8984375 C-3.05042969 72.93035156 -2.56960938 71.96226562 -2.07421875 70.96484375 C-1.58566406 70.01480469 -1.09710938 69.06476563 -0.59375 68.0859375 C2.60931584 59.52877334 3.10129875 50.77724446 3.05078125 41.71484375 C3.0458667 40.66603027 3.04095215 39.6172168 3.03588867 38.53662109 C2.8536178 26.43196607 1.60327492 12.92157703 -7.03515625 3.6171875 C-10.71770351 0.33086368 -13.40238366 -1.2903685 -18.44921875 -1.78515625 C-23.14451597 -1.40029582 -26.46925507 -0.27974181 -30.26171875 2.52734375 Z M-48.26171875 29.52734375 C-47.26171875 31.52734375 -47.26171875 31.52734375 -47.26171875 31.52734375 Z M-44.26171875 36.52734375 C-43.26171875 38.52734375 -43.26171875 38.52734375 -43.26171875 38.52734375 Z " fill="#282828" transform="translate(455.26171875,252.47265625)"/>
<path d="M0 0 C0.80759766 -0.03738281 1.61519531 -0.07476562 2.44726562 -0.11328125 C6.36791688 -0.17107955 8.54742636 -0.05765975 11.8515625 2.17578125 C15.26966069 6.85708963 17.99843745 11.8428347 20.75 16.9375 C21.87001211 19.00472236 22.99610456 21.06866458 24.12890625 23.12890625 C24.86669312 24.49511108 24.86669312 24.49511108 25.61938477 25.88891602 C27.22580021 28.43572101 28.98261291 30.33676654 31.1875 32.375 C33.58822955 29.49412454 35.66041037 26.81095166 37.1875 23.375 C37.8475 23.375 38.5075 23.375 39.1875 23.375 C39.6 24.32375 40.0125 25.2725 40.4375 26.25 C42.0177645 29.75836811 42.0177645 29.75836811 46.1875 31.375 C46.1875 22.465 46.1875 13.555 46.1875 4.375 C43.8775 4.375 41.5675 4.375 39.1875 4.375 C38.1975 4.045 37.2075 3.715 36.1875 3.375 C36.1875 2.715 36.1875 2.055 36.1875 1.375 C39.07015149 0.41411617 40.86412271 0.25829059 43.85546875 0.27734375 C44.74814453 0.28056641 45.64082031 0.28378906 46.56054688 0.28710938 C47.95370117 0.29967773 47.95370117 0.29967773 49.375 0.3125 C50.31537109 0.31701172 51.25574219 0.32152344 52.22460938 0.32617188 C54.54563712 0.33795374 56.86653644 0.35440442 59.1875 0.375 C59.1875 1.695 59.1875 3.015 59.1875 4.375 C56.5475 4.375 53.9075 4.375 51.1875 4.375 C51.1875 32.425 51.1875 60.475 51.1875 89.375 C47.1875 88.375 47.1875 88.375 45.39501953 85.98022461 C44.79286621 84.92327393 44.19071289 83.86632324 43.5703125 82.77734375 C43.23655609 82.20010559 42.90279968 81.62286743 42.55892944 81.02813721 C41.46475663 79.12954913 40.38877775 77.2212799 39.3125 75.3125 C38.55529777 73.99121973 37.796821 72.6706691 37.03710938 71.35083008 C35.49059021 68.66099928 33.9504381 65.96767718 32.41503906 63.27148438 C29.22189871 57.67290234 25.95091392 52.12034494 22.6875 46.5625 C17.40956049 37.56185813 12.28647837 28.47776372 7.1875 19.375 C7.18163376 20.03295563 7.17576752 20.69091125 7.16972351 21.36880493 C7.1052759 28.28096972 7.02073053 35.19269078 6.92504883 42.10449219 C6.89200574 44.67637239 6.86391125 47.24832151 6.84106445 49.8203125 C6.53363895 83.51938086 6.53363895 83.51938086 -0.5625 96.75 C-0.91248047 97.42208496 -1.26246094 98.09416992 -1.62304688 98.78662109 C-6.03053654 106.98989187 -11.78778762 113.50482973 -19.8125 118.375 C-20.4725 118.375 -21.1325 118.375 -21.8125 118.375 C-21.24005194 114.97700705 -20.25562362 113.56392676 -17.6875 111.3125 C-4.50909614 98.62118294 -0.02697664 80.34546875 0.44433594 62.59448242 C0.5456955 55.42963577 0.51184335 48.26606385 0.45178223 41.10107422 C0.43256072 38.35749138 0.42861998 35.6139749 0.4250679 32.87033367 C0.4199251 29.5840992 0.40540484 26.2979221 0.390625 23.01171875 C0.38637512 21.7868425 0.38212524 20.56196625 0.37774658 19.29997253 C0.36813904 18.17061783 0.35853149 17.04126312 0.34863281 15.87768555 C0.33839081 14.38787422 0.33839081 14.38787422 0.32794189 12.8679657 C0.28945487 10.24358555 0.28945487 10.24358555 -0.8125 7.375 C-3.14141096 6.34799556 -3.14141096 6.34799556 -5.875 5.6875 C-6.79410156 5.43613281 -7.71320313 5.18476563 -8.66015625 4.92578125 C-9.37042969 4.74402344 -10.08070313 4.56226563 -10.8125 4.375 C-10.8125 3.385 -10.8125 2.395 -10.8125 1.375 C-7.44328823 -0.30960589 -3.7015138 0.06407026 0 0 Z M37.1875 29.375 C35.49661778 31.35456942 33.82919528 33.35445196 32.1875 35.375 C34.1675 35.045 36.1475 34.715 38.1875 34.375 C38.1875 32.725 38.1875 31.075 38.1875 29.375 C37.8575 29.375 37.5275 29.375 37.1875 29.375 Z M33.1875 39.375 C35.66016765 39.03055119 35.66016765 39.03055119 38.1875 38.375 C38.5175 37.715 38.8475 37.055 39.1875 36.375 C36.42526722 36.375 35.29468546 37.68925163 33.1875 39.375 Z M41.1875 36.375 C41.8475 38.355 42.5075 40.335 43.1875 42.375 C44.5075 42.375 45.8275 42.375 47.1875 42.375 C46.8575 40.725 46.5275 39.075 46.1875 37.375 C44.5375 37.045 42.8875 36.715 41.1875 36.375 Z M35.1875 41.375 C36.38649698 44.4581351 37.66450477 47.43779492 39.1875 50.375 C39.8475 50.375 40.5075 50.375 41.1875 50.375 C41.30070856 45.29196314 41.30070856 45.29196314 40.1875 40.375 C37.97668149 40.26959074 37.97668149 40.26959074 35.1875 41.375 Z M44.1875 48.375 C44.70708285 52.75434119 45.24425742 57.06303391 46.1875 61.375 C46.5175 61.375 46.8475 61.375 47.1875 61.375 C47.1875 57.085 47.1875 52.795 47.1875 48.375 C46.1975 48.375 45.2075 48.375 44.1875 48.375 Z " fill="#232323" transform="translate(491.8125,247.625)"/>
<path d="M0 0 C17.82 0 35.64 0 54 0 C57 20 57 20 55 24 C54.01 23.67 53.02 23.34 52 23 C50.68831929 19.48721125 49.6939476 15.92719191 48.671875 12.3203125 C46.92439813 8.84985611 45.78680693 7.7141313 42.11767578 6.46191406 C37.96010896 5.55505259 33.80410044 5.42020437 29.5625 5.3125 C26.406875 5.209375 23.25125 5.10625 20 5 C19.67 16.22 19.34 27.44 19 39 C27.34803516 39.01390035 27.34803516 39.01390035 35 37 C36.78685377 34.24727933 37.46806995 31.44080312 38.125 28.25 C38.29257813 27.45078125 38.46015625 26.6515625 38.6328125 25.828125 C38.75398438 25.22484375 38.87515625 24.6215625 39 24 C40.32 24 41.64 24 43 24 C43 35.88 43 47.76 43 60 C41.68 60 40.36 60 39 60 C38.82984375 59.16855469 38.6596875 58.33710938 38.484375 57.48046875 C38.24203125 56.39378906 37.9996875 55.30710937 37.75 54.1875 C37.51796875 53.10855469 37.2859375 52.02960938 37.046875 50.91796875 C35.86673251 47.62854173 35.03906064 46.6415364 32 45 C30.01857418 44.43546238 30.01857418 44.43546238 28 44.3125 C27.34 44.24675781 26.68 44.18101562 26 44.11328125 C24.0028446 44.00016112 22.00035643 44 20 44 C20.00785522 45.65769409 20.00785522 45.65769409 20.01586914 47.34887695 C20.03396215 51.44701325 20.04544778 55.54514602 20.05493164 59.64331055 C20.059962 61.41740513 20.06678699 63.19149556 20.07543945 64.96557617 C20.08756174 67.51482161 20.09324126 70.06401226 20.09765625 72.61328125 C20.10281754 73.40712723 20.10797882 74.20097321 20.11329651 75.01887512 C20.11362877 78.27656286 20.03772826 80.88681521 19 84 C23.5853142 83.78029075 28.16733659 83.5190409 32.75 83.25 C34.05195313 83.188125 35.35390625 83.12625 36.6953125 83.0625 C38.57089844 82.94648438 38.57089844 82.94648438 40.484375 82.828125 C41.63647461 82.7652832 42.78857422 82.70244141 43.97558594 82.63769531 C47.56151522 81.88160496 48.78472323 80.87281475 51 78 C52.11976479 74.7527146 52.11976479 74.7527146 52.75 71.25 C52.99234375 70.07953125 53.2346875 68.9090625 53.484375 67.703125 C53.65453125 66.81109375 53.8246875 65.9190625 54 65 C55.32 65 56.64 65 58 65 C58.02887236 68.81248426 58.04675492 72.6249407 58.0625 76.4375 C58.07087891 77.52611328 58.07925781 78.61472656 58.08789062 79.73632812 C58.09111328 80.77080078 58.09433594 81.80527344 58.09765625 82.87109375 C58.10289307 83.82943115 58.10812988 84.78776855 58.11352539 85.77514648 C58 88 58 88 57 89 C55.23083613 89.0989348 53.45771848 89.1279909 51.68579102 89.12939453 C50.55113907 89.13254669 49.41648712 89.13569885 48.24745178 89.13894653 C46.39439674 89.13591019 46.39439674 89.13591019 44.50390625 89.1328125 C43.24488998 89.13376923 41.98587372 89.13472595 40.68870544 89.13571167 C38.01956789 89.1363938 35.35052114 89.13503508 32.68139648 89.13037109 C29.2569312 89.12467957 25.83254439 89.12794924 22.40808201 89.13394356 C19.14835393 89.13842327 15.88863536 89.13528769 12.62890625 89.1328125 C11.39556046 89.13483673 10.16221466 89.13686096 8.89149475 89.13894653 C7.75369064 89.13579437 6.61588654 89.13264221 5.44360352 89.12939453 C4.43846207 89.12859894 3.43332062 89.12780334 2.39772034 89.12698364 C0 89 0 89 -2 88 C-1.67 87.01 -1.34 86.02 -1 85 C1.64 84.67 4.28 84.34 7 84 C6.67 57.93 6.34 31.86 6 5 C3.69 4.34 1.38 3.68 -1 3 C-0.67 2.01 -0.34 1.02 0 0 Z " fill="#1B1B1B" transform="translate(199,249)"/>
<path d="M0 0 C0 -0.99 0 -1.98 0 -3 C0.99 -3.33 1.98 -3.66 3 -4 C4.65079442 -2.34920558 4.22549447 -0.36263821 4.31640625 1.91015625 C4.35830078 2.89951172 4.40019531 3.88886719 4.44335938 4.90820312 C4.48267578 5.94912109 4.52199219 6.99003906 4.5625 8.0625 C4.60568359 9.10728516 4.64886719 10.15207031 4.69335938 11.22851562 C4.79981225 13.81886884 4.9018276 16.40932186 5 19 C3.68 19.33 2.36 19.66 1 20 C0.70867187 19.11957031 0.41734375 18.23914063 0.1171875 17.33203125 C-2.97415556 8.1298724 -2.97415556 8.1298724 -10 2 C-13.65157762 0.78280746 -15.47733904 0.85652444 -19.1875 1.875 C-22.60735662 4.45889167 -23.54065913 6.38645267 -24.65625 10.45703125 C-25.42304639 16.12958184 -24.42023169 21.09156366 -21 25.6875 C-17.61363744 28.29782114 -14.14798086 30.75763816 -10.625 33.1796875 C-1.56074501 39.4653167 7.36558975 45.72211151 10 57 C10.8701843 64.5830346 8.95358075 71.85274412 4.4921875 78.1171875 C-0.42892644 83.45030168 -5.96366306 86.51960162 -13.18359375 87.37890625 C-21.29075887 87.66945205 -26.93640347 86.71690079 -32.96875 81.19921875 C-37.84332498 76.05494392 -39.60396355 71.63033415 -40.375 64.5625 C-39.89910245 60.04147323 -38.6342762 56.70570964 -36 53 C-31.20844399 49.18631257 -27.29723055 47.62787229 -21.12890625 47.71875 C-16.4633833 48.33511267 -13.12307577 50.69578298 -10.0625 54.25 C-8.63312455 57.94955998 -8.16343015 61.09337666 -9 65 C-11.41205275 68.33430821 -13.15891081 69.68459155 -17 71.125 C-20 71 -20 71 -22.875 68.5625 C-23.57625 67.716875 -24.2775 66.87125 -25 66 C-23.06745228 63.9754262 -21.36841312 62.57894208 -19 61 C-19.495 59.515 -19.495 59.515 -20 58 C-23.35852895 57.14084143 -25.4725476 56.8359037 -28.8125 57.875 C-31.70512253 60.68497617 -31.91508925 62.77411698 -32.1328125 66.71875 C-31.85794521 71.43999998 -29.90851238 74.138078 -26.5625 77.3125 C-22.09762792 80.25278161 -18.33003287 80.36758847 -13 80 C-8.84242447 78.40093249 -6.2877886 76.85311765 -4 73 C-2.37013689 68.11041068 -2.4202 63.77563751 -4 58.9375 C-8.68628615 52.05451722 -15.48558266 47.95140083 -22.44921875 43.6171875 C-29.00137438 39.4631409 -33.40764817 35.17514344 -35.75 27.5625 C-36.6072739 18.77544254 -35.94097743 10.40580441 -30.4375 3.125 C-21.47713413 -6.16641387 -11.0460788 -4.17959738 0 0 Z " fill="#282828" transform="translate(379,251)"/>
<path d="M0 0 C9.70838367 -0.62188935 9.70838367 -0.62188935 14.375 1.625 C25.68510059 11.85794815 29.35520053 26.49696258 33.60968018 40.67919922 C34.4499755 43.47906843 35.30220572 46.27505716 36.15771484 49.0703125 C37.99639271 55.08339743 39.820642 61.10080866 41.64105225 67.1194458 C42.79021032 70.91679367 43.95325604 74.70956832 45.125 78.5 C45.38337646 79.36939209 45.64175293 80.23878418 45.90795898 81.13452148 C47.31418271 85.84716738 47.31418271 85.84716738 51 89 C52.98799818 89.70164642 54.98698517 90.37372872 57 91 C57 91.99 57 92.98 57 94 C45.78 94 34.56 94 23 94 C23 92.68 23 91.36 23 90 C27.95 89.01 27.95 89.01 33 88 C32.72285156 86.83082031 32.44570313 85.66164063 32.16015625 84.45703125 C31.79422599 82.90886477 31.42834307 81.36068709 31.0625 79.8125 C30.88009766 79.04357422 30.69769531 78.27464844 30.50976562 77.48242188 C29.60879887 73.66559908 28.73362003 69.85343574 28 66 C24.89585298 65.97096423 21.79174091 65.9531893 18.6875 65.9375 C17.80642578 65.92912109 16.92535156 65.92074219 16.01757812 65.91210938 C15.17001953 65.90888672 14.32246094 65.90566406 13.44921875 65.90234375 C12.66893311 65.89710693 11.88864746 65.89187012 11.0847168 65.88647461 C8.8038445 65.91862137 8.8038445 65.91862137 6 67 C5.00622799 69.231861 5.00622799 69.231861 4.3515625 71.99609375 C3.92617188 73.54780273 3.92617188 73.54780273 3.4921875 75.13085938 C3.20601563 76.22205078 2.91984375 77.31324219 2.625 78.4375 C-1.15071772 92.76250311 -6.25826494 105.48047251 -19.125 114 C-22.6332576 115.9936484 -26.07596848 117.10074278 -30 118 C-28.72102679 114.16308037 -27.22351314 113.62270135 -23.875 111.4375 C-7.37958618 99.67944953 -3.21717052 77.85724668 2.125 59.4375 C2.73746813 57.34676684 3.35074471 55.25627033 3.96484375 53.16601562 C4.8530135 50.14282878 5.74010088 47.11937119 6.62167358 44.09425354 C8.44832189 37.83142587 10.34543183 31.59913967 12.35449219 25.39208984 C13.32106993 21.81019546 13.23471851 19.4983691 12 16 C8.65816359 10.24090192 4.56369433 6.56076437 -1 3 C-0.67 2.01 -0.34 1.02 0 0 Z M16 30 C15.67 31.32 15.34 32.64 15 34 C15.99 34 16.98 34 18 34 C17.34 32.68 16.68 31.36 16 30 Z M15 36 C14.67 36.99 14.34 37.98 14 39 C15.65 38.67 17.3 38.34 19 38 C18.67 37.34 18.34 36.68 18 36 C17.01 36 16.02 36 15 36 Z M13 41 C13 41.66 13 42.32 13 43 C15.64 43 18.28 43 21 43 C20.34 42.01 19.68 41.02 19 40 C15.94729537 39.84188612 15.94729537 39.84188612 13 41 Z M11 49 C9.31382 51.52927 8.63424909 54.04960914 8 57 C7.67 58.32 7.34 59.64 7 61 C13.27 61 19.54 61 26 61 C24.76991461 53.01229174 24.76991461 53.01229174 21 46 C17.51682237 46 14.00515208 47.35638794 11 49 Z " fill="#262626" transform="translate(278,243)"/>
<path d="M0 0 C4.12459808 3.95017478 5.80433929 8.12197535 6.1328125 13.79296875 C5.84351837 18.60035645 3.97988886 21.87600984 0.875 25.4375 C-3.13948242 27.61928393 -6.52372466 27.68240858 -11 27 C-14.63467079 25.37599816 -15.77408696 24.33886956 -18 21 C-18.265625 18.58984375 -18.265625 18.58984375 -18.25 15.9375 C-18.25515625 15.05964844 -18.2603125 14.18179687 -18.265625 13.27734375 C-18 11 -18 11 -16 9 C-14.68 9 -13.36 9 -12 9 C-12 11.64 -12 14.28 -12 17 C-9.2351335 17.22417836 -7.53722513 17.32233508 -5.125 15.875 C-3.74549192 13.95336931 -3.74549192 13.95336931 -4.0625 11.125 C-5.32682815 6.91057282 -7.24633456 4.26989566 -10.8125 1.6875 C-14.09814004 0.65487027 -16.57629289 0.57954474 -20 1 C-23.34336239 3.76190806 -25.79206415 5.94450298 -26.23828125 10.35546875 C-26.39588525 16.36930571 -26.32359148 21.42082675 -22 26 C-17.74255344 29.53631555 -13.20611263 32.60941715 -8.52734375 35.55859375 C-1.29115995 40.13861403 4.92192624 45.52772506 7.56640625 53.9375 C9.03329807 60.91514755 8.25193991 67.63846099 5 74 C0.32708621 80.95894355 -4.84691161 84.96509695 -13 87 C-18.96464131 87.88365056 -23.87227944 85.8817861 -29.42578125 83.875 C-31.8624555 82.89272485 -31.8624555 82.89272485 -34 83 C-34.66 84.32 -35.32 85.64 -36 87 C-36.99 86.67 -37.98 86.34 -39 86 C-39.02891949 81.70834738 -39.04677118 77.41671964 -39.0625 73.125 C-39.07087891 71.90167969 -39.07925781 70.67835938 -39.08789062 69.41796875 C-39.09111328 68.25136719 -39.09433594 67.08476562 -39.09765625 65.8828125 C-39.10289307 64.80402832 -39.10812988 63.72524414 -39.11352539 62.61376953 C-39 60 -39 60 -38 58 C-37.01 58 -36.02 58 -35 58 C-34.54560547 59.62808594 -34.54560547 59.62808594 -34.08203125 61.2890625 C-33.6596331 62.73460284 -33.23641202 64.17990289 -32.8125 65.625 C-32.61591797 66.33785156 -32.41933594 67.05070312 -32.21679688 67.78515625 C-30.47765462 73.6179718 -28.03690706 78.05975382 -22.75 81.4375 C-18.67283257 82.27146606 -15.01085766 82.14803534 -11 81 C-7.40135645 78.07610212 -5.21866342 75.92922032 -4.69140625 71.27734375 C-4.43507509 64.63603642 -4.56218153 59.56650298 -8.6953125 54.1875 C-13.35904969 49.76090199 -18.89198933 46.50496808 -24.31054688 43.08544922 C-30.27223389 39.25515146 -35.20429199 35.07657711 -37 28 C-37.74023601 20.59763987 -38.50396896 12.22474381 -34.39453125 5.67578125 C-25.35549107 -5.18625863 -12.07717392 -8.82975604 0 0 Z " fill="#222222" transform="translate(179,252)"/>
<path d="M0 0 C3.625 1.5 3.625 1.5 6 3 C6 3.66 6 4.32 6 5 C5.195625 5.721875 4.39125 6.44375 3.5625 7.1875 C0.52145929 10.52522761 0.26045853 12.57220493 0 17 C-1.27875 17.12375 -2.5575 17.2475 -3.875 17.375 C-7.34790936 17.69042399 -7.34790936 17.69042399 -10 20 C-10.40047444 22.32275177 -10.7397104 24.65739357 -11 27 C-12.27875 27.12375 -13.5575 27.2475 -14.875 27.375 C-18.34790936 27.69042399 -18.34790936 27.69042399 -21 30 C-21.71603448 31.72499215 -22.43123699 33.45035272 -23.13671875 35.1796875 C-24.37174545 37.78386145 -26.1068811 39.84576125 -28 42 C-30.91155147 41.05205301 -33.78601915 40.0866113 -36.625 38.9375 C-40.45471069 37.4257721 -42.32750363 36.87991136 -46.5 37.625 C-50.64621552 38.06923738 -50.89614298 37.40298608 -54 35 C-57.87726431 35.23738353 -59.74076883 35.82717922 -63 38 C-63.99 38 -64.98 38 -66 38 C-66.23460937 37.36578125 -66.46921875 36.7315625 -66.7109375 36.078125 C-67.82290908 33.81749261 -67.82290908 33.81749261 -70.1640625 33.171875 C-70.97617188 33.03265625 -71.78828125 32.8934375 -72.625 32.75 C-73.44226563 32.60046875 -74.25953125 32.4509375 -75.1015625 32.296875 C-75.72804687 32.19890625 -76.35453125 32.1009375 -77 32 C-76.09033664 27.18724617 -73.5143324 24.29220755 -70 21 C-65.27377516 18.14643029 -61.72454341 17.60564561 -56.40234375 18.40625 C-52.88252186 19.27618972 -49.64905393 20.64969909 -46.359375 22.16015625 C-43.76349471 23.08418649 -41.73464445 23.15030847 -39 23 C-39.66 21.68 -40.32 20.36 -41 19 C-39.1128125 19.0928125 -39.1128125 19.0928125 -37.1875 19.1875 C-33.83041021 19.23632922 -33.83041021 19.23632922 -31 17.5 C-30.67 17.005 -30.34 16.51 -30 16 C-29.34 17.32 -28.68 18.64 -28 20 C-25.20615924 16.5790972 -22.63910128 13.06729683 -20.125 9.4375 C-14.38705612 1.61111332 -9.76529848 -1.37472649 0 0 Z " fill="#202020" transform="translate(118,254)"/>
<path d="M0 0 C2.64 0 5.28 0 8 0 C9 3 9 3 8 6 C12.74358467 5.54388609 15.27161731 4.85842673 19 2 C21.5 1.875 21.5 1.875 24 2 C25.34332728 1.70955086 26.68225804 1.39044206 28 1 C28 1.66 28 2.32 28 3 C28.66 3.33 29.32 3.66 30 4 C29.48050781 4.23074219 28.96101563 4.46148437 28.42578125 4.69921875 C23.71458958 6.90241929 20.45626853 9.1116979 17 13 C21.36540248 14.1478694 21.36540248 14.1478694 25.4921875 12.671875 C26.67167969 11.72054687 26.67167969 11.72054687 27.875 10.75 C32.16313073 7.49491894 35.88122265 5.61146694 41 4 C41 4.66 41 5.32 41 6 C42.32 6 43.64 6 45 6 C45 6.66 45 7.32 45 8 C46.32 8.66 47.64 9.32 49 10 C47.741875 10.20625 46.48375 10.4125 45.1875 10.625 C39.25253458 11.92710688 34.05867205 14.6757298 29 18 C28.67 18.66 28.34 19.32 28 20 C33.10353669 19.47672599 37.02222473 18.30896191 41.625 16.0625 C45.38111496 14.24689574 49.1052646 12.49853202 53 11 C53.495 11.99 53.495 11.99 54 13 C54.99 13.66 55.98 14.32 57 15 C56.38511719 15.23460937 55.77023437 15.46921875 55.13671875 15.7109375 C51.17347445 18.10192583 50.27943751 22.73934886 49 27 C48.76828705 28.49380901 48.57535481 29.99462553 48.4375 31.5 C48.293125 32.655 48.14875 33.81 48 35 C44.92189261 37.05207159 43.06669769 37.51788837 39.5 38.25 C25.84803803 41.5520991 12.25203742 50.57410204 4 62 C2.82602446 63.97766488 1.90181905 65.87807283 1 68 C-0.61949011 65.42786866 -1.04408751 64.32330841 -0.625 61.25 C-0.41875 60.5075 -0.2125 59.765 0 59 C-0.66 59 -1.32 59 -2 59 C-2.16682272 54.07872966 -2.24828052 50.49656104 0 46 C-0.66 46 -1.32 46 -2 46 C-1.9278125 45.22914063 -1.855625 44.45828125 -1.78125 43.6640625 C-1.6884375 42.66117188 -1.595625 41.65828125 -1.5 40.625 C-1.4071875 39.62726563 -1.314375 38.62953125 -1.21875 37.6015625 C-0.97207053 35.10296264 -0.97207053 35.10296264 -1 33 C-1.33 33 -1.66 33 -2 33 C-2 23.1 -2 13.2 -2 3 C-1.34 3 -0.68 3 0 3 C0 2.01 0 1.02 0 0 Z M1 1 C1.33 1.66 1.66 2.32 2 3 C3.32 2.67 4.64 2.34 6 2 C6 1.67 6 1.34 6 1 C4.35 1 2.7 1 1 1 Z M-1 4 C-0.67 5.32 -0.34 6.64 0 8 C0.33 7.01 0.66 6.02 1 5 C0.34 4.67 -0.32 4.34 -1 4 Z M1.375 9.4375 C-0.61496188 13.14606533 -0.74261613 16.84635683 -1 21 C2.26008643 17.83047153 5.22237877 14.60062011 8 11 C7.34 10.01 6.68 9.02 6 8 C3.01290339 7.66871306 3.01290339 7.66871306 1.375 9.4375 Z M14 14 C12.84545838 15.24196122 11.70167438 16.49392845 10.5625 17.75 C9.92441406 18.44609375 9.28632813 19.1421875 8.62890625 19.859375 C7.00918675 21.98792725 6.41732744 23.39023405 6 26 C9.59634744 22.50640535 12.83451967 18.88901869 16 15 C15.34 14.67 14.68 14.34 14 14 Z M39.8125 20 C38.18248047 20.8353125 38.18248047 20.8353125 36.51953125 21.6875 C35.68808594 22.120625 34.85664062 22.55375 34 23 C36.42396221 25.55266817 38.64828689 27.57984679 41.75 29.25 C42.8225 29.8275 43.895 30.405 45 31 C46.32 26.38 47.64 21.76 49 17 C45.21286807 17 43.16645599 18.26892594 39.8125 20 Z M5 18 C6 20 6 20 6 20 Z M18.39453125 21.0390625 C9.07434821 30.38225833 -0.04863065 43.6808291 -1 57 C2.00945394 54.19291714 4.09950229 51.41170724 6.1875 47.875 C12.03859252 38.50576657 19.60736237 31.10298882 28 24 C26.25065102 21.91666921 26.25065102 21.91666921 24 20 C20.24094762 19.63777602 20.24094762 19.63777602 18.39453125 21.0390625 Z M3 21 C4 23 4 23 4 23 Z M2 23 C2 26 2 26 2 26 Z M0 26 C1 28 1 28 1 28 Z M25.125 29.0625 C24.09052734 30.03316406 24.09052734 30.03316406 23.03515625 31.0234375 C22.36355469 31.67570312 21.69195312 32.32796875 21 33 C20.13181641 33.79277344 20.13181641 33.79277344 19.24609375 34.6015625 C13.60530457 39.91515974 5.17035618 48.09065741 4 56 C4.94875 55.154375 5.8975 54.30875 6.875 53.4375 C17.22976802 44.63284695 29.41316756 36.44562984 43 34 C38.13152614 28.41899448 38.13152614 28.41899448 31.6171875 25.734375 C28.42740338 26.05811428 27.43281548 26.8839605 25.125 29.0625 Z M4 33 C5 35 5 35 5 35 Z M2 36 C3 38 3 38 3 38 Z M1 38 C2 40 2 40 2 40 Z M2 57 C3 59 3 59 3 59 Z " fill="#898989" transform="translate(481,122)"/>
<path d="M0 0 C-0.66 1.65 -1.32 3.3 -2 5 C-2.66 5 -3.32 5 -4 5 C-7.84910238 12.45437021 -11.45318465 19.63031119 -9 28 C-6.17095445 31.61489153 -3.49208229 33.90437017 1 35 C4.8800701 34.68959439 6.72953875 34.1803075 10 32 C11.14790085 29.4392981 11.06044886 28.21981403 10.3125 25.5 C8.88780642 22.78629795 7.26787031 21.04108328 5 19 C6 18 6 18 9.1875 17.6875 C13.65937381 18.05404703 15.58789034 19.14335005 19 22 C21.74946127 25.49931434 21.48814966 29.74269477 21 34 C19.17253981 40.51032691 15.44934568 44.25609769 10 48 C4.11447601 50.52236743 -1.1659853 50.37030525 -7.109375 48.24609375 C-12.04615056 46.02825661 -14.93753062 43.45450092 -18 39 C-18.35858516 37.67323492 -18.7018576 36.34164079 -19 35 C-19.99 34.67 -20.98 34.34 -22 34 C-23.34055583 27.84009058 -24.54765568 21.37575904 -21.8359375 15.4609375 C-16.79014641 7.72405783 -10.018527 -0.95414543 0 0 Z " fill="#222222" transform="translate(429,250)"/>
<path d="M0 0 C0.66 0 1.32 0 2 0 C2.99 2.31 3.98 4.62 5 7 C5.66 7 6.32 7 7 7 C7.68359375 8.66015625 8.3671875 10.3203125 9.05078125 11.98046875 C9.98430562 14.10632504 9.98430562 14.10632504 11.546875 16.26171875 C13.35639052 19.67158537 13.63062626 22.84964545 13.9375 26.625 C14.97504216 36.46031582 16.92930549 46.4390659 25 53 C30.62363691 56.42411719 35.69031414 56.21227761 42 55 C41.505 55.99 41.505 55.99 41 57 C38.0170339 57.59772099 35.03669195 57.74337815 32 58 C35.3 58.33 38.6 58.66 42 59 C42 59.33 42 59.66 42 60 C30.77006438 60.53264517 22.85228284 60.10812503 13.875 52.875 C2.43824011 42.12171182 -1.56513695 29.11139089 -2.05078125 13.76953125 C-1.98632783 8.98510431 -1.33458747 4.58833379 0 0 Z " fill="#303030" transform="translate(403,278)"/>
<path d="M0 0 C3.01116298 2.01640378 5.4885559 4.39945811 8 7 C8.57105469 7.57105469 9.14210938 8.14210938 9.73046875 8.73046875 C10.14941406 9.14941406 10.56835938 9.56835938 11 10 C11.33 9.34 11.66 8.68 12 8 C14.64 8.66 17.28 9.32 20 10 C20 10.66 20 11.32 20 12 C23.08861549 11.06623253 25.65861599 10.23989146 28.3125 8.375 C32.19896325 6.38657694 35.71777604 6.28758661 40 7 C43.0625 8.8125 43.0625 8.8125 45 11 C45 11.99 45 12.98 45 14 C41.80725587 16.46712047 39.00640711 18.3538053 35 19 C32.36195411 19.39397335 32.36195411 19.39397335 30 20 C29.67 20.66 29.34 21.32 29 22 C28.01 21.731875 27.02 21.46375 26 21.1875 C22.40223642 20.6182798 20.76540671 21.51263981 17.8125 23.5625 C17.17957031 24.05878906 16.54664063 24.55507813 15.89453125 25.06640625 C14 26 14 26 11.87109375 25.27734375 C9.668724 23.77384707 8.40963611 22.25541778 7 20 C7 19.34 7 18.68 7 18 C6.2575 17.9175 5.515 17.835 4.75 17.75 C2 17 2 17 0.0625 15 C-1.90335072 12.70027636 -1.90335072 12.70027636 -5.125 12.5625 C-6.07375 12.376875 -7.0225 12.19125 -8 12 C-9.1875 9.5625 -9.1875 9.5625 -10 7 C-10.99 6.34 -11.98 5.68 -13 5 C-13 4.34 -13 3.68 -13 3 C-9.09233748 -0.1749758 -4.88487862 -1.28407655 0 0 Z " fill="#2B2B2B" transform="translate(569,296)"/>
<path d="M0 0 C2.64 0 5.28 0 8 0 C9 3 9 3 8 6 C12.74358467 5.54388609 15.27161731 4.85842673 19 2 C21.5 1.875 21.5 1.875 24 2 C25.34332728 1.70955086 26.68225804 1.39044206 28 1 C28 1.66 28 2.32 28 3 C28.66 3.33 29.32 3.66 30 4 C29.48050781 4.23074219 28.96101563 4.46148437 28.42578125 4.69921875 C23.71458958 6.90241929 20.45626853 9.1116979 17 13 C19.97 13.33 22.94 13.66 26 14 C25.34 15.32 24.68 16.64 24 18 C24.66 18 25.32 18 26 18 C26 18.66 26 19.32 26 20 C24.515 20.2165625 24.515 20.2165625 23 20.4375 C13.53729437 23.24970971 8.49240052 34.74843676 3.8828125 42.7421875 C2.65445295 44.8676063 1.36170394 46.95744409 0 49 C0 48.01 0 47.02 0 46 C-0.66 46 -1.32 46 -2 46 C-1.9278125 45.22914063 -1.855625 44.45828125 -1.78125 43.6640625 C-1.6884375 42.66117188 -1.595625 41.65828125 -1.5 40.625 C-1.4071875 39.62726563 -1.314375 38.62953125 -1.21875 37.6015625 C-0.97207053 35.10296264 -0.97207053 35.10296264 -1 33 C-1.33 33 -1.66 33 -2 33 C-2 23.1 -2 13.2 -2 3 C-1.34 3 -0.68 3 0 3 C0 2.01 0 1.02 0 0 Z M1 1 C1.33 1.66 1.66 2.32 2 3 C3.32 2.67 4.64 2.34 6 2 C6 1.67 6 1.34 6 1 C4.35 1 2.7 1 1 1 Z M-1 4 C-0.67 5.32 -0.34 6.64 0 8 C0.33 7.01 0.66 6.02 1 5 C0.34 4.67 -0.32 4.34 -1 4 Z M1.375 9.4375 C-0.61496188 13.14606533 -0.74261613 16.84635683 -1 21 C2.26008643 17.83047153 5.22237877 14.60062011 8 11 C7.34 10.01 6.68 9.02 6 8 C3.01290339 7.66871306 3.01290339 7.66871306 1.375 9.4375 Z M14 14 C12.84545838 15.24196122 11.70167438 16.49392845 10.5625 17.75 C9.92441406 18.44609375 9.28632813 19.1421875 8.62890625 19.859375 C7.00918675 21.98792725 6.41732744 23.39023405 6 26 C9.59634744 22.50640535 12.83451967 18.88901869 16 15 C15.34 14.67 14.68 14.34 14 14 Z M5 18 C6 20 6 20 6 20 Z M3 21 C4 23 4 23 4 23 Z M2 23 C2 26 2 26 2 26 Z M0 26 C1 28 1 28 1 28 Z M4 33 C5 35 5 35 5 35 Z M2 36 C3 38 3 38 3 38 Z M1 38 C2 40 2 40 2 40 Z " fill="#646464" transform="translate(481,122)"/>
<path d="M0 0 C0.33 0 0.66 0 1 0 C1.33 4.95 1.66 9.9 2 15 C2.66 15 3.32 15 4 15 C4 11.7 4 8.4 4 5 C4.66 5.33 5.32 5.66 6 6 C5.93825655 13.32070585 5.86078114 20.6410773 5.76428509 27.96141243 C5.71992901 31.36210803 5.68060144 34.76269334 5.65356445 38.16357422 C5.61966915 42.09110202 5.56733679 46.01803915 5.51171875 49.9453125 C5.50213387 51.73994431 5.50213387 51.73994431 5.49235535 53.5708313 C5.2979286 64.9662862 3.69055606 76.23118437 -1.75 86.375 C-2.09998047 87.04708496 -2.44996094 87.71916992 -2.81054688 88.41162109 C-7.21803654 96.61489187 -12.97528762 103.12982973 -21 108 C-21.66 108 -22.32 108 -23 108 C-22.42755194 104.60200705 -21.44312362 103.18892676 -18.875 100.9375 C-3.40926938 86.04339802 -0.87832961 64.90308069 -0.48828125 44.53125 C-0.41643331 39.87129704 -0.36707922 35.21152922 -0.33044434 30.5512085 C-0.30023343 27.09781383 -0.25384717 23.64463615 -0.20898438 20.19140625 C-0.12472881 13.46103962 -0.0561145 6.73065704 0 0 Z " fill="#555555" transform="translate(493,258)"/>
<path d="M0 0 C4.54261824 3.32115867 6.86148456 7.24679306 7.7578125 12.78515625 C8.08639117 18.4579703 6.35869951 22.44884468 2.6328125 26.72265625 C-1.38166992 28.90444018 -4.76591216 28.96756483 -9.2421875 28.28515625 C-12.87685829 26.66115441 -14.01627446 25.62402581 -16.2421875 22.28515625 C-16.5078125 19.875 -16.5078125 19.875 -16.4921875 17.22265625 C-16.49992188 15.90587891 -16.49992188 15.90587891 -16.5078125 14.5625 C-16.2421875 12.28515625 -16.2421875 12.28515625 -14.2421875 10.28515625 C-12.9221875 10.28515625 -11.6021875 10.28515625 -10.2421875 10.28515625 C-10.2421875 12.92515625 -10.2421875 15.56515625 -10.2421875 18.28515625 C-7.477321 18.50933461 -5.77941263 18.60749133 -3.3671875 17.16015625 C-1.98767942 15.23852556 -1.98767942 15.23852556 -2.3046875 12.41015625 C-3.54581491 8.27306488 -5.35817126 5.44516625 -9.08203125 3.15234375 C-11.55130737 2.16106111 -13.34336153 2.0822496 -15.9921875 2.16015625 C-17.19101563 2.18722656 -17.19101563 2.18722656 -18.4140625 2.21484375 C-19.31898438 2.24964844 -19.31898438 2.24964844 -20.2421875 2.28515625 C-19.9121875 1.29515625 -19.5821875 0.30515625 -19.2421875 -0.71484375 C-20.5621875 -1.04484375 -21.8821875 -1.37484375 -23.2421875 -1.71484375 C-15.31105179 -4.64591564 -7.44418888 -4.2043091 0 0 Z " fill="#333333" transform="translate(177.2421875,250.71484375)"/>
<path d="M0 0 C1.0703125 3.734375 1.0703125 3.734375 0.4375 6.125 C0.293125 6.74375 0.14875 7.3625 0 8 C0.66 8.66 1.32 9.32 2 10 C1.67 12.31 1.34 14.62 1 17 C6.94 17.33 12.88 17.66 19 18 C19.495 16.515 19.495 16.515 20 15 C20 16.32 20 17.64 20 19 C11.585 19.495 11.585 19.495 3 20 C6.56086658 21.18695553 9.97331024 21.35095418 13.6875 21.5625 C14.38939453 21.60568359 15.09128906 21.64886719 15.81445312 21.69335938 C17.54275206 21.7991736 19.2713511 21.90006581 21 22 C21 22.33 21 22.66 21 23 C20.44014404 22.99476318 19.88028809 22.98952637 19.3034668 22.98413086 C16.76482263 22.96333309 14.22619641 22.95033096 11.6875 22.9375 C10.80642578 22.92912109 9.92535156 22.92074219 9.01757812 22.91210938 C8.17001953 22.90888672 7.32246094 22.90566406 6.44921875 22.90234375 C5.66893311 22.89710693 4.88864746 22.89187012 4.0847168 22.88647461 C1.8038445 22.91862137 1.8038445 22.91862137 -1 24 C-1.99377201 26.231861 -1.99377201 26.231861 -2.6484375 28.99609375 C-3.07382812 30.54780273 -3.07382812 30.54780273 -3.5078125 32.13085938 C-3.79398437 33.22205078 -4.08015625 34.31324219 -4.375 35.4375 C-8.15071772 49.76250311 -13.25826494 62.48047251 -26.125 71 C-29.6332576 72.9936484 -33.07596848 74.10074278 -37 75 C-35.72102679 71.16308037 -34.22351314 70.62270135 -30.875 68.4375 C-15.08325947 57.18103295 -10.78086691 36.81446602 -5.625 19.125 C-5.07499954 17.26148813 -4.5242232 15.39820507 -3.97265625 13.53515625 C-2.63949996 9.02601892 -1.3168049 4.51393819 0 0 Z " fill="#5B5B5B" transform="translate(285,286)"/>
<path d="M0 0 C17.82 0 35.64 0 54 0 C57 20 57 20 55 24 C54.01 23.67 53.02 23.34 52 23 C50.68831929 19.48721125 49.6939476 15.92719191 48.671875 12.3203125 C46.92439813 8.84985611 45.78680693 7.7141313 42.11767578 6.46191406 C37.96010896 5.55505259 33.80410044 5.42020437 29.5625 5.3125 C26.406875 5.209375 23.25125 5.10625 20 5 C19.67 16.22 19.34 27.44 19 39 C18.67 39 18.34 39 18 39 C17.95055934 34.35524041 17.91426137 29.71063404 17.89013672 25.06567383 C17.88007959 23.48556856 17.86643215 21.9054819 17.84912109 20.32543945 C17.82485978 18.0541525 17.81351418 15.78311164 17.8046875 13.51171875 C17.79436493 12.80536789 17.78404236 12.09901703 17.77340698 11.3712616 C17.77256225 7.67802208 17.89279477 6.16080784 20 3 C20.99 2.67 21.98 2.34 23 2 C15.74 1.67 8.48 1.34 1 1 C1 1.66 1 2.32 1 3 C2.65 3 4.3 3 6 3 C6 3.33 6 3.66 6 4 C4.02 4 2.04 4 0 4 C0 2.68 0 1.36 0 0 Z " fill="#585858" transform="translate(199,249)"/>
<path d="M0 0 C0.99 0.33 1.98 0.66 3 1 C3.02887236 4.81248426 3.04675492 8.6249407 3.0625 12.4375 C3.07087891 13.52611328 3.07925781 14.61472656 3.08789062 15.73632812 C3.09111328 16.77080078 3.09433594 17.80527344 3.09765625 18.87109375 C3.10289307 19.82943115 3.10812988 20.78776855 3.11352539 21.77514648 C3 24 3 24 2 25 C0.23083613 25.0989348 -1.54228152 25.1279909 -3.31420898 25.12939453 C-4.44886093 25.13254669 -5.58351288 25.13569885 -6.75254822 25.13894653 C-8.60560326 25.13591019 -8.60560326 25.13591019 -10.49609375 25.1328125 C-11.75511002 25.13376923 -13.01412628 25.13472595 -14.31129456 25.13571167 C-16.98043211 25.1363938 -19.64947886 25.13503508 -22.31860352 25.13037109 C-25.7430688 25.12467957 -29.16745561 25.12794924 -32.59191799 25.13394356 C-35.85164607 25.13842327 -39.11136464 25.13528769 -42.37109375 25.1328125 C-43.60443954 25.13483673 -44.83778534 25.13686096 -46.10850525 25.13894653 C-47.24630936 25.13579437 -48.38411346 25.13264221 -49.55639648 25.12939453 C-50.56153793 25.12859894 -51.56667938 25.12780334 -52.60227966 25.12698364 C-55 25 -55 25 -57 24 C-56.67 23.34 -56.34 22.68 -56 22 C-55.34 22.33 -54.68 22.66 -54 23 C-52.40552536 23.08400529 -50.80759455 23.10727467 -49.2109375 23.09765625 C-47.79941406 23.09282227 -47.79941406 23.09282227 -46.359375 23.08789062 C-45.37453125 23.07951172 -44.3896875 23.07113281 -43.375 23.0625 C-42.38242188 23.05798828 -41.38984375 23.05347656 -40.3671875 23.04882812 C-37.9113984 23.03702145 -35.45572896 23.020554 -33 23 C-33.99 22.67 -34.98 22.34 -36 22 C-36 21.34 -36 20.68 -36 20 C-35.17274414 19.96036133 -34.34548828 19.92072266 -33.49316406 19.87988281 C-29.74416294 19.68932701 -25.99738348 19.47000294 -22.25 19.25 C-20.94804687 19.188125 -19.64609375 19.12625 -18.3046875 19.0625 C-16.42910156 18.94648438 -16.42910156 18.94648438 -14.515625 18.828125 C-13.36352539 18.7652832 -12.21142578 18.70244141 -11.02441406 18.63769531 C-7.43950699 17.88182049 -6.21423817 16.87233992 -4 14 C-2.91608498 10.78517475 -2.91608498 10.78517475 -2.3125 7.3125 C-1.06944444 1.06944444 -1.06944444 1.06944444 0 0 Z " fill="#606060" transform="translate(254,313)"/>
<path d="M0 0 C1.859375 0.16796875 1.859375 0.16796875 4 1 C5.203125 3.36328125 5.203125 3.36328125 6.25 6.3125 C7.9873182 10.50602668 9.17732952 12.68919892 13.3125 14.6875 C14.529375 15.120625 15.74625 15.55375 17 16 C16.67 16.99 16.34 17.98 16 19 C14.35 19.33 12.7 19.66 11 20 C10.90912109 21.58941406 10.90912109 21.58941406 10.81640625 23.2109375 C10.73199873 24.59897221 10.64735083 25.98699232 10.5625 27.375 C10.52318359 28.07367188 10.48386719 28.77234375 10.44335938 29.4921875 C10.11328125 34.7734375 10.11328125 34.7734375 9 37 C8.34 37 7.68 37 7 37 C6.67386719 36.16855469 6.34773438 35.33710938 6.01171875 34.48046875 C5.57472656 33.39378906 5.13773438 32.30710938 4.6875 31.1875 C4.04361328 29.56908203 4.04361328 29.56908203 3.38671875 27.91796875 C2.13157992 25.27687381 1.30581581 23.74112622 -1 22 C-4.10839021 21.2730774 -4.10839021 21.2730774 -7 21 C-6 18 -6 18 -4 16.9375 C-3.01 16.4734375 -3.01 16.4734375 -2 16 C-0.5192152 13.0384304 -0.64685963 10.16493705 -0.4375 6.875 C-0.35371094 5.59367188 -0.26992188 4.31234375 -0.18359375 2.9921875 C-0.09271484 1.51105469 -0.09271484 1.51105469 0 0 Z " fill="#3B3B3B" transform="translate(62,153)"/>
<path d="M0 0 C0.99 0 1.98 0 3 0 C3.30292969 1.08539063 3.60585937 2.17078125 3.91796875 3.2890625 C4.3403669 4.73460284 4.76358798 6.17990289 5.1875 7.625 C5.38408203 8.33785156 5.58066406 9.05070312 5.78320312 9.78515625 C7.55206218 15.71763739 9.865638 20.21036428 15.44921875 23.3984375 C18.43420111 24.10239965 20.77275473 23.99123437 23.8125 23.625 C24.78832031 23.51414062 25.76414063 23.40328125 26.76953125 23.2890625 C27.87361328 23.14597656 27.87361328 23.14597656 29 23 C29 23.66 29 24.32 29 25 C29.66 25.66 30.32 26.32 31 27 C22.62898293 30.26673837 16.77429809 28.83814034 8.57421875 25.875 C6.1375445 24.89272485 6.1375445 24.89272485 4 25 C3.34 26.32 2.68 27.64 2 29 C1.01 28.67 0.02 28.34 -1 28 C-1.02891949 23.70834738 -1.04677118 19.41671964 -1.0625 15.125 C-1.07087891 13.90167969 -1.07925781 12.67835938 -1.08789062 11.41796875 C-1.09111328 10.25136719 -1.09433594 9.08476562 -1.09765625 7.8828125 C-1.10289307 6.80402832 -1.10812988 5.72524414 -1.11352539 4.61376953 C-1 2 -1 2 0 0 Z " fill="#474747" transform="translate(141,310)"/>
<path d="M0 0 C0.99 0.33 1.98 0.66 3 1 C3 12.88 3 24.76 3 37 C1.68 37 0.36 37 -1 37 C-1.17015625 36.16855469 -1.3403125 35.33710938 -1.515625 34.48046875 C-1.75796875 33.39378906 -2.0003125 32.30710937 -2.25 31.1875 C-2.48203125 30.10855469 -2.7140625 29.02960938 -2.953125 27.91796875 C-4.13531069 24.62284669 -4.9738857 23.66767613 -8 22 C-9.97874894 21.30249799 -9.97874894 21.30249799 -12 20.9375 C-14.91474532 20.28073243 -17.45151626 19.6310296 -20 18 C-20.33 17.34 -20.66 16.68 -21 16 C-19.845 16.04125 -18.69 16.0825 -17.5 16.125 C-12.99038694 16.10895155 -9.27602162 15.47449022 -5 14 C-3.21710628 11.25662481 -2.56396379 8.49746295 -1.9375 5.3125 C-1.10408163 1.10408163 -1.10408163 1.10408163 0 0 Z " fill="#464646" transform="translate(239,272)"/>
<path d="M0 0 C1.65 1.32 3.3 2.64 5 4 C4.38511719 4.23460937 3.77023437 4.46921875 3.13671875 4.7109375 C-0.82652555 7.10192583 -1.72056249 11.73934886 -3 16 C-3.23171295 17.49380901 -3.42464519 18.99462553 -3.5625 20.5 C-3.706875 21.655 -3.85125 22.81 -4 24 C-7.40431947 26.26954631 -9.16524202 26.36549949 -13.1875 26.625 C-14.27417969 26.69976562 -15.36085938 26.77453125 -16.48046875 26.8515625 C-17.72763672 26.92503906 -17.72763672 26.92503906 -19 27 C-16.42595029 23.13892543 -14.38979741 23.05680308 -10 22 C-11.41005725 20.84604289 -12.82833458 19.70212534 -14.25 18.5625 C-15.03890625 17.92441406 -15.8278125 17.28632813 -16.640625 16.62890625 C-18.86247492 15.09494695 -20.36743482 14.42869754 -23 14 C-23.33 12.68 -23.66 11.36 -24 10 C-22.741875 9.608125 -21.48375 9.21625 -20.1875 8.8125 C-13.19608111 6.48940195 -6.56649624 3.32151442 0 0 Z M-12.1875 9 C-13.81751953 9.8353125 -13.81751953 9.8353125 -15.48046875 10.6875 C-16.31191406 11.120625 -17.14335938 11.55375 -18 12 C-15.57603779 14.55266817 -13.35171311 16.57984679 -10.25 18.25 C-9.1775 18.8275 -8.105 19.405 -7 20 C-5.68 15.38 -4.36 10.76 -3 6 C-6.78713193 6 -8.83354401 7.26892594 -12.1875 9 Z " fill="#4F4F4F" transform="translate(533,133)"/>
<path d="M0 0 C0.99 0.33 1.98 0.66 3 1 C3.08636719 1.67546875 3.17273438 2.3509375 3.26171875 3.046875 C4.09115915 8.91932424 4.09115915 8.91932424 7.625 13.5 C8.40875 13.995 9.1925 14.49 10 15 C10 15.66 10 16.32 10 17 C9.071875 17.309375 8.14375 17.61875 7.1875 17.9375 C3.1871654 20.5259518 2.81813489 22.46772688 1.73828125 26.94140625 C1 29 1 29 -2 31 C-2.15855469 30.09636719 -2.31710937 29.19273437 -2.48046875 28.26171875 C-2.71378906 27.08222656 -2.94710938 25.90273437 -3.1875 24.6875 C-3.40792969 23.51574219 -3.62835938 22.34398437 -3.85546875 21.13671875 C-4.73655225 17.82173613 -4.73655225 17.82173613 -7.61328125 16.08203125 C-8.40089844 15.72496094 -9.18851562 15.36789063 -10 15 C-8.6875 13.5 -8.6875 13.5 -7 12 C-6.01 12 -5.02 12 -4 12 C-3.79503906 11.21753906 -3.59007812 10.43507812 -3.37890625 9.62890625 C-3.10949219 8.61699219 -2.84007812 7.60507813 -2.5625 6.5625 C-2.29566406 5.55316406 -2.02882813 4.54382813 -1.75390625 3.50390625 C-1 1 -1 1 0 0 Z " fill="#424242" transform="translate(275,126)"/>
<path d="M0 0 C1.44439453 0.29777344 1.44439453 0.29777344 2.91796875 0.6015625 C5.89168474 1.31388119 8.76437253 2.16760042 11.625 3.25 C11.625 2.26 11.625 1.27 11.625 0.25 C12.615 -0.08 13.605 -0.41 14.625 -0.75 C16.27579442 0.90079442 15.85049447 2.88736179 15.94140625 5.16015625 C15.98330078 6.14951172 16.02519531 7.13886719 16.06835938 8.15820312 C16.10767578 9.19912109 16.14699219 10.24003906 16.1875 11.3125 C16.23068359 12.35728516 16.27386719 13.40207031 16.31835938 14.47851562 C16.42481225 17.06886884 16.5268276 19.65932186 16.625 22.25 C15.305 22.58 13.985 22.91 12.625 23.25 C12.33367187 22.36957031 12.04234375 21.48914063 11.7421875 20.58203125 C8.56805787 11.47273275 8.56805787 11.47273275 1.625 5.25 C0.635 4.59 -0.355 3.93 -1.375 3.25 C-0.715 3.25 -0.055 3.25 0.625 3.25 C0.625 2.59 0.625 1.93 0.625 1.25 C-2.675 1.25 -5.975 1.25 -9.375 1.25 C-5.10053736 -0.88723132 -4.4054591 -0.9131764 0 0 Z " fill="#434343" transform="translate(367.375,247.75)"/>
<path d="M0 0 C2 1 2 1 3 3 C2.27296875 3.32871094 1.5459375 3.65742188 0.796875 3.99609375 C-12.10567397 10.09999192 -25.21544327 18.38927829 -31 32 C-32.61949011 29.42786866 -33.04408751 28.32330841 -32.625 25.25 C-32.41875 24.5075 -32.2125 23.765 -32 23 C-32.66 23 -33.32 23 -34 23 C-34.1953125 16.9453125 -34.1953125 16.9453125 -34 15 C-33.34 14.34 -32.68 13.68 -32 13 C-32 15.31 -32 17.62 -32 20 C-28.535 14.555 -28.535 14.555 -25 9 C-24.01 10.485 -24.01 10.485 -23 12 C-24.32 14.31 -25.64 16.62 -27 19 C-26.42894531 18.443125 -25.85789062 17.88625 -25.26953125 17.3125 C-18.66712992 11.09847522 -11.86328338 6.44307476 -4 2 C-3.25492187 1.57589844 -2.50984375 1.15179688 -1.7421875 0.71484375 C-0.87980469 0.36099609 -0.87980469 0.36099609 0 0 Z M-30 21 C-29 23 -29 23 -29 23 Z " fill="#6E6E6E" transform="translate(513,158)"/>
<path d="M0 0 C2.64 0 5.28 0 8 0 C9.25541557 3.76624671 8.37061958 5.37188934 7 9 C7.66 9 8.32 9 9 9 C10.35432675 10.31200404 11.68733482 11.64631404 13 13 C13.66 13.33 14.32 13.66 15 14 C14.27683594 14.76183594 14.27683594 14.76183594 13.5390625 15.5390625 C9.90293471 19.50169972 7.21237017 22.61168811 6 28 C5.34 28 4.68 28 4 28 C3 26 2 24 1 22 C0.01 22.33 -0.98 22.66 -2 23 C-2 16.4 -2 9.8 -2 3 C-1.34 3 -0.68 3 0 3 C0 2.01 0 1.02 0 0 Z M1 1 C1.33 1.66 1.66 2.32 2 3 C3.32 2.67 4.64 2.34 6 2 C6 1.67 6 1.34 6 1 C4.35 1 2.7 1 1 1 Z M-1 4 C-0.67 5.32 -0.34 6.64 0 8 C0.33 7.01 0.66 6.02 1 5 C0.34 4.67 -0.32 4.34 -1 4 Z M1.375 9.4375 C-0.61496188 13.14606533 -0.74261613 16.84635683 -1 21 C2.26008643 17.83047153 5.22237877 14.60062011 8 11 C7.34 10.01 6.68 9.02 6 8 C3.01290339 7.66871306 3.01290339 7.66871306 1.375 9.4375 Z M5 18 C6 20 6 20 6 20 Z M3 21 C4 23 4 23 4 23 Z " fill="#797979" transform="translate(481,122)"/>
<path d="M0 0 C0.66 0 1.32 0 2 0 C2.22042969 1.04800781 2.22042969 1.04800781 2.4453125 2.1171875 C3.12586437 4.87850714 3.82771194 7.40636635 5 10 C8.01773585 11.76097486 8.01773585 11.76097486 11 12 C11 12.66 11 13.32 11 14 C9.35 14.66 7.7 15.32 6 16 C5.67 19.3 5.34 22.6 5 26 C4.01 26.33 3.02 26.66 2 27 C1.84144531 26.37351563 1.68289063 25.74703125 1.51953125 25.1015625 C0.2094023 19.84375314 0.2094023 19.84375314 -3.6875 16.4375 C-4.8321875 16.2209375 -4.8321875 16.2209375 -6 16 C-6 15.01 -6 14.02 -6 13 C-5.38125 12.46375 -4.7625 11.9275 -4.125 11.375 C-1.09306111 7.98636241 -0.71447818 4.39968142 0 0 Z " fill="#404040" transform="translate(365,206)"/>
<path d="M0 0 C0.33 0 0.66 0 1 0 C1.02914348 4.20831868 1.04684712 8.41661122 1.0625 12.625 C1.07087891 13.81480469 1.07925781 15.00460937 1.08789062 16.23046875 C1.09272461 17.96103516 1.09272461 17.96103516 1.09765625 19.7265625 C1.10551147 21.31331787 1.10551147 21.31331787 1.11352539 22.93212891 C0.99875578 26.03362346 0.57696282 28.95347657 0 32 C-1.98 31.34 -3.96 30.68 -6 30 C-5.79375 30.78375 -5.5875 31.5675 -5.375 32.375 C-5.25125 33.24125 -5.1275 34.1075 -5 35 C-5.66 35.66 -6.32 36.32 -7 37 C-7 36.01 -7 35.02 -7 34 C-7.78375 34.20625 -8.5675 34.4125 -9.375 34.625 C-10.24125 34.74875 -11.1075 34.8725 -12 35 C-12.66 34.34 -13.32 33.68 -14 33 C-12.68 32.34 -11.36 31.68 -10 31 C-11.98 30.67 -13.96 30.34 -16 30 C-16 29.34 -16 28.68 -16 28 C-17.32 27.34 -18.64 26.68 -20 26 C-19.67 25.34 -19.34 24.68 -19 24 C-17.515 24.99 -17.515 24.99 -16 26 C-13.59927045 23.11912454 -11.52708963 20.43595166 -10 17 C-9.34 17 -8.68 17 -8 17 C-7.38125 18.423125 -7.38125 18.423125 -6.75 19.875 C-5.1697355 23.38336811 -5.1697355 23.38336811 -1 25 C-0.67 16.75 -0.34 8.5 0 0 Z M-10 23 C-11.69088222 24.97956942 -13.35830472 26.97945196 -15 29 C-13.02 28.67 -11.04 28.34 -9 28 C-9 26.35 -9 24.7 -9 23 C-9.33 23 -9.66 23 -10 23 Z " fill="#666666" transform="translate(539,254)"/>
<path d="M0 0 C1.65 0.66 3.3 1.32 5 2 C2.55595084 10.83716723 -4.17648797 17.61962067 -12.0703125 22.10546875 C-14.9944046 23.46096893 -17.85999666 24.2804159 -21 25 C-19.72102679 21.16308037 -18.22351314 20.62270135 -14.875 18.4375 C-7.92706548 13.54955127 -3.64494695 7.60381277 0 0 Z " fill="#464646" transform="translate(269,336)"/>
<path d="M0 0 C1.0703125 3.734375 1.0703125 3.734375 0.4375 6.125 C0.293125 6.74375 0.14875 7.3625 0 8 C0.66 8.66 1.32 9.32 2 10 C1.67 12.31 1.34 14.62 1 17 C6.94 17.33 12.88 17.66 19 18 C19.33 17.01 19.66 16.02 20 15 C20 16.32 20 17.64 20 19 C11.585 19.495 11.585 19.495 3 20 C6.56086658 21.18695553 9.97331024 21.35095418 13.6875 21.5625 C14.38939453 21.60568359 15.09128906 21.64886719 15.81445312 21.69335938 C17.54275206 21.7991736 19.2713511 21.90006581 21 22 C21 22.33 21 22.66 21 23 C20.44014404 22.99476318 19.88028809 22.98952637 19.3034668 22.98413086 C16.76482263 22.96333309 14.22619641 22.95033096 11.6875 22.9375 C10.80642578 22.92912109 9.92535156 22.92074219 9.01757812 22.91210938 C8.17001953 22.90888672 7.32246094 22.90566406 6.44921875 22.90234375 C5.66893311 22.89710693 4.88864746 22.89187012 4.0847168 22.88647461 C0.86932037 23.06157232 -0.7201003 23.7201003 -3 26 C-5.20322121 22.69516819 -6.34788896 20.74896271 -5.56274414 16.80175781 C-5.30614014 16.02670898 -5.04953613 15.25166016 -4.78515625 14.453125 C-4.51123047 13.60878906 -4.23730469 12.76445312 -3.95507812 11.89453125 C-3.51325195 10.58548828 -3.51325195 10.58548828 -3.0625 9.25 C-2.77181641 8.36183594 -2.48113281 7.47367187 -2.18164062 6.55859375 C-1.46360682 4.36917921 -0.73614477 2.18337811 0 0 Z " fill="#797979" transform="translate(285,286)"/>
<path d="M0 0 C1.65 1.32 3.3 2.64 5 4 C4.38511719 4.23460937 3.77023437 4.46921875 3.13671875 4.7109375 C-0.83311912 7.10590367 -1.70553786 11.73880405 -3 16 C-3.52288436 18.6965276 -3.79658089 21.25384207 -4 24 C-4.66 23.01 -5.32 22.02 -6 21 C-6.66 20.67 -7.32 20.34 -8 20 C-6.68 15.71 -5.36 11.42 -4 7 C-8.455 7.495 -8.455 7.495 -13 8 C-13 7.34 -13 6.68 -13 6 C-8.71 4.02 -4.42 2.04 0 0 Z " fill="#8B8B8B" transform="translate(533,133)"/>
<path d="M0 0 C0.99 0 1.98 0 3 0 C3.48828125 1.98567708 3.9765625 3.97135417 4.46484375 5.95703125 C4.91010705 7.65683202 5.44433985 9.33301954 6 11 C5.1028125 11.3403125 5.1028125 11.3403125 4.1875 11.6875 C1.4448831 13.33307014 0.58031907 15.27035797 -1 18 C-1.66 18 -2.32 18 -3 18 C-3.12375 16.9275 -3.2475 15.855 -3.375 14.75 C-3.89643936 11.62136385 -4.40088254 9.66519576 -6 7 C-5.38125 6.95875 -4.7625 6.9175 -4.125 6.875 C-3.42375 6.58625 -2.7225 6.2975 -2 6 C-0.6954344 3.00384054 -0.6954344 3.00384054 0 0 Z " fill="#454545" transform="translate(546,213)"/>
<path d="M0 0 C0.99 0.33 1.98 0.66 3 1 C3.68132451 2.66072849 4.34742127 4.327767 5 6 C5.99 6.66 6.98 7.32 8 8 C8 8.66 8 9.32 8 10 C7.525625 10.433125 7.05125 10.86625 6.5625 11.3125 C4.58616914 13.44693733 4.38336764 15.16307947 4 18 C3.01 17.67 2.02 17.34 1 17 C0.33333333 15.33333333 -0.33333333 13.66666667 -1 12 C-1.99 11.67 -2.98 11.34 -4 11 C-3.71125 10.484375 -3.4225 9.96875 -3.125 9.4375 C-1.71219973 6.37643275 -0.8751483 3.25055082 0 0 Z " fill="#454545" transform="translate(398,161)"/>
<path d="M0 0 C0.66 0.33 1.32 0.66 2 1 C1.67 1.66 1.34 2.32 1 3 C1.66 3.33 2.32 3.66 3 4 C2.55269531 4.60585937 2.10539062 5.21171875 1.64453125 5.8359375 C-2.54903479 11.64791602 -5.99649533 17.49471338 -9 24 C-9.33 23.01 -9.66 22.02 -10 21 C-10.66 21 -11.32 21 -12 21 C-11.67 19.02 -11.34 17.04 -11 15 C-10.34 15 -9.68 15 -9 15 C-8.67386719 14.39671875 -8.34773438 13.7934375 -8.01171875 13.171875 C-7.57472656 12.37265625 -7.13773437 11.5734375 -6.6875 10.75 C-6.25824219 9.96109375 -5.82898438 9.1721875 -5.38671875 8.359375 C-4.05977238 6.10169723 -2.58630658 4.07952796 -1 2 C-0.67 1.34 -0.34 0.68 0 0 Z " fill="#787878" transform="translate(491,147)"/>
<path d="M0 0 C-1.54741209 3.73957921 -3.85299526 6.02523028 -6.75 8.8125 C-10.7422092 12.71792204 -14.44473562 16.69625891 -18 21 C-18.81640625 19.37109375 -18.81640625 19.37109375 -19 17 C-17.38098097 14.8081437 -15.82843223 12.99197352 -13.9375 11.0625 C-13.45861328 10.55009766 -12.97972656 10.03769531 -12.48632812 9.50976562 C-3.4599051 0 -3.4599051 0 0 0 Z " fill="#6F6F6F" transform="translate(508,148)"/>
<path d="M0 0 C0.66 0.99 1.32 1.98 2 3 C1.3503125 3.93972656 1.3503125 3.93972656 0.6875 4.8984375 C0.130625 5.71570313 -0.42625 6.53296875 -1 7.375 C-1.556875 8.18710938 -2.11375 8.99921875 -2.6875 9.8359375 C-4.17285844 11.86318187 -4.17285844 11.86318187 -4 14 C-3.34 14.66 -2.68 15.32 -2 16 C-3.32 18.31 -4.64 20.62 -6 23 C-7.61949011 20.42786866 -8.04408751 19.32330841 -7.625 16.25 C-7.41875 15.5075 -7.2125 14.765 -7 14 C-7.66 14 -8.32 14 -9 14 C-9.1953125 7.9453125 -9.1953125 7.9453125 -9 6 C-8.34 5.34 -7.68 4.68 -7 4 C-7 6.31 -7 8.62 -7 11 C-4.69 7.37 -2.38 3.74 0 0 Z " fill="#9C9C9C" transform="translate(488,167)"/>
<path d="M0 0 C0.66 0 1.32 0 2 0 C2.33 0.99 2.66 1.98 3 3 C3.66 3 4.32 3 5 3 C6.12933309 5.58133278 6.85020492 7.23653901 7 10 C5.70793099 12.95991904 3.97204527 15.4522234 2 18 C1.34 17.34 0.68 16.68 0 16 C0.375 12.875 0.375 12.875 1 10 C0.01 10.495 0.01 10.495 -1 11 C-1.02688151 9.35425434 -1.04634123 7.70838587 -1.0625 6.0625 C-1.07410156 5.14597656 -1.08570313 4.22945312 -1.09765625 3.28515625 C-1 1 -1 1 0 0 Z M1 4 C2 6 2 6 2 6 Z " fill="#6E6E6E" transform="translate(480,144)"/>
<path d="M0 0 C0 0.66 0 1.32 0 2 C0.66 2.66 1.32 3.32 2 4 C-5.18778031 6.80498744 -10.85125229 6.33428497 -18 4 C-14.68926459 2.09672699 -11.63400513 1.45686075 -7.875 0.875 C-6.29332031 0.62363281 -6.29332031 0.62363281 -4.6796875 0.3671875 C-2 0 -2 0 0 0 Z " fill="#585858" transform="translate(170,333)"/>
<path d="M0 0 C0.66 0.66 1.32 1.32 2 2 C3.65 2 5.3 2 7 2 C7 7.28 7 12.56 7 18 C6.34 18 5.68 18 5 18 C5.33 13.05 5.66 8.1 6 3 C5.01 3 4.02 3 3 3 C3.66 6.63 4.32 10.26 5 14 C4.01 14 3.02 14 2 14 C0.74335022 11.09399739 0 9.20395416 0 6 C-0.66 5.67 -1.32 5.34 -2 5 C-1.34 5 -0.68 5 0 5 C0 3.35 0 1.7 0 0 Z " fill="#898989" transform="translate(533,293)"/>
<path d="M0 0 C0.33 0 0.66 0 1 0 C1 2.97 1 5.94 1 9 C-3.84241633 10.33583899 -7.93437617 11.25328119 -13 11 C-10.42595029 7.13892543 -8.38979741 7.05680308 -4 6 C-4 5.34 -4 4.68 -4 4 C-2.68 4.33 -1.36 4.66 0 5 C0 3.35 0 1.7 0 0 Z " fill="#6D6D6D" transform="translate(527,149)"/>
<path d="M0 0 C0.66 0.33 1.32 0.66 2 1 C2.17942163 4.94727588 2.09350689 7.5980513 0 11 C-1.65 11 -3.3 11 -5 11 C-4.50769231 4.6 -4.50769231 4.6 -1.9375 1.5625 C-0.9784375 0.7890625 -0.9784375 0.7890625 0 0 Z " fill="#383838" transform="translate(275,327)"/>
<path d="M0 0 C0.8353125 0.556875 0.8353125 0.556875 1.6875 1.125 C0.883125 1.57875 0.07875 2.0325 -0.75 2.5 C-3.40106572 3.87225665 -3.40106572 3.87225665 -4.3125 6.125 C-3.6525 6.455 -2.9925 6.785 -2.3125 7.125 C-2.6425 8.445 -2.9725 9.765 -3.3125 11.125 C-1.9925 11.455 -0.6725 11.785 0.6875 12.125 C-1.2925 12.455 -3.2725 12.785 -5.3125 13.125 C-5.3125 12.135 -5.3125 11.145 -5.3125 10.125 C-6.75240623 7.95467524 -6.75240623 7.95467524 -8.3125 6.125 C-7.6525 6.125 -6.9925 6.125 -6.3125 6.125 C-6.3125 5.465 -6.3125 4.805 -6.3125 4.125 C-6.9725 4.125 -7.6325 4.125 -8.3125 4.125 C-7.3125 1.125 -7.3125 1.125 -5 -0.1875 C-2.3125 -0.875 -2.3125 -0.875 0 0 Z " fill="#8A8A8A" transform="translate(513.3125,135.875)"/>
<path d="M0 0 C0.33 0 0.66 0 1 0 C1.05794812 4.27077656 1.09357874 8.54145236 1.125 12.8125 C1.14175781 14.02744141 1.15851562 15.24238281 1.17578125 16.49414062 C1.18222656 17.65751953 1.18867187 18.82089844 1.1953125 20.01953125 C1.20578613 21.09307861 1.21625977 22.16662598 1.22705078 23.27270508 C1 26 1 26 -1 29 C-2.98 28.34 -4.96 27.68 -7 27 C-6.34 25.68 -5.68 24.36 -5 23 C-3.68 23.66 -2.36 24.32 -1 25 C-0.67 16.75 -0.34 8.5 0 0 Z " fill="#777777" transform="translate(539,254)"/>
<path d="M0 0 C0.78375 0.04125 1.5675 0.0825 2.375 0.125 C1.15446141 3.78661578 0.00717696 4.28770474 -3.1875 6.3125 C-4.01378906 6.84230469 -4.84007812 7.37210938 -5.69140625 7.91796875 C-6.32949219 8.31628906 -6.96757812 8.71460938 -7.625 9.125 C-7.955 8.135 -8.285 7.145 -8.625 6.125 C-10.64008358 5.39176204 -10.64008358 5.39176204 -12.625 5.125 C-11.79355469 4.83496094 -11.79355469 4.83496094 -10.9453125 4.5390625 C-10.22085937 4.27867187 -9.49640625 4.01828125 -8.75 3.75 C-7.67105469 3.36714844 -7.67105469 3.36714844 -6.5703125 2.9765625 C-3.71683585 1.72745023 -3.28196805 0.15628419 0 0 Z " fill="#9E9E9E" transform="translate(502.625,123.875)"/>
<path d="M0 0 C2.64 0 5.28 0 8 0 C8.33 0.99 8.66 1.98 9 3 C8.01 3.33 7.02 3.66 6 4 C6 4.99 6 5.98 6 7 C4.68 7 3.36 7 2 7 C2 6.34 2 5.68 2 5 C1.34 5 0.68 5 0 5 C-0.66 5.99 -1.32 6.98 -2 8 C-2 6.35 -2 4.7 -2 3 C-1.34 3 -0.68 3 0 3 C0 2.01 0 1.02 0 0 Z M1 1 C1.33 1.66 1.66 2.32 2 3 C3.32 2.67 4.64 2.34 6 2 C6 1.67 6 1.34 6 1 C4.35 1 2.7 1 1 1 Z " fill="#7D7D7D" transform="translate(481,122)"/>
<path d="M0 0 C0.66 0.99 1.32 1.98 2 3 C0.70700306 5.88437779 -0.65941363 7.87219421 -3 10 C-1.35 10 0.3 10 2 10 C2.33 10.66 2.66 11.32 3 12 C-0.05263664 12.98120464 -1.94736336 12.98120464 -5 12 C-5 11.34 -5 10.68 -5 10 C-6.32 9.34 -7.64 8.68 -9 8 C-8.67 7.34 -8.34 6.68 -8 6 C-6.515 6.99 -6.515 6.99 -5 8 C-2.74754119 5.31158141 -1.11786042 3.35358125 0 0 Z " fill="#AEAEAE" transform="translate(528,272)"/>
<path d="M0 0 C0.33 0.66 0.66 1.32 1 2 C5.455 1.505 5.455 1.505 10 1 C9.5625 3.375 9.5625 3.375 8 6 C5.05880129 7.07001562 2.09415757 7.57343918 -1 8 C-0.67 5.36 -0.34 2.72 0 0 Z " fill="#B6B6B6" transform="translate(290,284)"/>
<path d="M0 0 C6.6 0 13.2 0 20 0 C20 1.32 20 2.64 20 4 C17.36 4 14.72 4 12 4 C12.66 3.34 13.32 2.68 14 2 C7.07 1.505 7.07 1.505 0 1 C0 0.67 0 0.34 0 0 Z " fill="#808080" transform="translate(531,248)"/>
<path d="M0 0 C0.66 0.99 1.32 1.98 2 3 C0 5 0 5 -2 5.3125 C-4.20986708 5.82976199 -4.20986708 5.82976199 -5.25 8.125 C-6.13162656 11.50456848 -6.13640927 14.52156374 -6 18 C-6.66 18.33 -7.32 18.66 -8 19 C-8.10823773 16.75106046 -8.18569645 14.50062425 -8.25 12.25 C-8.29640625 10.99703125 -8.3428125 9.7440625 -8.390625 8.453125 C-8 5 -8 5 -5.984375 2.546875 C-5.32953125 2.03640625 -4.6746875 1.5259375 -4 1 C-4 1.66 -4 2.32 -4 3 C-2.68 3 -1.36 3 0 3 C0 2.01 0 1.02 0 0 Z " fill="#A5A5A5" transform="translate(487,126)"/>
<path d="M0 0 C0 0.66 0 1.32 0 2 C0.66 2 1.32 2 2 2 C2 2.99 2 3.98 2 5 C0.68 5 -0.64 5 -2 5 C-2 4.34 -2 3.68 -2 3 C-3.98 3.99 -5.96 4.98 -8 6 C-8.66 5.34 -9.32 4.68 -10 4 C-4.5 0 -4.5 0 0 0 Z " fill="#5E5E5E" transform="translate(515,131)"/>
<path d="M0 0 C0.66 0.33 1.32 0.66 2 1 C-0.16069021 4.98021881 -2.62650361 7.97250324 -6 11 C-6.66 11 -7.32 11 -8 11 C-7.43040847 7.37386801 -6.07625466 5.74482259 -3.4375 3.25 C-2.79683594 2.63640625 -2.15617187 2.0228125 -1.49609375 1.390625 C-1.00238281 0.93171875 -0.50867188 0.4728125 0 0 Z " fill="#7F7F7F" transform="translate(492,171)"/>
<path d="M0 0 C-1.46966358 3.39859703 -3.38037514 5.64963709 -6 8.25 C-6.70125 8.95640625 -7.4025 9.6628125 -8.125 10.390625 C-10 12 -10 12 -12 12 C-10.53033642 8.60140297 -8.61962486 6.35036291 -6 3.75 C-5.29875 3.04359375 -4.5975 2.3371875 -3.875 1.609375 C-2 0 -2 0 0 0 Z " fill="#5B5B5B" transform="translate(80,41)"/>
<path d="M0 0 C0.99 0 1.98 0 3 0 C2.50527325 4.57622244 2.50527325 4.57622244 0.0625 6.625 C-0.618125 7.07875 -1.29875 7.5325 -2 8 C-2.99 9.485 -2.99 9.485 -4 11 C-4.66 9.68 -5.32 8.36 -6 7 C-5.38125 6.95875 -4.7625 6.9175 -4.125 6.875 C-3.42375 6.58625 -2.7225 6.2975 -2 6 C-0.6954344 3.00384054 -0.6954344 3.00384054 0 0 Z " fill="#848484" transform="translate(546,213)"/>
<path d="M0 0 C0.68359375 1.765625 0.68359375 1.765625 1 4 C-0.21484375 5.921875 -0.21484375 5.921875 -1.9375 7.75 C-2.50339844 8.36359375 -3.06929688 8.9771875 -3.65234375 9.609375 C-4.31943359 10.29773438 -4.31943359 10.29773438 -5 11 C-5.68359375 9.234375 -5.68359375 9.234375 -6 7 C-4.78515625 5.078125 -4.78515625 5.078125 -3.0625 3.25 C-2.49660156 2.63640625 -1.93070312 2.0228125 -1.34765625 1.390625 C-0.90292969 0.93171875 -0.45820313 0.4728125 0 0 Z " fill="#7E7E7E" transform="translate(495,158)"/>
<path d="M0 0 C0.6875 1.625 0.6875 1.625 1 4 C-0.4375 7.25 -0.4375 7.25 -2 10 C-2.33 9.01 -2.66 8.02 -3 7 C-3.66 7 -4.32 7 -5 7 C-4.67 5.02 -4.34 3.04 -4 1 C-2.68 0.67 -1.36 0.34 0 0 Z " fill="#818181" transform="translate(484,161)"/>
<path d="M0 0 C0.99 0 1.98 0 3 0 C3 0.66 3 1.32 3 2 C3.66 2.33 4.32 2.66 5 3 C3.75539217 3.67667998 2.50403104 4.34094719 1.25 5 C0.20585937 5.556875 0.20585937 5.556875 -0.859375 6.125 C-3 7 -3 7 -7 7 C-6.21625 6.401875 -5.4325 5.80375 -4.625 5.1875 C-1.85425677 3.08914751 -1.85425677 3.08914751 0 0 Z " fill="#6D6C6D" transform="translate(506,123)"/>
<path d="M0 0 C0.66 0 1.32 0 2 0 C2 2.97 2 5.94 2 9 C0.66666667 9 -0.66666667 9 -2 9 C-2.25 3.375 -2.25 3.375 0 0 Z " fill="#3F3F3F" transform="translate(254,315)"/>
<path d="M0 0 C4.62 0 9.24 0 14 0 C13.34 1.32 12.68 2.64 12 4 C8.64474971 5.11841676 8.02910146 4.91538821 4.875 3.6875 C4.17117187 3.42324219 3.46734375 3.15898437 2.7421875 2.88671875 C1 2 1 2 0 0 Z " fill="#7B7B7B" transform="translate(218,288)"/>
<path d="M0 0 C0.99 0 1.98 0 3 0 C1.33248852 3.94139078 -1.22710649 6.7892812 -4 10 C-5 7 -5 7 -4.109375 5.17578125 C-3.66078125 4.56089844 -3.2121875 3.94601563 -2.75 3.3125 C-2.31171875 2.68988281 -1.8734375 2.06726563 -1.421875 1.42578125 C-0.95265625 0.95527344 -0.4834375 0.48476562 0 0 Z " fill="#585858" transform="translate(491,143)"/>
<path d="M0 0 C3.375 -0.125 3.375 -0.125 7 0 C7.66 0.66 8.32 1.32 9 2 C7.35 2 5.7 2 4 2 C4.33 3.65 4.66 5.3 5 7 C3.02 5.35 1.04 3.7 -1 2 C-0.67 1.34 -0.34 0.68 0 0 Z " fill="#828282" transform="translate(435,268)"/>
<path d="M0 0 C1.47726562 0.30550781 1.47726562 0.30550781 2.984375 0.6171875 C4.10585938 0.86855469 4.10585938 0.86855469 5.25 1.125 C4.26 1.455 3.27 1.785 2.25 2.125 C2.58 3.115 2.91 4.105 3.25 5.125 C1.6 4.795 -0.05 4.465 -1.75 4.125 C-1.09 3.795 -0.43 3.465 0.25 3.125 C0.25 2.465 0.25 1.805 0.25 1.125 C-3.05 1.125 -6.35 1.125 -9.75 1.125 C-5.37548685 -1.06225657 -4.54339195 -0.97358399 0 0 Z " fill="#8C8C8C" transform="translate(367.75,247.875)"/>
<path d="M0 0 C2.662062 0.3832143 5.32819962 0.68828996 8 1 C8 1.33 8 1.66 8 2 C4.04 2.66 0.08 3.32 -4 4 C-3.67 3.01 -3.34 2.02 -3 1 C-4.32 0.67 -5.64 0.34 -7 0 C-3.64629821 -1.1179006 -3.24364156 -0.87665988 0 0 Z " fill="#7C7C7C" transform="translate(432,249)"/>
<path d="M0 0 C3.99455527 0.61454696 6.74466336 2.70646737 10 5 C9.01 5.66 8.02 6.32 7 7 C5.82780457 6.21654285 4.66236332 5.42297164 3.5 4.625 C2.8503125 4.18414062 2.200625 3.74328125 1.53125 3.2890625 C1.0259375 2.86367187 0.520625 2.43828125 0 2 C0 1.34 0 0.68 0 0 Z " fill="#808080" transform="translate(515,147)"/>
<path d="M0 0 C0.99 0.33 1.98 0.66 3 1 C2.01 2.485 2.01 2.485 1 4 C1.66 4 2.32 4 3 4 C3 4.66 3 5.32 3 6 C0.69 6 -1.62 6 -4 6 C-3.67 4.68 -3.34 3.36 -3 2 C-2.01 2 -1.02 2 0 2 C0 1.34 0 0.68 0 0 Z " fill="#272727" transform="translate(504,136)"/>
<path d="M0 0 C0.66 0 1.32 0 2 0 C2.625 2.375 2.625 2.375 3 5 C2.34 5.66 1.68 6.32 1 7 C1 6.01 1 5.02 1 4 C0.21625 4.20625 -0.5675 4.4125 -1.375 4.625 C-2.24125 4.74875 -3.1075 4.8725 -4 5 C-4.66 4.34 -5.32 3.68 -6 3 C-5.195625 2.690625 -4.39125 2.38125 -3.5625 2.0625 C-1.10919595 1.23664655 -1.10919595 1.23664655 0 0 Z " fill="#939393" transform="translate(531,284)"/>
<path d="M0 0 C0.66 0.33 1.32 0.66 2 1 C0.68 2.65 -0.64 4.3 -2 6 C1.3 6 4.6 6 8 6 C8 6.33 8 6.66 8 7 C4.37 7 0.74 7 -3 7 C-3.33 5.68 -3.66 4.36 -4 3 C-2.68 2.01 -1.36 1.02 0 0 Z " fill="#868686" transform="translate(152,224)"/>
<path d="M0 0 C0.66 0.33 1.32 0.66 2 1 C-1.3 4.3 -4.6 7.6 -8 11 C-8 6.67750434 -5.85084926 5.11604454 -3 2 C-2.01 1.34 -1.02 0.68 0 0 Z " fill="#7D7D7D" transform="translate(106,255)"/>
<path d="M0 0 C0.66 0.33 1.32 0.66 2 1 C1.67 1.66 1.34 2.32 1 3 C1.66 3.33 2.32 3.66 3 4 C1.35 5.65 -0.3 7.3 -2 9 C-2.66 7.68 -3.32 6.36 -4 5 C-3.525625 4.54625 -3.05125 4.0925 -2.5625 3.625 C-0.90972192 2.06741796 -0.90972192 2.06741796 0 0 Z " fill="#979797" transform="translate(491,147)"/>
<path d="M0 0 C0.66 0 1.32 0 2 0 C1.5206753 4.31392226 0.2542015 6.16569547 -3 9 C-3.75 7.3125 -3.75 7.3125 -4 5 C-2.1875 2.25 -2.1875 2.25 0 0 Z " fill="#787878" transform="translate(485,137)"/>
<path d="M0 0 C2.97 0.495 2.97 0.495 6 1 C6 1.99 6 2.98 6 4 C6.66 4 7.32 4 8 4 C8 4.66 8 5.32 8 6 C7.01 6.33 6.02 6.66 5 7 C5 6.34 5 5.68 5 5 C4.01 4.67 3.02 4.34 2 4 C2 3.34 2 2.68 2 2 C1.34 2 0.68 2 0 2 C0 1.34 0 0.68 0 0 Z " fill="#101010" transform="translate(488,129)"/>
<path d="M0 0 C0.66 0.33 1.32 0.66 2 1 C-1.3 4.3 -4.6 7.6 -8 11 C-8.66 10.67 -9.32 10.34 -10 10 C-7.02911382 6.00073014 -3.87051275 3.07881696 0 0 Z " fill="#747474" transform="translate(251,111)"/>
<path d="M0 0 C0 0.66 0 1.32 0 2 C0.66 2.66 1.32 3.32 2 4 C0.02 4.33 -1.96 4.66 -4 5 C-4 4.34 -4 3.68 -4 3 C-6.31 3 -8.62 3 -11 3 C-11 2.67 -11 2.34 -11 2 C-9.5422647 1.664061 -8.08378894 1.33133376 -6.625 1 C-5.40683594 0.7215625 -5.40683594 0.7215625 -4.1640625 0.4375 C-2 0 -2 0 0 0 Z " fill="#727272" transform="translate(170,333)"/>
<path d="M0 0 C2.97 0.495 2.97 0.495 6 1 C6 2.32 6 3.64 6 5 C4.35 5.33 2.7 5.66 1 6 C1.33 4.35 1.66 2.7 2 1 C1.34 0.67 0.68 0.34 0 0 Z " fill="#747474" transform="translate(72,167)"/>
<path d="M0 0 C0.66 0.33 1.32 0.66 2 1 C2 3.31 2 5.62 2 8 C1.01 8.495 1.01 8.495 0 9 C-1.125 7.3125 -1.125 7.3125 -2 5 C-1.125 2.25 -1.125 2.25 0 0 Z " fill="#282828" transform="translate(280,308)"/>
<path d="M0 0 C2 1 2 1 3 3 C1.03533587 4.06775224 -0.96855359 5.06553465 -3 6 C-5 5 -5 5 -6 3 C-4.03533587 1.93224776 -2.03144641 0.93446535 0 0 Z " fill="#929292" transform="translate(513,158)"/>
<path d="M0 0 C-3.32307692 3.93846154 -3.32307692 3.93846154 -6.75 4.25 C-7.4925 4.1675 -8.235 4.085 -9 4 C-9 3.34 -9 2.68 -9 2 C-5.86501708 0.14223235 -3.62528568 -0.20140476 0 0 Z " fill="#606060" transform="translate(529,137)"/>
<path d="M0 0 C0.66 0 1.32 0 2 0 C3.625 2 3.625 2 5 4 C3.02 5.32 1.04 6.64 -1 8 C-2.2077558 4.37673261 -1.54311128 3.35853631 0 0 Z " fill="#969696" transform="translate(488,131)"/>
<path d="M0 0 C1.65 1.32 3.3 2.64 5 4 C1.535 5.485 1.535 5.485 -2 7 C-2.6875 5.1875 -2.6875 5.1875 -3 3 C-1.5625 1.25 -1.5625 1.25 0 0 Z " fill="#505050" transform="translate(533,133)"/>
<path d="M0 0 C0.66 0 1.32 0 2 0 C4.125 4.625 4.125 4.625 3 8 C2.34 7.01 1.68 6.02 1 5 C0.34 5.99 -0.32 6.98 -1 8 C-1.125 2.25 -1.125 2.25 0 0 Z " fill="#A6A6A6" transform="translate(365,206)"/>
<path d="M0 0 C0.66 1.32 1.32 2.64 2 4 C-1.75 7 -1.75 7 -4 7 C-3.43628586 3.73045798 -2.50037734 2.17424117 0 0 Z " fill="#9D9D9D" transform="translate(474,359)"/>
<path d="M0 0 C0.763125 0.20625 1.52625 0.4125 2.3125 0.625 C-0.62578597 3.12798434 -2.86652761 4.09430939 -6.6875 4.625 C-5.39900677 0.7595203 -4.17039106 -0.58191503 0 0 Z " fill="#8C8C8C" transform="translate(254.6875,356.375)"/>
<path d="M0 0 C-1.28519565 2.86697492 -2.57129254 4.97607712 -5 7 C-5.66 7 -6.32 7 -7 7 C-3.86206897 0 -3.86206897 0 0 0 Z " fill="#6D6D6D" transform="translate(50,275)"/>
<path d="M0 0 C0.99 0.33 1.98 0.66 3 1 C3.33 2.65 3.66 4.3 4 6 C2.35 6.33 0.7 6.66 -1 7 C-0.67 4.69 -0.34 2.38 0 0 Z " fill="#7F7F7F" transform="translate(398,161)"/>
<path d="M0 0 C0.33 0 0.66 0 1 0 C1 2.64 1 5.28 1 8 C2.65 8 4.3 8 6 8 C3.35261084 9.4606285 2.10551666 10 -1 10 C-0.67 6.7 -0.34 3.4 0 0 Z " fill="#B9B9B9" transform="translate(218,27)"/>
<path d="M0 0 C2.475 0.99 2.475 0.99 5 2 C4.34 3.98 3.68 5.96 3 8 C2.67 7.34 2.34 6.68 2 6 C2.33 5.01 2.66 4.02 3 3 C1.68 3.33 0.36 3.66 -1 4 C-0.67 2.68 -0.34 1.36 0 0 Z " fill="#808080" transform="translate(269,336)"/>
<path d="M0 0 C0.33 0 0.66 0 1 0 C1 2.64 1 5.28 1 8 C0.01 8 -0.98 8 -2 8 C-2 7.34 -2 6.68 -2 6 C-2.66 6 -3.32 6 -4 6 C-4 5.34 -4 4.68 -4 4 C-2.68 4.33 -1.36 4.66 0 5 C0 3.35 0 1.7 0 0 Z " fill="#0F0F0F" transform="translate(527,149)"/>
<path d="M0 0 C1.32 0.66 2.64 1.32 4 2 C2.02 2.99 0.04 3.98 -2 5 C-2.66 4.34 -3.32 3.68 -4 3 C-2.68 2.01 -1.36 1.02 0 0 Z " fill="#878787" transform="translate(509,132)"/>
<path d="M0 0 C0.66 0.99 1.32 1.98 2 3 C-0.35953094 5.35953094 -1.77895617 5.49141413 -5 6 C-5.33 4.68 -5.66 3.36 -6 2 C-5.34 1.67 -4.68 1.34 -4 1 C-4 1.66 -4 2.32 -4 3 C-2.68 3 -1.36 3 0 3 C0 2.01 0 1.02 0 0 Z " fill="#9A9A9A" transform="translate(487,126)"/>
<path d="M0 0 C0.33 0 0.66 0 1 0 C1 2.64 1 5.28 1 8 C0.01 7.67 -0.98 7.34 -2 7 C-1.125 2.25 -1.125 2.25 0 0 Z " fill="#3B3B3B" transform="translate(240,302)"/>
<path d="M0 0 C0.66 0 1.32 0 2 0 C1.75 1.875 1.75 1.875 1 4 C-1.0625 5.25 -1.0625 5.25 -3 6 C-1.125 1.125 -1.125 1.125 0 0 Z " fill="#545454" transform="translate(495,144)"/>
<path d="" fill="#FFFFFF" transform="translate(0,0)"/>
<path d="" fill="#FFFFFF" transform="translate(0,0)"/>
<path d="" fill="#FFFFFF" transform="translate(0,0)"/>
<path d="" fill="#FFFFFF" transform="translate(0,0)"/>
<path d="" fill="#FFFFFF" transform="translate(0,0)"/>
<path d="" fill="#FFFFFF" transform="translate(0,0)"/>
<path d="" fill="#FFFFFF" transform="translate(0,0)"/>
<path d="" fill="#FFFFFF" transform="translate(0,0)"/>
<path d="" fill="#FFFFFF" transform="translate(0,0)"/>
<path d="" fill="#FFFFFF" transform="translate(0,0)"/>
<path d="" fill="#FFFFFF" transform="translate(0,0)"/>
<path d="" fill="#FFFFFF" transform="translate(0,0)"/>
<path d="" fill="#FFFFFF" transform="translate(0,0)"/>
<path d="" fill="#FFFFFF" transform="translate(0,0)"/>
<path d="" fill="#FFFFFF" transform="translate(0,0)"/>
<path d="" fill="#FFFFFF" transform="translate(0,0)"/>
<path d="" fill="#FFFFFF" transform="translate(0,0)"/>
<path d="" fill="#FFFFFF" transform="translate(0,0)"/>
<path d="" fill="#FFFFFF" transform="translate(0,0)"/>
<path d="" fill="#FFFFFF" transform="translate(0,0)"/>
<path d="" fill="#FFFFFF" transform="translate(0,0)"/>
<path d="" fill="#FFFFFF" transform="translate(0,0)"/>
<path d="" fill="#FFFFFF" transform="translate(0,0)"/>
<path d="" fill="#FFFFFF" transform="translate(0,0)"/>
<path d="" fill="#FFFFFF" transform="translate(0,0)"/>
<path d="" fill="#FFFFFF" transform="translate(0,0)"/>
<path d="" fill="#FFFFFF" transform="translate(0,0)"/>
<path d="" fill="#FFFFFF" transform="translate(0,0)"/>
<path d="" fill="#FFFFFF" transform="translate(0,0)"/>
<path d="" fill="#FFFFFF" transform="translate(0,0)"/>
<path d="" fill="#FFFFFF" transform="translate(0,0)"/>
<path d="" fill="#FFFFFF" transform="translate(0,0)"/>
<path d="" fill="#FFFFFF" transform="translate(0,0)"/>
<path d="" fill="#FFFFFF" transform="translate(0,0)"/>
<path d="" fill="#FFFFFF" transform="translate(0,0)"/>
<path d="" fill="#FFFFFF" transform="translate(0,0)"/>
<path d="" fill="#FFFFFF" transform="translate(0,0)"/>
<path d="" fill="#FFFFFF" transform="translate(0,0)"/>
<path d="" fill="#FFFFFF" transform="translate(0,0)"/>
<path d="" fill="#FFFFFF" transform="translate(0,0)"/>
<path d="" fill="#FFFFFF" transform="translate(0,0)"/>
<path d="" fill="#FFFFFF" transform="translate(0,0)"/>
<path d="" fill="#FFFFFF" transform="translate(0,0)"/>
<path d="" fill="#FFFFFF" transform="translate(0,0)"/>
	
<use id="Page 1" href="#img1" x="108" y="85" />
<style>
	tspan { white-space:pre }
</style>
</svg>
